G04*
G04 #@! TF.GenerationSoftware,Altium Limited,Altium Designer,21.0.9 (235)*
G04*
G04 Layer_Color=32896*
%FSLAX25Y25*%
%MOIN*%
G70*
G04*
G04 #@! TF.SameCoordinates,A9A079C1-7CC1-46CE-92A7-F05A66FF1BB4*
G04*
G04*
G04 #@! TF.FilePolarity,Positive*
G04*
G01*
G75*
%ADD10C,0.00787*%
%ADD11C,0.01000*%
%ADD12C,0.00500*%
%ADD13C,0.00050*%
%ADD14C,0.00000*%
%ADD15C,0.00394*%
%ADD16C,0.00800*%
%ADD17C,0.00400*%
%ADD18C,0.00197*%
%ADD19C,0.00201*%
%ADD52C,0.00840*%
%ADD53C,0.01200*%
%ADD54C,0.00600*%
G36*
X97966Y-60062D02*
X93635D01*
Y-58132D01*
X97966D01*
Y-60062D01*
D02*
G37*
G36*
X77887D02*
X73556D01*
Y-58132D01*
X77887D01*
Y-60062D01*
D02*
G37*
G36*
X97966Y-65062D02*
X93635D01*
Y-63132D01*
X97966D01*
Y-65062D01*
D02*
G37*
G36*
X77887D02*
X73556D01*
Y-63132D01*
X77887D01*
Y-65062D01*
D02*
G37*
G36*
X97966Y-70062D02*
X93635D01*
Y-68132D01*
X97966D01*
Y-70062D01*
D02*
G37*
G36*
X77887D02*
X73556D01*
Y-68132D01*
X77887D01*
Y-70062D01*
D02*
G37*
G36*
X97966Y-75062D02*
X93635D01*
Y-73132D01*
X97966D01*
Y-75062D01*
D02*
G37*
G36*
X77887D02*
X73556D01*
Y-73132D01*
X77887D01*
Y-75062D01*
D02*
G37*
G36*
X18522Y-111612D02*
X16555D01*
Y-107868D01*
X18522D01*
Y-111612D01*
D02*
G37*
G36*
X13922Y-111613D02*
X11945D01*
Y-107868D01*
X13922D01*
Y-111613D01*
D02*
G37*
G36*
X18539Y-160825D02*
X16573D01*
Y-157081D01*
X18539D01*
Y-160825D01*
D02*
G37*
G36*
X13939Y-160826D02*
X11963D01*
Y-157081D01*
X13939D01*
Y-160826D01*
D02*
G37*
G36*
X18532Y-210037D02*
X16566D01*
Y-206294D01*
X18532D01*
Y-210037D01*
D02*
G37*
G36*
X13932Y-210038D02*
X11956D01*
Y-206294D01*
X13932D01*
Y-210038D01*
D02*
G37*
D10*
X104383Y-79735D02*
G03*
X104383Y-79735I-394J0D01*
G01*
X49642Y-84591D02*
Y-83803D01*
X52004Y-84591D02*
Y-83803D01*
X33429Y-43417D02*
G03*
X33429Y-43417I-394J0D01*
G01*
X104383Y-79735D02*
G03*
X104383Y-79735I-394J0D01*
G01*
D11*
X57722Y-13188D02*
X58378Y-12532D01*
X59690D01*
X60346Y-13188D01*
Y-15812D01*
X59690Y-16468D01*
X58378D01*
X57722Y-15812D01*
X56410Y-16468D02*
X55098D01*
X55754D01*
Y-12532D01*
X56410Y-13188D01*
X100124Y-50532D02*
Y-53812D01*
X99468Y-54468D01*
X98156D01*
X97500Y-53812D01*
Y-50532D01*
X96188Y-54468D02*
X94876D01*
X95532D01*
Y-50532D01*
X96188Y-51188D01*
X118656Y-60688D02*
X119312Y-60032D01*
X120624D01*
X121280Y-60688D01*
Y-63312D01*
X120624Y-63968D01*
X119312D01*
X118656Y-63312D01*
X117344Y-60688D02*
X116688Y-60032D01*
X115376D01*
X114720Y-60688D01*
Y-61344D01*
X115376Y-62000D01*
X116032D01*
X115376D01*
X114720Y-62656D01*
Y-63312D01*
X115376Y-63968D01*
X116688D01*
X117344Y-63312D01*
X123624Y-87032D02*
Y-87688D01*
X122312Y-89000D01*
X121000Y-87688D01*
Y-87032D01*
X122312Y-89000D02*
Y-90968D01*
X119688D02*
X118376D01*
X119032D01*
Y-87032D01*
X119688Y-87688D01*
X130156Y-96188D02*
X130812Y-95532D01*
X132124D01*
X132780Y-96188D01*
Y-98812D01*
X132124Y-99468D01*
X130812D01*
X130156Y-98812D01*
X126220Y-95532D02*
X128844D01*
Y-97500D01*
X127532Y-96844D01*
X126876D01*
X126220Y-97500D01*
Y-98812D01*
X126876Y-99468D01*
X128188D01*
X128844Y-98812D01*
X63780Y-73532D02*
Y-76812D01*
X63124Y-77468D01*
X61812D01*
X61156Y-76812D01*
Y-73532D01*
X59844Y-74188D02*
X59188Y-73532D01*
X57876D01*
X57220Y-74188D01*
Y-74844D01*
X57876Y-75500D01*
X58532D01*
X57876D01*
X57220Y-76156D01*
Y-76812D01*
X57876Y-77468D01*
X59188D01*
X59844Y-76812D01*
X130156Y-132688D02*
X130812Y-132032D01*
X132124D01*
X132780Y-132688D01*
Y-135312D01*
X132124Y-135968D01*
X130812D01*
X130156Y-135312D01*
X126876Y-135968D02*
Y-132032D01*
X128844Y-134000D01*
X126220D01*
X53124Y-73968D02*
Y-70032D01*
X51156D01*
X50500Y-70688D01*
Y-72000D01*
X51156Y-72656D01*
X53124D01*
X51812D02*
X50500Y-73968D01*
X49188D02*
X47876D01*
X48532D01*
Y-70032D01*
X49188Y-70688D01*
X69156Y-17688D02*
X69812Y-17032D01*
X71124D01*
X71780Y-17688D01*
Y-20312D01*
X71124Y-20968D01*
X69812D01*
X69156Y-20312D01*
X65220Y-20968D02*
X67844D01*
X65220Y-18344D01*
Y-17688D01*
X65876Y-17032D01*
X67188D01*
X67844Y-17688D01*
D12*
X103480Y-128492D02*
G03*
X113323Y-138335I9843J0D01*
G01*
D02*
G03*
X123165Y-128492I0J9843D01*
G01*
X113323Y-93059D02*
G03*
X103480Y-102902I0J-9843D01*
G01*
X123165D02*
G03*
X113323Y-93059I-9843J0D01*
G01*
X53476Y-30023D02*
Y-25141D01*
X60169Y-30023D02*
Y-25141D01*
X103480Y-128492D02*
Y-102902D01*
X123165Y-128492D02*
Y-102902D01*
X63360Y-125030D02*
X93281D01*
X63360Y-79164D02*
X93281D01*
X103480Y-128492D02*
G03*
X113323Y-138335I9843J0D01*
G01*
D02*
G03*
X123165Y-128492I0J9843D01*
G01*
X113323Y-93059D02*
G03*
X103480Y-102902I0J-9843D01*
G01*
X123165D02*
G03*
X113323Y-93059I-9843J0D01*
G01*
X53476Y-21165D02*
X60169D01*
X53476Y-33999D02*
Y-21165D01*
Y-33999D02*
X60169D01*
Y-21165D01*
X103480Y-128492D02*
Y-102902D01*
X123165Y-128492D02*
Y-102902D01*
X35280Y-4205D02*
X78858D01*
X105280D01*
X147524D01*
X35280Y-204795D02*
Y-4205D01*
X147524Y-204795D02*
Y-4205D01*
X35280Y-204795D02*
X56421D01*
X126067D01*
X147524D01*
X56421D02*
Y-179244D01*
Y-129520D01*
X126067D01*
Y-179244D02*
Y-129520D01*
Y-204795D02*
Y-179244D01*
X56421D02*
X126067D01*
X105280Y-19520D02*
Y-4205D01*
X78858Y-19520D02*
X105280D01*
X78858D02*
Y-4205D01*
X63360Y-125030D02*
Y-79164D01*
X93281Y-125030D02*
Y-79164D01*
X63360Y-125030D02*
X93281D01*
X63360Y-79164D02*
X93281D01*
D13*
X162205Y-244094D02*
G03*
X162205Y-244094I-6693J0D01*
G01*
X18504Y-11811D02*
G03*
X18504Y-11811I-6693J0D01*
G01*
X21176Y-109759D02*
G03*
X21176Y-109759I-5906J0D01*
G01*
X162205Y-11811D02*
G03*
X162205Y-11811I-6693J0D01*
G01*
X18504Y-244094D02*
G03*
X18504Y-244094I-6693J0D01*
G01*
X21176Y-158971D02*
G03*
X21176Y-158971I-5906J0D01*
G01*
Y-208184D02*
G03*
X21176Y-208184I-5906J0D01*
G01*
X0Y-255906D02*
X167323D01*
X0Y0D02*
X167323D01*
X166323Y-255906D02*
Y0D01*
X0Y-255906D02*
Y0D01*
Y-255906D02*
Y-98425D01*
D14*
X115200Y-74400D02*
X120800D01*
Y-76900D02*
Y-74400D01*
X115200Y-76900D02*
Y-74400D01*
Y-71000D02*
X120800D01*
X115200D02*
Y-68500D01*
X120800Y-71000D02*
Y-68500D01*
X115200Y-74400D02*
Y-71000D01*
Y-68500D02*
X120800D01*
Y-74400D02*
Y-71000D01*
X115200Y-76900D02*
X120800D01*
X126523Y-109897D02*
X132123D01*
Y-112397D02*
Y-109897D01*
X126523Y-112397D02*
Y-109897D01*
Y-106497D02*
X132123D01*
X126523D02*
Y-103997D01*
X132123Y-106497D02*
Y-103997D01*
X126523Y-109897D02*
Y-106497D01*
Y-103997D02*
X132123D01*
Y-109897D02*
Y-106497D01*
X126523Y-112397D02*
X132123D01*
X126523Y-121497D02*
X132123D01*
X126523D02*
Y-118997D01*
X132123Y-121497D02*
Y-118997D01*
X126523Y-124897D02*
X132123D01*
Y-127397D02*
Y-124897D01*
X126523Y-127397D02*
Y-124897D01*
X132123D02*
Y-121497D01*
X126523Y-127397D02*
X132123D01*
X126523Y-124897D02*
Y-121497D01*
Y-118997D02*
X132123D01*
X65523Y-27997D02*
X71123D01*
X65523D02*
Y-25497D01*
X71123Y-27997D02*
Y-25497D01*
X65523Y-31397D02*
X71123D01*
Y-33897D02*
Y-31397D01*
X65523Y-33897D02*
Y-31397D01*
X71123D02*
Y-27997D01*
X65523Y-33897D02*
X71123D01*
X65523Y-31397D02*
Y-27997D01*
Y-25497D02*
X71123D01*
D15*
X24654Y-111333D02*
X30953D01*
X24654Y-108184D02*
X30953D01*
Y-111333D02*
Y-108184D01*
X24654Y-111333D02*
Y-108184D01*
X25736Y-160555D02*
X32035D01*
X25736Y-157405D02*
X32035D01*
Y-160555D02*
Y-157405D01*
X25736Y-160555D02*
Y-157405D01*
Y-209759D02*
X32035D01*
X25736Y-206609D02*
X32035D01*
Y-209759D02*
Y-206609D01*
X25736Y-209759D02*
Y-206609D01*
X49248Y-87347D02*
Y-81047D01*
X52398Y-87347D02*
Y-81047D01*
X49248D02*
X52398D01*
X49248Y-87347D02*
X52398D01*
X27803Y-111333D02*
Y-108184D01*
X26228Y-109759D02*
X29378D01*
X28886Y-160555D02*
Y-157405D01*
X27311Y-158980D02*
X30461D01*
X28886Y-209759D02*
Y-206609D01*
X27311Y-208184D02*
X30461D01*
X49248Y-84197D02*
X52398D01*
X50823Y-85772D02*
Y-82622D01*
D16*
X125524Y-241200D02*
X122525D01*
X124024D01*
Y-239201D01*
X125524D01*
X122525D01*
Y-236701D02*
Y-237701D01*
X123025Y-238201D01*
X124024D01*
X124524Y-237701D01*
Y-236701D01*
X124024Y-236202D01*
X123525D01*
Y-238201D01*
X122525Y-235202D02*
Y-234202D01*
Y-234702D01*
X125524D01*
Y-235202D01*
X122525Y-232703D02*
X124524D01*
Y-232203D01*
X124024Y-231703D01*
X122525D01*
X124024D01*
X124524Y-231203D01*
X124024Y-230703D01*
X122525D01*
Y-228204D02*
Y-229204D01*
X123025Y-229704D01*
X124024D01*
X124524Y-229204D01*
Y-228204D01*
X124024Y-227704D01*
X123525D01*
Y-229704D01*
X125024Y-226205D02*
X124524D01*
Y-226705D01*
Y-225705D01*
Y-226205D01*
X123025D01*
X122525Y-225705D01*
X122025Y-224205D02*
Y-222206D01*
X125524Y-221206D02*
X122525D01*
X124024D01*
Y-219207D01*
X125524D01*
X122525D01*
X125524Y-218207D02*
X123025D01*
X122525Y-217708D01*
Y-216708D01*
X123025Y-216208D01*
X125524D01*
Y-215208D02*
X122525D01*
Y-213709D01*
X123025Y-213209D01*
X125024D01*
X125524Y-213709D01*
Y-215208D01*
X119505Y-241200D02*
Y-240200D01*
Y-240700D01*
X116506D01*
Y-241200D01*
Y-240200D01*
X119006Y-236701D02*
X119505Y-237201D01*
Y-238201D01*
X119006Y-238701D01*
X117006D01*
X116506Y-238201D01*
Y-237201D01*
X117006Y-236701D01*
X118006D01*
Y-237701D01*
X119505Y-233702D02*
Y-235702D01*
X116506D01*
Y-233702D01*
X118006Y-235702D02*
Y-234702D01*
X116506Y-232703D02*
X119505D01*
X116506Y-230703D01*
X119505D01*
X119006Y-226705D02*
X119505Y-226205D01*
Y-225205D01*
X119006Y-224705D01*
X118506D01*
X118006Y-225205D01*
Y-225705D01*
Y-225205D01*
X117506Y-224705D01*
X117006D01*
X116506Y-225205D01*
Y-226205D01*
X117006Y-226705D01*
X119006Y-223706D02*
X119505Y-223206D01*
Y-222206D01*
X119006Y-221706D01*
X118506D01*
X118006Y-222206D01*
Y-222706D01*
Y-222206D01*
X117506Y-221706D01*
X117006D01*
X116506Y-222206D01*
Y-223206D01*
X117006Y-223706D01*
X119006Y-220707D02*
X119505Y-220207D01*
Y-219207D01*
X119006Y-218707D01*
X117006D01*
X116506Y-219207D01*
Y-220207D01*
X117006Y-220707D01*
X119006D01*
X108468Y-241200D02*
Y-239201D01*
Y-240200D01*
X105469D01*
Y-236701D02*
Y-237701D01*
X105968Y-238201D01*
X106968D01*
X107468Y-237701D01*
Y-236701D01*
X106968Y-236202D01*
X106468D01*
Y-238201D01*
X107468Y-234702D02*
Y-233702D01*
X106968Y-233203D01*
X105469D01*
Y-234702D01*
X105968Y-235202D01*
X106468Y-234702D01*
Y-233203D01*
X105469Y-232203D02*
X107468D01*
Y-231703D01*
X106968Y-231203D01*
X105469D01*
X106968D01*
X107468Y-230703D01*
X106968Y-230204D01*
X105469D01*
X107468Y-229204D02*
Y-228704D01*
X106968D01*
Y-229204D01*
X107468D01*
X105968D02*
Y-228704D01*
X105469D01*
Y-229204D01*
X105968D01*
X102949Y-241200D02*
X99950D01*
X100949D01*
X102949Y-239201D01*
X101449Y-240700D01*
X99950Y-239201D01*
Y-236701D02*
Y-237701D01*
X100450Y-238201D01*
X101449D01*
X101949Y-237701D01*
Y-236701D01*
X101449Y-236202D01*
X100949D01*
Y-238201D01*
X99950Y-235202D02*
X101949D01*
Y-233702D01*
X101449Y-233203D01*
X99950D01*
Y-232203D02*
X101949D01*
Y-230703D01*
X101449Y-230204D01*
X99950D01*
X101949Y-229204D02*
X100450D01*
X99950Y-228704D01*
Y-227204D01*
X99450D01*
X98950Y-227704D01*
Y-228204D01*
X99950Y-227204D02*
X101949D01*
X102949Y-223206D02*
X99950D01*
X100949Y-222206D01*
X99950Y-221206D01*
X102949D01*
X101949Y-219707D02*
Y-218707D01*
X101449Y-218207D01*
X99950D01*
Y-219707D01*
X100450Y-220207D01*
X100949Y-219707D01*
Y-218207D01*
X99950Y-217208D02*
X102949D01*
X100949D02*
X101949Y-215708D01*
X100949Y-217208D02*
X99950Y-215708D01*
X101949Y-213709D02*
Y-212709D01*
X101449Y-212209D01*
X99950D01*
Y-213709D01*
X100450Y-214209D01*
X100949Y-213709D01*
Y-212209D01*
X102949Y-211210D02*
X99950D01*
Y-209710D01*
X100450Y-209210D01*
X100949D01*
X101449D01*
X101949Y-209710D01*
Y-211210D01*
Y-207711D02*
Y-206711D01*
X101449Y-206211D01*
X99950D01*
Y-207711D01*
X100450Y-208211D01*
X100949Y-207711D01*
Y-206211D01*
X96430Y-239201D02*
Y-240200D01*
Y-239701D01*
X93931D01*
X93431Y-240200D01*
Y-240700D01*
X93931Y-241200D01*
X95431Y-237701D02*
Y-236701D01*
X94931Y-236202D01*
X93431D01*
Y-237701D01*
X93931Y-238201D01*
X94431Y-237701D01*
Y-236202D01*
X95431Y-233203D02*
Y-234702D01*
X94931Y-235202D01*
X93931D01*
X93431Y-234702D01*
Y-233203D01*
Y-232203D02*
X96430D01*
X94431D02*
X95431Y-230703D01*
X94431Y-232203D02*
X93431Y-230703D01*
Y-226205D02*
X96430D01*
X95431Y-225205D01*
X96430Y-224205D01*
X93431D01*
Y-223206D02*
Y-222206D01*
Y-222706D01*
X95431D01*
Y-223206D01*
X93431Y-220707D02*
Y-219707D01*
Y-220207D01*
X96430D01*
Y-220707D01*
X93431Y-218207D02*
Y-217208D01*
Y-217708D01*
X96430D01*
Y-218207D01*
X93431Y-215708D02*
Y-214209D01*
X93931Y-213709D01*
X94431Y-214209D01*
Y-215208D01*
X94931Y-215708D01*
X95431Y-215208D01*
Y-213709D01*
X90911Y-239201D02*
Y-240200D01*
Y-239701D01*
X88412D01*
X87912Y-240200D01*
Y-240700D01*
X88412Y-241200D01*
X89912Y-237701D02*
Y-236701D01*
X89412Y-236202D01*
X87912D01*
Y-237701D01*
X88412Y-238201D01*
X88912Y-237701D01*
Y-236202D01*
X89912Y-235202D02*
X87912D01*
X88912D01*
X89412Y-234702D01*
X89912Y-234202D01*
Y-233702D01*
X87912Y-230703D02*
Y-231703D01*
X88412Y-232203D01*
X89412D01*
X89912Y-231703D01*
Y-230703D01*
X89412Y-230204D01*
X88912D01*
Y-232203D01*
X90911Y-227204D02*
X87912D01*
Y-228704D01*
X88412Y-229204D01*
X89412D01*
X89912Y-228704D01*
Y-227204D01*
X90412Y-221206D02*
X90911Y-221706D01*
Y-222706D01*
X90412Y-223206D01*
X88412D01*
X87912Y-222706D01*
Y-221706D01*
X88412Y-221206D01*
X89412D01*
Y-222206D01*
X87912Y-219707D02*
Y-218707D01*
X88412Y-218207D01*
X89412D01*
X89912Y-218707D01*
Y-219707D01*
X89412Y-220207D01*
X88412D01*
X87912Y-219707D01*
Y-216708D02*
Y-215708D01*
X88412Y-215208D01*
X89412D01*
X89912Y-215708D01*
Y-216708D01*
X89412Y-217208D01*
X88412D01*
X87912Y-216708D01*
X90911Y-212209D02*
X87912D01*
Y-213709D01*
X88412Y-214209D01*
X89412D01*
X89912Y-213709D01*
Y-212209D01*
X85393Y-239201D02*
Y-241200D01*
X83893D01*
Y-240200D01*
Y-241200D01*
X82394D01*
Y-236701D02*
Y-237701D01*
X82893Y-238201D01*
X83893D01*
X84393Y-237701D01*
Y-236701D01*
X83893Y-236202D01*
X83393D01*
Y-238201D01*
X82394Y-235202D02*
Y-234202D01*
Y-234702D01*
X85393D01*
Y-235202D01*
X82394Y-232703D02*
Y-231703D01*
Y-232203D01*
X84393D01*
Y-232703D01*
X81394Y-230204D02*
X84393D01*
Y-228704D01*
X83893Y-228204D01*
X82893D01*
X82394Y-228704D01*
Y-230204D01*
Y-225705D02*
Y-226705D01*
X82893Y-227204D01*
X83893D01*
X84393Y-226705D01*
Y-225705D01*
X83893Y-225205D01*
X83393D01*
Y-227204D01*
X85393Y-221206D02*
X82394D01*
Y-219707D01*
X82893Y-219207D01*
X84893D01*
X85393Y-219707D01*
Y-221206D01*
X82394Y-218207D02*
Y-217208D01*
Y-217708D01*
X84393D01*
Y-218207D01*
Y-215208D02*
Y-214209D01*
X83893Y-213709D01*
X82394D01*
Y-215208D01*
X82893Y-215708D01*
X83393Y-215208D01*
Y-213709D01*
X84393Y-212709D02*
Y-210710D01*
X82394Y-212709D01*
Y-210710D01*
X78874Y-239201D02*
Y-241200D01*
X77375D01*
Y-240200D01*
Y-241200D01*
X75875D01*
Y-236701D02*
Y-237701D01*
X76375Y-238201D01*
X77375D01*
X77874Y-237701D01*
Y-236701D01*
X77375Y-236202D01*
X76875D01*
Y-238201D01*
X75875Y-235202D02*
Y-234202D01*
Y-234702D01*
X78874D01*
Y-235202D01*
X75875Y-232703D02*
Y-231703D01*
Y-232203D01*
X77874D01*
Y-232703D01*
X74875Y-230204D02*
X77874D01*
Y-228704D01*
X77375Y-228204D01*
X76375D01*
X75875Y-228704D01*
Y-230204D01*
Y-225705D02*
Y-226705D01*
X76375Y-227204D01*
X77375D01*
X77874Y-226705D01*
Y-225705D01*
X77375Y-225205D01*
X76875D01*
Y-227204D01*
X75875Y-221206D02*
X78874D01*
X75875Y-219207D01*
X78874D01*
X77874Y-218207D02*
X76375D01*
X75875Y-217708D01*
Y-216208D01*
X77874D01*
X75875Y-215208D02*
X77874D01*
Y-213709D01*
X77375Y-213209D01*
X75875D01*
Y-210710D02*
Y-211709D01*
X76375Y-212209D01*
X77375D01*
X77874Y-211709D01*
Y-210710D01*
X77375Y-210210D01*
X76875D01*
Y-212209D01*
X75875Y-209210D02*
Y-207711D01*
X76375Y-207211D01*
X76875Y-207711D01*
Y-208711D01*
X77375Y-209210D01*
X77874Y-208711D01*
Y-207211D01*
X71856Y-239201D02*
X72356Y-239701D01*
Y-240700D01*
X71856Y-241200D01*
X69856D01*
X69357Y-240700D01*
Y-239701D01*
X69856Y-239201D01*
X72356Y-238201D02*
X69357D01*
X70856D01*
X71356Y-237701D01*
Y-236701D01*
X70856Y-236202D01*
X69357D01*
X71356Y-234702D02*
Y-233702D01*
X70856Y-233203D01*
X69357D01*
Y-234702D01*
X69856Y-235202D01*
X70356Y-234702D01*
Y-233203D01*
X69357Y-232203D02*
X71356D01*
Y-230703D01*
X70856Y-230204D01*
X69357D01*
Y-229204D02*
X71356D01*
Y-227704D01*
X70856Y-227204D01*
X69357D01*
Y-224705D02*
Y-225705D01*
X69856Y-226205D01*
X70856D01*
X71356Y-225705D01*
Y-224705D01*
X70856Y-224205D01*
X70356D01*
Y-226205D01*
X69357Y-223206D02*
Y-222206D01*
Y-222706D01*
X72356D01*
Y-223206D01*
X63838Y-241200D02*
X66837D01*
Y-239701D01*
X66337Y-239201D01*
X65337D01*
X64837Y-239701D01*
Y-241200D01*
Y-240200D02*
X63838Y-239201D01*
Y-237701D02*
Y-236701D01*
X64337Y-236202D01*
X65337D01*
X65837Y-236701D01*
Y-237701D01*
X65337Y-238201D01*
X64337D01*
X63838Y-237701D01*
X66837Y-235202D02*
X63838D01*
Y-233702D01*
X64337Y-233203D01*
X64837D01*
X65337D01*
X65837Y-233702D01*
Y-235202D01*
X63838Y-230703D02*
Y-231703D01*
X64337Y-232203D01*
X65337D01*
X65837Y-231703D01*
Y-230703D01*
X65337Y-230204D01*
X64837D01*
Y-232203D01*
X65837Y-229204D02*
X63838D01*
X64837D01*
X65337Y-228704D01*
X65837Y-228204D01*
Y-227704D01*
X66337Y-225705D02*
X65837D01*
Y-226205D01*
Y-225205D01*
Y-225705D01*
X64337D01*
X63838Y-225205D01*
Y-223706D02*
Y-222206D01*
X64337Y-221706D01*
X64837Y-222206D01*
Y-223206D01*
X65337Y-223706D01*
X65837Y-223206D01*
Y-221706D01*
X63838Y-220207D02*
Y-219207D01*
X64337Y-218707D01*
X65337D01*
X65837Y-219207D01*
Y-220207D01*
X65337Y-220707D01*
X64337D01*
X63838Y-220207D01*
Y-217708D02*
X65837D01*
Y-216208D01*
X65337Y-215708D01*
X63838D01*
X55299Y-241200D02*
X55799Y-240700D01*
Y-239701D01*
X55299Y-239201D01*
X54799D01*
X54299Y-239701D01*
Y-240200D01*
Y-239701D01*
X53800Y-239201D01*
X53300D01*
X52800Y-239701D01*
Y-240700D01*
X53300Y-241200D01*
X52800Y-238201D02*
X54799Y-236202D01*
X55799Y-235202D02*
Y-233203D01*
X55299D01*
X53300Y-235202D01*
X52800D01*
Y-232203D02*
X54799Y-230204D01*
X52800Y-227204D02*
Y-229204D01*
X54799Y-227204D01*
X55299D01*
X55799Y-227704D01*
Y-228704D01*
X55299Y-229204D01*
Y-226205D02*
X55799Y-225705D01*
Y-224705D01*
X55299Y-224205D01*
X53300D01*
X52800Y-224705D01*
Y-225705D01*
X53300Y-226205D01*
X55299D01*
X52800Y-221206D02*
Y-223206D01*
X54799Y-221206D01*
X55299D01*
X55799Y-221706D01*
Y-222706D01*
X55299Y-223206D01*
Y-220207D02*
X55799Y-219707D01*
Y-218707D01*
X55299Y-218207D01*
X54799D01*
X54299Y-218707D01*
Y-219207D01*
Y-218707D01*
X53800Y-218207D01*
X53300D01*
X52800Y-218707D01*
Y-219707D01*
X53300Y-220207D01*
X91273Y-76046D02*
Y-57148D01*
X78281Y-76046D02*
Y-57148D01*
X91273D01*
X93241D01*
Y-76046D02*
Y-57148D01*
X91273Y-76046D02*
X93241D01*
X78281D02*
X91273D01*
D17*
X13851Y-111408D02*
X16654D01*
X13851Y-108058D02*
X16654D01*
X13862Y-209833D02*
X16665D01*
X13862Y-206483D02*
X16665D01*
X13869Y-160621D02*
X16672D01*
X13869Y-157270D02*
X16672D01*
D18*
X102496Y-128492D02*
G03*
X113323Y-139319I10827J0D01*
G01*
D02*
G03*
X124150Y-128492I0J10827D01*
G01*
X113323Y-92075D02*
G03*
X102496Y-102902I0J-10827D01*
G01*
X124150D02*
G03*
X113323Y-92075I-10827J0D01*
G01*
X23472Y-111727D02*
X32134D01*
X23472Y-107790D02*
X32134D01*
Y-111727D02*
Y-107790D01*
X23472Y-111727D02*
Y-107790D01*
X24555Y-160949D02*
X33217D01*
X24555Y-157012D02*
X33217D01*
Y-160949D02*
Y-157012D01*
X24555Y-160949D02*
Y-157012D01*
Y-210152D02*
X33217D01*
X24555Y-206215D02*
X33217D01*
Y-210152D02*
Y-206215D01*
X24555Y-210152D02*
Y-206215D01*
X52445Y-18783D02*
X61201D01*
X52445Y-36381D02*
Y-18783D01*
Y-36381D02*
X61201D01*
Y-18783D01*
X102496Y-128492D02*
Y-102902D01*
X124150Y-128492D02*
Y-102902D01*
X151079Y-25642D02*
X160921D01*
Y-43358D02*
Y-25642D01*
X151079Y-43358D02*
X160921D01*
X151079D02*
Y-25642D01*
Y-50642D02*
X160921D01*
Y-68358D02*
Y-50642D01*
X151079Y-68358D02*
X160921D01*
X151079D02*
Y-50642D01*
X105579Y-242858D02*
X115421D01*
Y-225142D01*
X105579D02*
X115421D01*
X105579Y-242858D02*
Y-225142D01*
X92079Y-242858D02*
X101921D01*
Y-225142D01*
X92079D02*
X101921D01*
X92079Y-242858D02*
Y-225142D01*
X78579Y-242858D02*
X88421D01*
Y-225142D01*
X78579D02*
X88421D01*
X78579Y-242858D02*
Y-225142D01*
X34295Y-205780D02*
Y-3221D01*
Y-205780D02*
X148508D01*
Y-3221D01*
X34295D02*
X148508D01*
X55427Y-126014D02*
Y-78180D01*
X101214Y-126014D02*
Y-78180D01*
X55427Y-126014D02*
X101214D01*
X55427Y-78180D02*
X101214D01*
X48854Y-88528D02*
Y-79866D01*
X52791Y-88528D02*
Y-79866D01*
X48854D02*
X52791D01*
X48854Y-88528D02*
X52791D01*
D19*
X114496Y-66086D02*
X121622D01*
X114496Y-79275D02*
X121622D01*
X114496D02*
Y-66086D01*
X121622Y-79275D02*
Y-66086D01*
X125819Y-101583D02*
X132945D01*
X125819Y-114772D02*
X132945D01*
X125819D02*
Y-101583D01*
X132945Y-114772D02*
Y-101583D01*
X125701Y-129811D02*
X132827D01*
X125701Y-116622D02*
X132827D01*
Y-129811D02*
Y-116622D01*
X125701Y-129811D02*
Y-116622D01*
X64701Y-36311D02*
X71827D01*
X64701Y-23122D02*
X71827D01*
Y-36311D02*
Y-23122D01*
X64701Y-36311D02*
Y-23122D01*
D52*
X131000Y-248500D02*
Y-191378D01*
X50000D02*
X131000D01*
X50000Y-248500D02*
Y-191378D01*
Y-248500D02*
X131000D01*
D53*
X81761Y-58597D02*
X89761D01*
D54*
X115200Y-73100D02*
Y-72300D01*
X120800Y-73100D02*
Y-72300D01*
X126523Y-108597D02*
Y-107797D01*
X132123Y-108597D02*
Y-107797D01*
Y-123597D02*
Y-122797D01*
X126523Y-123597D02*
Y-122797D01*
X71123Y-30097D02*
Y-29297D01*
X65523Y-30097D02*
Y-29297D01*
M02*
