G04*
G04 #@! TF.GenerationSoftware,Altium Limited,Altium Designer,21.0.9 (235)*
G04*
G04 Layer_Color=16711935*
%FSLAX25Y25*%
%MOIN*%
G70*
G04*
G04 #@! TF.SameCoordinates,A9A079C1-7CC1-46CE-92A7-F05A66FF1BB4*
G04*
G04*
G04 #@! TF.FilePolarity,Positive*
G04*
G01*
G75*
%ADD10C,0.00787*%
%ADD12C,0.00500*%
%ADD13C,0.00050*%
%ADD14C,0.00000*%
%ADD15C,0.00394*%
%ADD16C,0.00800*%
%ADD17C,0.00400*%
%ADD18C,0.00197*%
%ADD19C,0.00201*%
%ADD55C,0.01968*%
%ADD56C,0.05000*%
G36*
X97966Y-60062D02*
X93635D01*
Y-58132D01*
X97966D01*
Y-60062D01*
D02*
G37*
G36*
X77887D02*
X73556D01*
Y-58132D01*
X77887D01*
Y-60062D01*
D02*
G37*
G36*
X97966Y-65062D02*
X93635D01*
Y-63132D01*
X97966D01*
Y-65062D01*
D02*
G37*
G36*
X77887D02*
X73556D01*
Y-63132D01*
X77887D01*
Y-65062D01*
D02*
G37*
G36*
X97966Y-70062D02*
X93635D01*
Y-68132D01*
X97966D01*
Y-70062D01*
D02*
G37*
G36*
X77887D02*
X73556D01*
Y-68132D01*
X77887D01*
Y-70062D01*
D02*
G37*
G36*
X97966Y-75062D02*
X93635D01*
Y-73132D01*
X97966D01*
Y-75062D01*
D02*
G37*
G36*
X77887D02*
X73556D01*
Y-73132D01*
X77887D01*
Y-75062D01*
D02*
G37*
G36*
X18522Y-111612D02*
X16555D01*
Y-107868D01*
X18522D01*
Y-111612D01*
D02*
G37*
G36*
X13922Y-111613D02*
X11945D01*
Y-107868D01*
X13922D01*
Y-111613D01*
D02*
G37*
G36*
X18539Y-160825D02*
X16573D01*
Y-157081D01*
X18539D01*
Y-160825D01*
D02*
G37*
G36*
X13939Y-160826D02*
X11963D01*
Y-157081D01*
X13939D01*
Y-160826D01*
D02*
G37*
G36*
X18532Y-210037D02*
X16566D01*
Y-206294D01*
X18532D01*
Y-210037D01*
D02*
G37*
G36*
X13932Y-210038D02*
X11956D01*
Y-206294D01*
X13932D01*
Y-210038D01*
D02*
G37*
D10*
X33429Y-43417D02*
G03*
X33429Y-43417I-394J0D01*
G01*
X104383Y-79735D02*
G03*
X104383Y-79735I-394J0D01*
G01*
D12*
X103480Y-128492D02*
G03*
X113323Y-138335I9843J0D01*
G01*
D02*
G03*
X123165Y-128492I0J9843D01*
G01*
X113323Y-93059D02*
G03*
X103480Y-102902I0J-9843D01*
G01*
X123165D02*
G03*
X113323Y-93059I-9843J0D01*
G01*
X53476Y-21165D02*
X60169D01*
X53476Y-33999D02*
Y-21165D01*
Y-33999D02*
X60169D01*
Y-21165D01*
X103480Y-128492D02*
Y-102902D01*
X123165Y-128492D02*
Y-102902D01*
X35280Y-4205D02*
X78858D01*
X105280D01*
X147524D01*
X35280Y-204795D02*
Y-4205D01*
X147524Y-204795D02*
Y-4205D01*
X35280Y-204795D02*
X56421D01*
X126067D01*
X147524D01*
X56421D02*
Y-179244D01*
Y-129520D01*
X126067D01*
Y-179244D02*
Y-129520D01*
Y-204795D02*
Y-179244D01*
X56421D02*
X126067D01*
X105280Y-19520D02*
Y-4205D01*
X78858Y-19520D02*
X105280D01*
X78858D02*
Y-4205D01*
X63360Y-125030D02*
Y-79164D01*
X93281Y-125030D02*
Y-79164D01*
X63360Y-125030D02*
X93281D01*
X63360Y-79164D02*
X93281D01*
D13*
X162205Y-244094D02*
G03*
X162205Y-244094I-6693J0D01*
G01*
X18504Y-11811D02*
G03*
X18504Y-11811I-6693J0D01*
G01*
X21176Y-109759D02*
G03*
X21176Y-109759I-5906J0D01*
G01*
X162205Y-11811D02*
G03*
X162205Y-11811I-6693J0D01*
G01*
X18504Y-244094D02*
G03*
X18504Y-244094I-6693J0D01*
G01*
X21176Y-158971D02*
G03*
X21176Y-158971I-5906J0D01*
G01*
Y-208184D02*
G03*
X21176Y-208184I-5906J0D01*
G01*
X0Y-255906D02*
X167323D01*
X0Y0D02*
X167323D01*
X166323Y-255906D02*
Y0D01*
X0Y-255906D02*
Y0D01*
Y-255906D02*
Y-98425D01*
D14*
X115200Y-74400D02*
X120800D01*
Y-76900D02*
Y-74400D01*
X115200Y-76900D02*
Y-74400D01*
Y-71000D02*
X120800D01*
X115200D02*
Y-68500D01*
X120800Y-71000D02*
Y-68500D01*
X115200Y-74400D02*
Y-71000D01*
Y-68500D02*
X120800D01*
Y-74400D02*
Y-71000D01*
X115200Y-76900D02*
X120800D01*
X126523Y-109897D02*
X132123D01*
Y-112397D02*
Y-109897D01*
X126523Y-112397D02*
Y-109897D01*
Y-106497D02*
X132123D01*
X126523D02*
Y-103997D01*
X132123Y-106497D02*
Y-103997D01*
X126523Y-109897D02*
Y-106497D01*
Y-103997D02*
X132123D01*
Y-109897D02*
Y-106497D01*
X126523Y-112397D02*
X132123D01*
X126523Y-121497D02*
X132123D01*
X126523D02*
Y-118997D01*
X132123Y-121497D02*
Y-118997D01*
X126523Y-124897D02*
X132123D01*
Y-127397D02*
Y-124897D01*
X126523Y-127397D02*
Y-124897D01*
X132123D02*
Y-121497D01*
X126523Y-127397D02*
X132123D01*
X126523Y-124897D02*
Y-121497D01*
Y-118997D02*
X132123D01*
X65523Y-27997D02*
X71123D01*
X65523D02*
Y-25497D01*
X71123Y-27997D02*
Y-25497D01*
X65523Y-31397D02*
X71123D01*
Y-33897D02*
Y-31397D01*
X65523Y-33897D02*
Y-31397D01*
X71123D02*
Y-27997D01*
X65523Y-33897D02*
X71123D01*
X65523Y-31397D02*
Y-27997D01*
Y-25497D02*
X71123D01*
D15*
X24654Y-111333D02*
X30953D01*
X24654Y-108184D02*
X30953D01*
Y-111333D02*
Y-108184D01*
X24654Y-111333D02*
Y-108184D01*
X25736Y-160555D02*
X32035D01*
X25736Y-157405D02*
X32035D01*
Y-160555D02*
Y-157405D01*
X25736Y-160555D02*
Y-157405D01*
Y-209759D02*
X32035D01*
X25736Y-206609D02*
X32035D01*
Y-209759D02*
Y-206609D01*
X25736Y-209759D02*
Y-206609D01*
X49248Y-87347D02*
Y-81047D01*
X52398Y-87347D02*
Y-81047D01*
X49248D02*
X52398D01*
X49248Y-87347D02*
X52398D01*
X27803Y-111333D02*
Y-108184D01*
X26228Y-109759D02*
X29378D01*
X28886Y-160555D02*
Y-157405D01*
X27311Y-158980D02*
X30461D01*
X28886Y-209759D02*
Y-206609D01*
X27311Y-208184D02*
X30461D01*
X49248Y-84197D02*
X52398D01*
X50823Y-85772D02*
Y-82622D01*
D16*
X91273Y-76046D02*
Y-57148D01*
X78281Y-76046D02*
Y-57148D01*
X91273D01*
X93241D01*
Y-76046D02*
Y-57148D01*
X91273Y-76046D02*
X93241D01*
X78281D02*
X91273D01*
D17*
X13851Y-111408D02*
X16654D01*
X13851Y-108058D02*
X16654D01*
X13862Y-209833D02*
X16665D01*
X13862Y-206483D02*
X16665D01*
X13869Y-160621D02*
X16672D01*
X13869Y-157270D02*
X16672D01*
D18*
X102496Y-128492D02*
G03*
X113323Y-139319I10827J0D01*
G01*
D02*
G03*
X124150Y-128492I0J10827D01*
G01*
X113323Y-92075D02*
G03*
X102496Y-102902I0J-10827D01*
G01*
X124150D02*
G03*
X113323Y-92075I-10827J0D01*
G01*
X23472Y-111727D02*
X32134D01*
X23472Y-107790D02*
X32134D01*
Y-111727D02*
Y-107790D01*
X23472Y-111727D02*
Y-107790D01*
X24555Y-160949D02*
X33217D01*
X24555Y-157012D02*
X33217D01*
Y-160949D02*
Y-157012D01*
X24555Y-160949D02*
Y-157012D01*
Y-210152D02*
X33217D01*
X24555Y-206215D02*
X33217D01*
Y-210152D02*
Y-206215D01*
X24555Y-210152D02*
Y-206215D01*
X52445Y-18783D02*
X61201D01*
X52445Y-36381D02*
Y-18783D01*
Y-36381D02*
X61201D01*
Y-18783D01*
X102496Y-128492D02*
Y-102902D01*
X124150Y-128492D02*
Y-102902D01*
X151079Y-25642D02*
X160921D01*
Y-43358D02*
Y-25642D01*
X151079Y-43358D02*
X160921D01*
X151079D02*
Y-25642D01*
Y-50642D02*
X160921D01*
Y-68358D02*
Y-50642D01*
X151079Y-68358D02*
X160921D01*
X151079D02*
Y-50642D01*
X105579Y-242858D02*
X115421D01*
Y-225142D01*
X105579D02*
X115421D01*
X105579Y-242858D02*
Y-225142D01*
X92079Y-242858D02*
X101921D01*
Y-225142D01*
X92079D02*
X101921D01*
X92079Y-242858D02*
Y-225142D01*
X78579Y-242858D02*
X88421D01*
Y-225142D01*
X78579D02*
X88421D01*
X78579Y-242858D02*
Y-225142D01*
X34295Y-205780D02*
Y-3221D01*
Y-205780D02*
X148508D01*
Y-3221D01*
X34295D02*
X148508D01*
X55427Y-126014D02*
Y-78180D01*
X101214Y-126014D02*
Y-78180D01*
X55427Y-126014D02*
X101214D01*
X55427Y-78180D02*
X101214D01*
X48854Y-88528D02*
Y-79866D01*
X52791Y-88528D02*
Y-79866D01*
X48854D02*
X52791D01*
X48854Y-88528D02*
X52791D01*
D19*
X114496Y-66086D02*
X121622D01*
X114496Y-79275D02*
X121622D01*
X114496D02*
Y-66086D01*
X121622Y-79275D02*
Y-66086D01*
X125819Y-101583D02*
X132945D01*
X125819Y-114772D02*
X132945D01*
X125819D02*
Y-101583D01*
X132945Y-114772D02*
Y-101583D01*
X125701Y-129811D02*
X132827D01*
X125701Y-116622D02*
X132827D01*
Y-129811D02*
Y-116622D01*
X125701Y-129811D02*
Y-116622D01*
X64701Y-36311D02*
X71827D01*
X64701Y-23122D02*
X71827D01*
Y-36311D02*
Y-23122D01*
X64701Y-36311D02*
Y-23122D01*
D55*
X18504Y-244094D02*
G03*
X18504Y-244094I-6693J0D01*
G01*
X162205Y-11811D02*
G03*
X162205Y-11811I-6693J0D01*
G01*
Y-244094D02*
G03*
X162205Y-244094I-6693J0D01*
G01*
X18504Y-11811D02*
G03*
X18504Y-11811I-6693J0D01*
G01*
D56*
X0Y-0D02*
X167323Y0D01*
X-0Y-0D02*
X0Y-255906D01*
X167323Y0D02*
X167323Y-255906D01*
X0Y-255906D02*
X167323Y-255906D01*
M02*
