G04*
G04 #@! TF.GenerationSoftware,Altium Limited,Altium Designer,21.0.9 (235)*
G04*
G04 Layer_Physical_Order=1*
G04 Layer_Color=255*
%FSLAX25Y25*%
%MOIN*%
G70*
G04*
G04 #@! TF.SameCoordinates,A9A079C1-7CC1-46CE-92A7-F05A66FF1BB4*
G04*
G04*
G04 #@! TF.FilePolarity,Positive*
G04*
G01*
G75*
%ADD10C,0.00787*%
%ADD12C,0.00500*%
%ADD13C,0.00050*%
%ADD14C,0.00000*%
%ADD15C,0.00394*%
%ADD16C,0.00800*%
%ADD17C,0.00400*%
%ADD18C,0.00197*%
%ADD19C,0.00201*%
%ADD20R,0.02362X0.03150*%
%ADD21R,0.07992X0.14961*%
%ADD22R,0.04331X0.03937*%
%ADD29C,0.00700*%
%ADD30C,0.02362*%
%ADD31C,0.07874*%
%ADD32C,0.03965*%
%ADD33R,0.07874X0.07874*%
%ADD34C,0.01800*%
%ADD35C,0.02362*%
G36*
X152709Y-3816D02*
X152257Y-3953D01*
X150786Y-4739D01*
X149497Y-5797D01*
X148440Y-7086D01*
X147654Y-8556D01*
X147170Y-10152D01*
X147006Y-11811D01*
X147170Y-13470D01*
X147654Y-15066D01*
X148440Y-16536D01*
X149497Y-17825D01*
X150786Y-18883D01*
X152257Y-19669D01*
X153852Y-20153D01*
X155512Y-20317D01*
X157171Y-20153D01*
X158767Y-19669D01*
X160237Y-18883D01*
X161526Y-17825D01*
X162584Y-16536D01*
X163370Y-15066D01*
X163507Y-14614D01*
X164007Y-14688D01*
X164007Y-241218D01*
X163507Y-241292D01*
X163370Y-240840D01*
X162584Y-239369D01*
X161526Y-238080D01*
X160237Y-237022D01*
X158767Y-236236D01*
X157171Y-235752D01*
X155512Y-235589D01*
X153852Y-235752D01*
X152257Y-236236D01*
X150786Y-237022D01*
X149497Y-238080D01*
X148440Y-239369D01*
X147654Y-240840D01*
X147170Y-242435D01*
X147006Y-244094D01*
X147170Y-245754D01*
X147654Y-247349D01*
X148440Y-248820D01*
X149497Y-250109D01*
X150786Y-251167D01*
X152257Y-251953D01*
X152709Y-252090D01*
X152635Y-252590D01*
X14688Y-252590D01*
X14614Y-252090D01*
X15066Y-251953D01*
X16536Y-251167D01*
X17825Y-250109D01*
X18883Y-248820D01*
X19669Y-247349D01*
X20153Y-245754D01*
X20317Y-244094D01*
X20153Y-242435D01*
X19669Y-240840D01*
X18883Y-239369D01*
X17825Y-238080D01*
X16536Y-237022D01*
X15066Y-236236D01*
X13470Y-235752D01*
X11811Y-235589D01*
X10152Y-235752D01*
X8556Y-236236D01*
X7086Y-237022D01*
X5797Y-238080D01*
X4739Y-239369D01*
X3953Y-240840D01*
X3816Y-241292D01*
X3316Y-241218D01*
X3316Y-14688D01*
X3816Y-14614D01*
X3953Y-15066D01*
X4739Y-16536D01*
X5797Y-17825D01*
X7086Y-18883D01*
X8556Y-19669D01*
X10152Y-20153D01*
X11811Y-20317D01*
X13470Y-20153D01*
X15066Y-19669D01*
X16536Y-18883D01*
X17825Y-17825D01*
X18883Y-16536D01*
X19669Y-15066D01*
X20153Y-13470D01*
X20317Y-11811D01*
X20153Y-10152D01*
X19669Y-8556D01*
X18883Y-7086D01*
X17825Y-5797D01*
X16536Y-4739D01*
X15066Y-3953D01*
X14614Y-3816D01*
X14688Y-3316D01*
X152635Y-3316D01*
X152709Y-3816D01*
D02*
G37*
%LPC*%
G36*
X129919Y-7559D02*
X129136D01*
X128413Y-7859D01*
X127859Y-8413D01*
X127559Y-9136D01*
Y-9919D01*
X127859Y-10643D01*
X128413Y-11197D01*
X129136Y-11496D01*
X129856D01*
X130675Y-12315D01*
X130391Y-12739D01*
X129892Y-12531D01*
X129108D01*
X128385Y-12831D01*
X127831Y-13385D01*
X127532Y-14108D01*
Y-14892D01*
X127831Y-15615D01*
X128385Y-16169D01*
X129108Y-16468D01*
X129829D01*
X147340Y-33980D01*
Y-57500D01*
X147429Y-57944D01*
X147680Y-58320D01*
X149680Y-60320D01*
X150056Y-60571D01*
X150500Y-60660D01*
X150500Y-60660D01*
X151216D01*
Y-67768D01*
X160784D01*
Y-51232D01*
X151216D01*
Y-57869D01*
X150716Y-58077D01*
X149660Y-57020D01*
Y-33500D01*
X149660Y-33500D01*
X149571Y-33056D01*
X149320Y-32680D01*
X131468Y-14829D01*
Y-14108D01*
X131262Y-13609D01*
X131685Y-13325D01*
X149680Y-31320D01*
X150056Y-31571D01*
X150500Y-31660D01*
X151216D01*
Y-42768D01*
X160784D01*
Y-26232D01*
X151216D01*
Y-28869D01*
X150716Y-29076D01*
X131496Y-9856D01*
Y-9136D01*
X131197Y-8413D01*
X130643Y-7859D01*
X129919Y-7559D01*
D02*
G37*
G36*
X142122Y-38693D02*
X140878D01*
X139676Y-39015D01*
X138599Y-39637D01*
X137720Y-40516D01*
X137098Y-41594D01*
X136776Y-42795D01*
Y-44039D01*
X137098Y-45241D01*
X137720Y-46318D01*
X138599Y-47198D01*
X139676Y-47820D01*
X140530Y-48048D01*
Y-48566D01*
X139594Y-48817D01*
X138469Y-49467D01*
X137549Y-50386D01*
X136899Y-51512D01*
X136563Y-52767D01*
Y-52917D01*
X146437D01*
Y-52767D01*
X146101Y-51512D01*
X145451Y-50386D01*
X144531Y-49467D01*
X143406Y-48817D01*
X142470Y-48566D01*
Y-48048D01*
X143324Y-47820D01*
X144401Y-47198D01*
X145281Y-46318D01*
X145902Y-45241D01*
X146224Y-44039D01*
Y-42795D01*
X145902Y-41594D01*
X145281Y-40516D01*
X144401Y-39637D01*
X143324Y-39015D01*
X142122Y-38693D01*
D02*
G37*
G36*
X146437Y-53917D02*
X136563D01*
Y-54067D01*
X136899Y-55323D01*
X137549Y-56449D01*
X138469Y-57368D01*
X139594Y-58018D01*
X140530Y-58269D01*
Y-58786D01*
X139676Y-59015D01*
X138599Y-59637D01*
X137720Y-60517D01*
X137098Y-61594D01*
X136776Y-62795D01*
Y-64039D01*
X137098Y-65241D01*
X137720Y-66318D01*
X138599Y-67198D01*
X139676Y-67820D01*
X140878Y-68142D01*
X142122D01*
X143324Y-67820D01*
X144401Y-67198D01*
X145281Y-66318D01*
X145902Y-65241D01*
X146224Y-64039D01*
Y-62795D01*
X145902Y-61594D01*
X145281Y-60517D01*
X144401Y-59637D01*
X143324Y-59015D01*
X142470Y-58786D01*
Y-58269D01*
X143406Y-58018D01*
X144531Y-57368D01*
X145451Y-56449D01*
X146101Y-55323D01*
X146437Y-54067D01*
Y-53917D01*
D02*
G37*
G36*
X126500Y-28894D02*
X33000D01*
X32693Y-28955D01*
X32432Y-29129D01*
X32258Y-29390D01*
X32197Y-29697D01*
Y-88197D01*
X32258Y-88504D01*
X32432Y-88765D01*
X32693Y-88939D01*
X32993Y-88998D01*
Y-104880D01*
X30476Y-107396D01*
X28984D01*
Y-109565D01*
X28946Y-109759D01*
X28984Y-109952D01*
Y-112121D01*
X32921D01*
Y-110628D01*
X36419Y-107131D01*
X36854Y-106479D01*
X36952Y-105989D01*
X37479Y-105902D01*
X37720Y-106318D01*
X38599Y-107198D01*
X39676Y-107820D01*
X40878Y-108142D01*
X42122D01*
X43324Y-107820D01*
X44401Y-107198D01*
X45281Y-106318D01*
X45902Y-105241D01*
X46224Y-104039D01*
Y-102795D01*
X45902Y-101594D01*
X45281Y-100516D01*
X44401Y-99637D01*
X43324Y-99015D01*
X42122Y-98693D01*
X40878D01*
X39676Y-99015D01*
X38599Y-99637D01*
X37720Y-100516D01*
X37507Y-100884D01*
X37007Y-100751D01*
Y-96084D01*
X37507Y-95950D01*
X37720Y-96318D01*
X38599Y-97198D01*
X39676Y-97820D01*
X40878Y-98142D01*
X42122D01*
X43324Y-97820D01*
X44401Y-97198D01*
X45281Y-96318D01*
X45902Y-95241D01*
X46224Y-94039D01*
Y-92795D01*
X45902Y-91594D01*
X45281Y-90517D01*
X44401Y-89637D01*
X44163Y-89500D01*
X44297Y-89000D01*
X57500D01*
X57807Y-88939D01*
X58068Y-88765D01*
X58242Y-88504D01*
X58303Y-88197D01*
Y-56500D01*
X122520D01*
Y-66697D01*
Y-71697D01*
X122581Y-72004D01*
X122755Y-72264D01*
X123016Y-72439D01*
X123323Y-72500D01*
X126500D01*
X126807Y-72439D01*
X127068Y-72264D01*
X127242Y-72004D01*
X127303Y-71697D01*
Y-29697D01*
X127242Y-29390D01*
X127068Y-29129D01*
X126807Y-28955D01*
X126500Y-28894D01*
D02*
G37*
G36*
X142122Y-68693D02*
X140878D01*
X139676Y-69015D01*
X138599Y-69637D01*
X137720Y-70517D01*
X137098Y-71594D01*
X136776Y-72795D01*
Y-74039D01*
X137098Y-75241D01*
X137720Y-76318D01*
X138599Y-77198D01*
X139676Y-77820D01*
X140878Y-78142D01*
X142122D01*
X143324Y-77820D01*
X144401Y-77198D01*
X145281Y-76318D01*
X145902Y-75241D01*
X146224Y-74039D01*
Y-72795D01*
X145902Y-71594D01*
X145281Y-70517D01*
X144401Y-69637D01*
X143324Y-69015D01*
X142122Y-68693D01*
D02*
G37*
G36*
Y-78693D02*
X140878D01*
X139676Y-79015D01*
X138599Y-79637D01*
X137720Y-80516D01*
X137098Y-81594D01*
X136776Y-82795D01*
Y-84039D01*
X137098Y-85241D01*
X137720Y-86318D01*
X138599Y-87198D01*
X139676Y-87820D01*
X140878Y-88142D01*
X142122D01*
X143324Y-87820D01*
X144401Y-87198D01*
X145281Y-86318D01*
X145902Y-85241D01*
X146224Y-84039D01*
Y-82795D01*
X145902Y-81594D01*
X145281Y-80516D01*
X144401Y-79637D01*
X143324Y-79015D01*
X142122Y-78693D01*
D02*
G37*
G36*
Y-88693D02*
X140878D01*
X139676Y-89015D01*
X138599Y-89637D01*
X137720Y-90517D01*
X137098Y-91594D01*
X136776Y-92795D01*
Y-94039D01*
X137098Y-95241D01*
X137720Y-96318D01*
X138599Y-97198D01*
X139676Y-97820D01*
X140878Y-98142D01*
X142122D01*
X143324Y-97820D01*
X144401Y-97198D01*
X145281Y-96318D01*
X145902Y-95241D01*
X146224Y-94039D01*
Y-92795D01*
X145902Y-91594D01*
X145281Y-90517D01*
X144401Y-89637D01*
X143324Y-89015D01*
X142122Y-88693D01*
D02*
G37*
G36*
X53311Y-95131D02*
X52528D01*
X51805Y-95431D01*
X51251Y-95985D01*
X50951Y-96709D01*
Y-97045D01*
X49003Y-98994D01*
X48751Y-99370D01*
X48663Y-99814D01*
Y-124420D01*
X43796Y-129287D01*
X43324Y-129015D01*
X42122Y-128693D01*
X40878D01*
X39676Y-129015D01*
X38599Y-129637D01*
X37720Y-130517D01*
X37098Y-131594D01*
X36776Y-132795D01*
Y-134039D01*
X37098Y-135241D01*
X37720Y-136318D01*
X38599Y-137198D01*
X39676Y-137820D01*
X40878Y-138142D01*
X42122D01*
X43324Y-137820D01*
X44401Y-137198D01*
X45281Y-136318D01*
X45902Y-135241D01*
X46224Y-134039D01*
Y-132795D01*
X45902Y-131594D01*
X45488Y-130876D01*
X50643Y-125720D01*
X50894Y-125344D01*
X50982Y-124900D01*
Y-100294D01*
X52302Y-98975D01*
X52528Y-99068D01*
X53311D01*
X54035Y-98769D01*
X54589Y-98215D01*
X54888Y-97492D01*
Y-96709D01*
X54589Y-95985D01*
X54035Y-95431D01*
X53311Y-95131D01*
D02*
G37*
G36*
X142122Y-98693D02*
X140878D01*
X139676Y-99015D01*
X138599Y-99637D01*
X137720Y-100516D01*
X137098Y-101594D01*
X136776Y-102795D01*
Y-104039D01*
X137098Y-105241D01*
X137720Y-106318D01*
X138599Y-107198D01*
X139676Y-107820D01*
X140878Y-108142D01*
X142122D01*
X143324Y-107820D01*
X144401Y-107198D01*
X145281Y-106318D01*
X145902Y-105241D01*
X146224Y-104039D01*
Y-102795D01*
X145902Y-101594D01*
X145281Y-100516D01*
X144401Y-99637D01*
X143324Y-99015D01*
X142122Y-98693D01*
D02*
G37*
G36*
X113688Y-103321D02*
X112958D01*
X112254Y-103510D01*
X111622Y-103874D01*
X111107Y-104390D01*
X110742Y-105022D01*
X110553Y-105726D01*
Y-106455D01*
X110742Y-107160D01*
X111107Y-107791D01*
X111622Y-108307D01*
X112254Y-108671D01*
X112958Y-108860D01*
X113688D01*
X114392Y-108671D01*
X115024Y-108307D01*
X115539Y-107791D01*
X115904Y-107160D01*
X116093Y-106455D01*
Y-105726D01*
X115904Y-105022D01*
X115539Y-104390D01*
X115024Y-103874D01*
X114392Y-103510D01*
X113688Y-103321D01*
D02*
G37*
G36*
X15072Y-106790D02*
X12406D01*
Y-107868D01*
X13922D01*
Y-109259D01*
X15072D01*
Y-106790D01*
D02*
G37*
G36*
X11406D02*
X8741D01*
Y-109259D01*
X11406D01*
Y-106790D01*
D02*
G37*
G36*
X21552Y-107003D02*
X15646D01*
Y-112514D01*
X21552D01*
Y-111766D01*
X22685D01*
Y-112121D01*
X26622D01*
Y-109952D01*
X26661Y-109759D01*
X26622Y-109565D01*
Y-107396D01*
X22685D01*
Y-107752D01*
X21552D01*
Y-107003D01*
D02*
G37*
G36*
X15072Y-110259D02*
X13922D01*
Y-111613D01*
X12406D01*
Y-112727D01*
X15072D01*
Y-110259D01*
D02*
G37*
G36*
X11406D02*
X8741D01*
Y-112727D01*
X11406D01*
Y-110259D01*
D02*
G37*
G36*
X142122Y-108693D02*
X140878D01*
X139676Y-109015D01*
X138599Y-109637D01*
X137720Y-110517D01*
X137098Y-111594D01*
X136776Y-112795D01*
Y-114039D01*
X137098Y-115241D01*
X137720Y-116318D01*
X138599Y-117198D01*
X139676Y-117820D01*
X140878Y-118142D01*
X142122D01*
X143324Y-117820D01*
X144401Y-117198D01*
X145281Y-116318D01*
X145902Y-115241D01*
X146224Y-114039D01*
Y-112795D01*
X145902Y-111594D01*
X145281Y-110517D01*
X144401Y-109637D01*
X143324Y-109015D01*
X142122Y-108693D01*
D02*
G37*
G36*
X42122D02*
X40878D01*
X39676Y-109015D01*
X38599Y-109637D01*
X37720Y-110517D01*
X37098Y-111594D01*
X36776Y-112795D01*
Y-114039D01*
X37098Y-115241D01*
X37720Y-116318D01*
X38599Y-117198D01*
X39676Y-117820D01*
X40878Y-118142D01*
X42122D01*
X43324Y-117820D01*
X44401Y-117198D01*
X45281Y-116318D01*
X45902Y-115241D01*
X46224Y-114039D01*
Y-112795D01*
X45902Y-111594D01*
X45281Y-110517D01*
X44401Y-109637D01*
X43324Y-109015D01*
X42122Y-108693D01*
D02*
G37*
G36*
X113688Y-122534D02*
X112958D01*
X112254Y-122722D01*
X111622Y-123087D01*
X111107Y-123602D01*
X110742Y-124234D01*
X110553Y-124938D01*
Y-125668D01*
X110742Y-126372D01*
X111107Y-127004D01*
X111622Y-127520D01*
X112254Y-127884D01*
X112958Y-128073D01*
X113688D01*
X114392Y-127884D01*
X115024Y-127520D01*
X115539Y-127004D01*
X115904Y-126372D01*
X116093Y-125668D01*
Y-124938D01*
X115904Y-124234D01*
X115539Y-123602D01*
X115024Y-123087D01*
X114392Y-122722D01*
X113688Y-122534D01*
D02*
G37*
G36*
X142122Y-118693D02*
X140878D01*
X139676Y-119015D01*
X138599Y-119637D01*
X137720Y-120517D01*
X137098Y-121594D01*
X136776Y-122795D01*
Y-124039D01*
X136849Y-124313D01*
X71147Y-190015D01*
X37853D01*
X34043Y-186204D01*
Y-158980D01*
X34004Y-158786D01*
Y-156618D01*
X30067D01*
Y-158786D01*
X30028Y-158980D01*
Y-187035D01*
X30181Y-187803D01*
X30616Y-188455D01*
X35602Y-193441D01*
X36253Y-193876D01*
X37022Y-194029D01*
X71978D01*
X72746Y-193876D01*
X73398Y-193441D01*
X139259Y-127579D01*
X139676Y-127820D01*
X140878Y-128142D01*
X142122D01*
X143324Y-127820D01*
X144401Y-127198D01*
X145281Y-126318D01*
X145902Y-125241D01*
X146224Y-124039D01*
Y-122795D01*
X145902Y-121594D01*
X145281Y-120517D01*
X144401Y-119637D01*
X143324Y-119015D01*
X142122Y-118693D01*
D02*
G37*
G36*
X42122D02*
X40878D01*
X39676Y-119015D01*
X38599Y-119637D01*
X37720Y-120517D01*
X37098Y-121594D01*
X36776Y-122795D01*
Y-124039D01*
X37098Y-125241D01*
X37720Y-126318D01*
X38599Y-127198D01*
X39676Y-127820D01*
X40878Y-128142D01*
X42122D01*
X43324Y-127820D01*
X44401Y-127198D01*
X45281Y-126318D01*
X45902Y-125241D01*
X46224Y-124039D01*
Y-122795D01*
X45902Y-121594D01*
X45281Y-120517D01*
X44401Y-119637D01*
X43324Y-119015D01*
X42122Y-118693D01*
D02*
G37*
G36*
X142122Y-128693D02*
X140878D01*
X139676Y-129015D01*
X138599Y-129637D01*
X137720Y-130517D01*
X137098Y-131594D01*
X136776Y-132795D01*
Y-134039D01*
X137043Y-135036D01*
X65902Y-206177D01*
X34004D01*
Y-205822D01*
X30067D01*
Y-207990D01*
X30028Y-208184D01*
X30067Y-208378D01*
Y-210546D01*
X34004D01*
Y-210191D01*
X66733D01*
X67502Y-210038D01*
X68153Y-209603D01*
X137010Y-140746D01*
X137410Y-141053D01*
X137098Y-141594D01*
X136776Y-142795D01*
Y-144039D01*
X137098Y-145241D01*
X137720Y-146318D01*
X138599Y-147198D01*
X139676Y-147820D01*
X140878Y-148142D01*
X142122D01*
X143324Y-147820D01*
X144401Y-147198D01*
X145281Y-146318D01*
X145902Y-145241D01*
X146224Y-144039D01*
Y-142795D01*
X145902Y-141594D01*
X145281Y-140516D01*
X144401Y-139637D01*
X143324Y-139015D01*
X142122Y-138693D01*
X140878D01*
X139676Y-139015D01*
X139136Y-139327D01*
X138829Y-138927D01*
X139881Y-137875D01*
X140878Y-138142D01*
X142122D01*
X143324Y-137820D01*
X144401Y-137198D01*
X145281Y-136318D01*
X145902Y-135241D01*
X146224Y-134039D01*
Y-132795D01*
X145902Y-131594D01*
X145281Y-130517D01*
X144401Y-129637D01*
X143324Y-129015D01*
X142122Y-128693D01*
D02*
G37*
G36*
X42122Y-138693D02*
X40878D01*
X39676Y-139015D01*
X38599Y-139637D01*
X37720Y-140516D01*
X37098Y-141594D01*
X36776Y-142795D01*
Y-144039D01*
X37098Y-145241D01*
X37720Y-146318D01*
X38599Y-147198D01*
X39676Y-147820D01*
X40878Y-148142D01*
X42122D01*
X43324Y-147820D01*
X44401Y-147198D01*
X45281Y-146318D01*
X45902Y-145241D01*
X46224Y-144039D01*
Y-142795D01*
X45902Y-141594D01*
X45281Y-140516D01*
X44401Y-139637D01*
X43324Y-139015D01*
X42122Y-138693D01*
D02*
G37*
G36*
X142122Y-148693D02*
X140878D01*
X139676Y-149015D01*
X138599Y-149637D01*
X137720Y-150516D01*
X137098Y-151594D01*
X136776Y-152795D01*
Y-154039D01*
X137098Y-155241D01*
X137720Y-156318D01*
X138599Y-157198D01*
X139676Y-157820D01*
X140878Y-158142D01*
X142122D01*
X143324Y-157820D01*
X144401Y-157198D01*
X145281Y-156318D01*
X145902Y-155241D01*
X146224Y-154039D01*
Y-152795D01*
X145902Y-151594D01*
X145281Y-150516D01*
X144401Y-149637D01*
X143324Y-149015D01*
X142122Y-148693D01*
D02*
G37*
G36*
X42122D02*
X40878D01*
X39676Y-149015D01*
X38599Y-149637D01*
X37720Y-150516D01*
X37098Y-151594D01*
X36776Y-152795D01*
Y-154039D01*
X37098Y-155241D01*
X37720Y-156318D01*
X38599Y-157198D01*
X39676Y-157820D01*
X40878Y-158142D01*
X42122D01*
X43324Y-157820D01*
X44401Y-157198D01*
X45281Y-156318D01*
X45902Y-155241D01*
X46224Y-154039D01*
Y-152795D01*
X45902Y-151594D01*
X45281Y-150516D01*
X44401Y-149637D01*
X43324Y-149015D01*
X42122Y-148693D01*
D02*
G37*
G36*
X15089Y-156003D02*
X12424D01*
Y-157081D01*
X13939D01*
Y-158471D01*
X15089D01*
Y-156003D01*
D02*
G37*
G36*
X11424D02*
X8759D01*
Y-158471D01*
X11424D01*
Y-156003D01*
D02*
G37*
G36*
X21570Y-156215D02*
X15664D01*
Y-161727D01*
X21570D01*
Y-160978D01*
X23768D01*
Y-161343D01*
X27705D01*
Y-159174D01*
X27743Y-158980D01*
Y-158971D01*
X27705Y-158777D01*
Y-156618D01*
X23768D01*
Y-156964D01*
X21570D01*
Y-156215D01*
D02*
G37*
G36*
X15089Y-159471D02*
X13939D01*
Y-160826D01*
X12424D01*
Y-161940D01*
X15089D01*
Y-159471D01*
D02*
G37*
G36*
X11424D02*
X8759D01*
Y-161940D01*
X11424D01*
Y-159471D01*
D02*
G37*
G36*
X142122Y-158693D02*
X140878D01*
X139676Y-159015D01*
X138599Y-159637D01*
X137720Y-160517D01*
X137098Y-161594D01*
X136776Y-162795D01*
Y-164039D01*
X137098Y-165241D01*
X137720Y-166318D01*
X138599Y-167198D01*
X139676Y-167820D01*
X140878Y-168142D01*
X142122D01*
X143324Y-167820D01*
X144401Y-167198D01*
X145281Y-166318D01*
X145902Y-165241D01*
X146224Y-164039D01*
Y-162795D01*
X145902Y-161594D01*
X145281Y-160517D01*
X144401Y-159637D01*
X143324Y-159015D01*
X142122Y-158693D01*
D02*
G37*
G36*
X42122D02*
X40878D01*
X39676Y-159015D01*
X38599Y-159637D01*
X37720Y-160517D01*
X37098Y-161594D01*
X36776Y-162795D01*
Y-164039D01*
X37098Y-165241D01*
X37720Y-166318D01*
X38599Y-167198D01*
X39676Y-167820D01*
X40878Y-168142D01*
X42122D01*
X43324Y-167820D01*
X44401Y-167198D01*
X45281Y-166318D01*
X45902Y-165241D01*
X46224Y-164039D01*
Y-162795D01*
X45902Y-161594D01*
X45281Y-160517D01*
X44401Y-159637D01*
X43324Y-159015D01*
X42122Y-158693D01*
D02*
G37*
G36*
X142122Y-168693D02*
X140878D01*
X139676Y-169015D01*
X138599Y-169637D01*
X137720Y-170517D01*
X137098Y-171594D01*
X136776Y-172795D01*
Y-174039D01*
X137098Y-175241D01*
X137720Y-176318D01*
X138599Y-177198D01*
X139676Y-177820D01*
X140878Y-178142D01*
X142122D01*
X143324Y-177820D01*
X144401Y-177198D01*
X145281Y-176318D01*
X145902Y-175241D01*
X146224Y-174039D01*
Y-172795D01*
X145902Y-171594D01*
X145281Y-170517D01*
X144401Y-169637D01*
X143324Y-169015D01*
X142122Y-168693D01*
D02*
G37*
G36*
X42122D02*
X40878D01*
X39676Y-169015D01*
X38599Y-169637D01*
X37720Y-170517D01*
X37098Y-171594D01*
X36776Y-172795D01*
Y-174039D01*
X37098Y-175241D01*
X37720Y-176318D01*
X38599Y-177198D01*
X39676Y-177820D01*
X40878Y-178142D01*
X42122D01*
X43324Y-177820D01*
X44401Y-177198D01*
X45281Y-176318D01*
X45902Y-175241D01*
X46224Y-174039D01*
Y-172795D01*
X45902Y-171594D01*
X45281Y-170517D01*
X44401Y-169637D01*
X43324Y-169015D01*
X42122Y-168693D01*
D02*
G37*
G36*
X54264Y-100178D02*
X53481D01*
X52758Y-100478D01*
X52204Y-101032D01*
X51904Y-101755D01*
Y-102538D01*
X52204Y-103262D01*
X52713Y-103771D01*
Y-170370D01*
X43796Y-179287D01*
X43324Y-179015D01*
X42122Y-178693D01*
X40878D01*
X39676Y-179015D01*
X38599Y-179637D01*
X37720Y-180517D01*
X37098Y-181594D01*
X36776Y-182795D01*
Y-184039D01*
X37098Y-185241D01*
X37720Y-186318D01*
X38599Y-187198D01*
X39676Y-187820D01*
X40878Y-188142D01*
X42122D01*
X43324Y-187820D01*
X44401Y-187198D01*
X45281Y-186318D01*
X45902Y-185241D01*
X46224Y-184039D01*
Y-182795D01*
X45902Y-181594D01*
X45488Y-180876D01*
X54693Y-171670D01*
X54693Y-171670D01*
X54944Y-171294D01*
X55032Y-170850D01*
Y-103771D01*
X55542Y-103262D01*
X55841Y-102538D01*
Y-101755D01*
X55542Y-101032D01*
X54988Y-100478D01*
X54264Y-100178D01*
D02*
G37*
G36*
X142122Y-178693D02*
X140878D01*
X139676Y-179015D01*
X138599Y-179637D01*
X137720Y-180517D01*
X137098Y-181594D01*
X136776Y-182795D01*
Y-184039D01*
X137098Y-185241D01*
X137720Y-186318D01*
X138599Y-187198D01*
X139676Y-187820D01*
X140878Y-188142D01*
X142122D01*
X143324Y-187820D01*
X144401Y-187198D01*
X145281Y-186318D01*
X145902Y-185241D01*
X146224Y-184039D01*
Y-182795D01*
X145902Y-181594D01*
X145281Y-180517D01*
X144401Y-179637D01*
X143324Y-179015D01*
X142122Y-178693D01*
D02*
G37*
G36*
X15082Y-205215D02*
X12417D01*
Y-206294D01*
X13932D01*
Y-207684D01*
X15082D01*
Y-205215D01*
D02*
G37*
G36*
X11417D02*
X8751D01*
Y-207684D01*
X11417D01*
Y-205215D01*
D02*
G37*
G36*
X21562Y-205428D02*
X15657D01*
Y-210940D01*
X21562D01*
Y-210191D01*
X23768D01*
Y-210546D01*
X27705D01*
Y-208378D01*
X27743Y-208184D01*
X27705Y-207990D01*
Y-205822D01*
X23768D01*
Y-206177D01*
X21562D01*
Y-205428D01*
D02*
G37*
G36*
X15082Y-208684D02*
X13932D01*
Y-210038D01*
X12417D01*
Y-211152D01*
X15082D01*
Y-208684D01*
D02*
G37*
G36*
X11417D02*
X8751D01*
Y-211152D01*
X11417D01*
Y-208684D01*
D02*
G37*
G36*
X115496Y-225520D02*
X111000D01*
Y-233500D01*
X115496D01*
Y-225520D01*
D02*
G37*
G36*
X110000D02*
X105504D01*
Y-233500D01*
X110000D01*
Y-225520D01*
D02*
G37*
G36*
X97540Y-222309D02*
X96757D01*
X96033Y-222609D01*
X95479Y-223163D01*
X95180Y-223886D01*
Y-224670D01*
X95413Y-225232D01*
X95165Y-225732D01*
X92216D01*
Y-242268D01*
X101784D01*
Y-225732D01*
X99131D01*
X98884Y-225232D01*
X99117Y-224670D01*
Y-223886D01*
X98817Y-223163D01*
X98263Y-222609D01*
X97540Y-222309D01*
D02*
G37*
G36*
X83781Y-222685D02*
X82998D01*
X82275Y-222985D01*
X81721Y-223539D01*
X81421Y-224262D01*
Y-225045D01*
X81534Y-225317D01*
X81256Y-225732D01*
X78716D01*
Y-242268D01*
X88283D01*
Y-225732D01*
X85524D01*
X85246Y-225317D01*
X85358Y-225045D01*
Y-224262D01*
X85059Y-223539D01*
X84505Y-222985D01*
X83781Y-222685D01*
D02*
G37*
G36*
X115496Y-234500D02*
X111000D01*
Y-242480D01*
X115496D01*
Y-234500D01*
D02*
G37*
G36*
X110000D02*
X105504D01*
Y-242480D01*
X110000D01*
Y-234500D01*
D02*
G37*
%LPD*%
G36*
X126500Y-71697D02*
X123323D01*
Y-66697D01*
Y-55697D01*
X57500D01*
Y-88197D01*
X43670D01*
X43536Y-87697D01*
X44401Y-87198D01*
X45281Y-86318D01*
X45902Y-85241D01*
X46224Y-84039D01*
Y-82795D01*
X45902Y-81594D01*
X45281Y-80516D01*
X44401Y-79637D01*
X43324Y-79015D01*
X42122Y-78693D01*
X40878D01*
X39676Y-79015D01*
X38599Y-79637D01*
X37720Y-80516D01*
X37098Y-81594D01*
X36776Y-82795D01*
Y-84039D01*
X37098Y-85241D01*
X37720Y-86318D01*
X38599Y-87198D01*
X39463Y-87697D01*
X39330Y-88197D01*
X33000D01*
Y-29697D01*
X126500D01*
Y-71697D01*
D02*
G37*
%LPC*%
G36*
X46437Y-38480D02*
X42000D01*
Y-42917D01*
X46437D01*
Y-38480D01*
D02*
G37*
G36*
X41000D02*
X36563D01*
Y-42917D01*
X41000D01*
Y-38480D01*
D02*
G37*
G36*
X46437Y-43917D02*
X36563D01*
Y-48354D01*
X40210D01*
X40276Y-48854D01*
X39676Y-49015D01*
X38599Y-49637D01*
X37720Y-50516D01*
X37098Y-51594D01*
X36776Y-52795D01*
Y-54039D01*
X37098Y-55241D01*
X37720Y-56318D01*
X38599Y-57198D01*
X39676Y-57820D01*
X40878Y-58142D01*
X42122D01*
X43324Y-57820D01*
X44401Y-57198D01*
X45281Y-56318D01*
X45902Y-55241D01*
X46224Y-54039D01*
Y-52795D01*
X45902Y-51594D01*
X45281Y-50516D01*
X44401Y-49637D01*
X43324Y-49015D01*
X42724Y-48854D01*
X42790Y-48354D01*
X46437D01*
Y-43917D01*
D02*
G37*
G36*
X42122Y-58693D02*
X40878D01*
X39676Y-59015D01*
X38599Y-59637D01*
X37720Y-60517D01*
X37098Y-61594D01*
X36776Y-62795D01*
Y-64039D01*
X37098Y-65241D01*
X37720Y-66318D01*
X38599Y-67198D01*
X39676Y-67820D01*
X40878Y-68142D01*
X42122D01*
X43324Y-67820D01*
X44401Y-67198D01*
X45281Y-66318D01*
X45902Y-65241D01*
X46224Y-64039D01*
Y-62795D01*
X45902Y-61594D01*
X45281Y-60517D01*
X44401Y-59637D01*
X43324Y-59015D01*
X42122Y-58693D01*
D02*
G37*
G36*
Y-68693D02*
X40878D01*
X39676Y-69015D01*
X38599Y-69637D01*
X37720Y-70517D01*
X37098Y-71594D01*
X36776Y-72795D01*
Y-74039D01*
X37098Y-75241D01*
X37720Y-76318D01*
X38599Y-77198D01*
X39676Y-77820D01*
X40878Y-78142D01*
X42122D01*
X43324Y-77820D01*
X44401Y-77198D01*
X45281Y-76318D01*
X45902Y-75241D01*
X46224Y-74039D01*
Y-72795D01*
X45902Y-71594D01*
X45281Y-70517D01*
X44401Y-69637D01*
X43324Y-69015D01*
X42122Y-68693D01*
D02*
G37*
%LPD*%
G36*
X18522Y-111612D02*
X16555D01*
Y-107868D01*
X18522D01*
Y-111612D01*
D02*
G37*
G36*
X18539Y-160825D02*
X16573D01*
Y-157081D01*
X18539D01*
Y-160825D01*
D02*
G37*
G36*
X18532Y-210037D02*
X16566D01*
Y-206294D01*
X18532D01*
Y-210037D01*
D02*
G37*
D10*
X33429Y-43417D02*
G03*
X33429Y-43417I-394J0D01*
G01*
X104383Y-79735D02*
G03*
X104383Y-79735I-394J0D01*
G01*
D12*
X103480Y-128492D02*
G03*
X113323Y-138335I9843J0D01*
G01*
D02*
G03*
X123165Y-128492I0J9843D01*
G01*
X113323Y-93059D02*
G03*
X103480Y-102902I0J-9843D01*
G01*
X123165D02*
G03*
X113323Y-93059I-9843J0D01*
G01*
X53476Y-21165D02*
X60169D01*
X53476Y-33999D02*
Y-21165D01*
Y-33999D02*
X60169D01*
Y-21165D01*
X103480Y-128492D02*
Y-102902D01*
X123165Y-128492D02*
Y-102902D01*
X35280Y-4205D02*
X78858D01*
X105280D01*
X147524D01*
X35280Y-204795D02*
Y-4205D01*
X147524Y-204795D02*
Y-4205D01*
X35280Y-204795D02*
X56421D01*
X126067D01*
X147524D01*
X56421D02*
Y-179244D01*
Y-129520D01*
X126067D01*
Y-179244D02*
Y-129520D01*
Y-204795D02*
Y-179244D01*
X56421D02*
X126067D01*
X105280Y-19520D02*
Y-4205D01*
X78858Y-19520D02*
X105280D01*
X78858D02*
Y-4205D01*
X63360Y-125030D02*
Y-79164D01*
X93281Y-125030D02*
Y-79164D01*
X63360Y-125030D02*
X93281D01*
X63360Y-79164D02*
X93281D01*
D13*
X162205Y-244094D02*
G03*
X162205Y-244094I-6693J0D01*
G01*
X18504Y-11811D02*
G03*
X18504Y-11811I-6693J0D01*
G01*
X21176Y-109759D02*
G03*
X21176Y-109759I-5906J0D01*
G01*
X162205Y-11811D02*
G03*
X162205Y-11811I-6693J0D01*
G01*
X18504Y-244094D02*
G03*
X18504Y-244094I-6693J0D01*
G01*
X21176Y-158971D02*
G03*
X21176Y-158971I-5906J0D01*
G01*
Y-208184D02*
G03*
X21176Y-208184I-5906J0D01*
G01*
X0Y-255906D02*
X167323D01*
X0Y0D02*
X167323D01*
X166323Y-255906D02*
Y0D01*
X0Y-255906D02*
Y0D01*
Y-255906D02*
Y-98425D01*
D14*
X115200Y-74400D02*
X120800D01*
Y-76900D02*
Y-74400D01*
X115200Y-76900D02*
Y-74400D01*
Y-71000D02*
X120800D01*
X115200D02*
Y-68500D01*
X120800Y-71000D02*
Y-68500D01*
X115200Y-74400D02*
Y-71000D01*
Y-68500D02*
X120800D01*
Y-74400D02*
Y-71000D01*
X115200Y-76900D02*
X120800D01*
X126523Y-109897D02*
X132123D01*
Y-112397D02*
Y-109897D01*
X126523Y-112397D02*
Y-109897D01*
Y-106497D02*
X132123D01*
X126523D02*
Y-103997D01*
X132123Y-106497D02*
Y-103997D01*
X126523Y-109897D02*
Y-106497D01*
Y-103997D02*
X132123D01*
Y-109897D02*
Y-106497D01*
X126523Y-112397D02*
X132123D01*
X126523Y-121497D02*
X132123D01*
X126523D02*
Y-118997D01*
X132123Y-121497D02*
Y-118997D01*
X126523Y-124897D02*
X132123D01*
Y-127397D02*
Y-124897D01*
X126523Y-127397D02*
Y-124897D01*
X132123D02*
Y-121497D01*
X126523Y-127397D02*
X132123D01*
X126523Y-124897D02*
Y-121497D01*
Y-118997D02*
X132123D01*
X65523Y-27997D02*
X71123D01*
X65523D02*
Y-25497D01*
X71123Y-27997D02*
Y-25497D01*
X65523Y-31397D02*
X71123D01*
Y-33897D02*
Y-31397D01*
X65523Y-33897D02*
Y-31397D01*
X71123D02*
Y-27997D01*
X65523Y-33897D02*
X71123D01*
X65523Y-31397D02*
Y-27997D01*
Y-25497D02*
X71123D01*
D15*
X24654Y-111333D02*
X30953D01*
X24654Y-108184D02*
X30953D01*
Y-111333D02*
Y-108184D01*
X24654Y-111333D02*
Y-108184D01*
X25736Y-160555D02*
X32035D01*
X25736Y-157405D02*
X32035D01*
Y-160555D02*
Y-157405D01*
X25736Y-160555D02*
Y-157405D01*
Y-209759D02*
X32035D01*
X25736Y-206609D02*
X32035D01*
Y-209759D02*
Y-206609D01*
X25736Y-209759D02*
Y-206609D01*
X49248Y-87347D02*
Y-81047D01*
X52398Y-87347D02*
Y-81047D01*
X49248D02*
X52398D01*
X49248Y-87347D02*
X52398D01*
X27803Y-111333D02*
Y-108184D01*
X26228Y-109759D02*
X29378D01*
X28886Y-160555D02*
Y-157405D01*
X27311Y-158980D02*
X30461D01*
X28886Y-209759D02*
Y-206609D01*
X27311Y-208184D02*
X30461D01*
X49248Y-84197D02*
X52398D01*
X50823Y-85772D02*
Y-82622D01*
D16*
X91273Y-76046D02*
Y-57148D01*
X78281Y-76046D02*
Y-57148D01*
X91273D01*
X93241D01*
Y-76046D02*
Y-57148D01*
X91273Y-76046D02*
X93241D01*
X78281D02*
X91273D01*
D17*
X13851Y-111408D02*
X16654D01*
X13851Y-108058D02*
X16654D01*
X13862Y-209833D02*
X16665D01*
X13862Y-206483D02*
X16665D01*
X13869Y-160621D02*
X16672D01*
X13869Y-157270D02*
X16672D01*
D18*
X102496Y-128492D02*
G03*
X113323Y-139319I10827J0D01*
G01*
D02*
G03*
X124150Y-128492I0J10827D01*
G01*
X113323Y-92075D02*
G03*
X102496Y-102902I0J-10827D01*
G01*
X124150D02*
G03*
X113323Y-92075I-10827J0D01*
G01*
X23472Y-111727D02*
X32134D01*
X23472Y-107790D02*
X32134D01*
Y-111727D02*
Y-107790D01*
X23472Y-111727D02*
Y-107790D01*
X24555Y-160949D02*
X33217D01*
X24555Y-157012D02*
X33217D01*
Y-160949D02*
Y-157012D01*
X24555Y-160949D02*
Y-157012D01*
Y-210152D02*
X33217D01*
X24555Y-206215D02*
X33217D01*
Y-210152D02*
Y-206215D01*
X24555Y-210152D02*
Y-206215D01*
X52445Y-18783D02*
X61201D01*
X52445Y-36381D02*
Y-18783D01*
Y-36381D02*
X61201D01*
Y-18783D01*
X102496Y-128492D02*
Y-102902D01*
X124150Y-128492D02*
Y-102902D01*
X151079Y-25642D02*
X160921D01*
Y-43358D02*
Y-25642D01*
X151079Y-43358D02*
X160921D01*
X151079D02*
Y-25642D01*
Y-50642D02*
X160921D01*
Y-68358D02*
Y-50642D01*
X151079Y-68358D02*
X160921D01*
X151079D02*
Y-50642D01*
X105579Y-242858D02*
X115421D01*
Y-225142D01*
X105579D02*
X115421D01*
X105579Y-242858D02*
Y-225142D01*
X92079Y-242858D02*
X101921D01*
Y-225142D01*
X92079D02*
X101921D01*
X92079Y-242858D02*
Y-225142D01*
X78579Y-242858D02*
X88421D01*
Y-225142D01*
X78579D02*
X88421D01*
X78579Y-242858D02*
Y-225142D01*
X34295Y-205780D02*
Y-3221D01*
Y-205780D02*
X148508D01*
Y-3221D01*
X34295D02*
X148508D01*
X55427Y-126014D02*
Y-78180D01*
X101214Y-126014D02*
Y-78180D01*
X55427Y-126014D02*
X101214D01*
X55427Y-78180D02*
X101214D01*
X48854Y-88528D02*
Y-79866D01*
X52791Y-88528D02*
Y-79866D01*
X48854D02*
X52791D01*
X48854Y-88528D02*
X52791D01*
D19*
X114496Y-66086D02*
X121622D01*
X114496Y-79275D02*
X121622D01*
X114496D02*
Y-66086D01*
X121622Y-79275D02*
Y-66086D01*
X125819Y-101583D02*
X132945D01*
X125819Y-114772D02*
X132945D01*
X125819D02*
Y-101583D01*
X132945Y-114772D02*
Y-101583D01*
X125701Y-129811D02*
X132827D01*
X125701Y-116622D02*
X132827D01*
Y-129811D02*
Y-116622D01*
X125701Y-129811D02*
Y-116622D01*
X64701Y-36311D02*
X71827D01*
X64701Y-23122D02*
X71827D01*
Y-36311D02*
Y-23122D01*
X64701Y-36311D02*
Y-23122D01*
D20*
X24654Y-109759D02*
D03*
X30953D02*
D03*
X25736Y-158980D02*
D03*
X32035D02*
D03*
X25736Y-208184D02*
D03*
X32035D02*
D03*
D21*
X156000Y-34500D02*
D03*
Y-59500D02*
D03*
X110500Y-234000D02*
D03*
X97000D02*
D03*
X83500D02*
D03*
D22*
X18599Y-109759D02*
D03*
X11906D02*
D03*
X18610Y-208184D02*
D03*
X11917D02*
D03*
X18617Y-158971D02*
D03*
X11924D02*
D03*
D29*
X53873Y-170850D02*
Y-102147D01*
X41450Y-183273D02*
X53873Y-170850D01*
X49823Y-124900D02*
Y-99814D01*
X52536Y-97100D02*
X52920D01*
X49823Y-99814D02*
X52536Y-97100D01*
X41450Y-133273D02*
X49823Y-124900D01*
X83390Y-233890D02*
X83500Y-234000D01*
X83390Y-233890D02*
Y-224654D01*
X97148Y-233852D02*
Y-224278D01*
X97000Y-234000D02*
X97148Y-233852D01*
X129528Y-9528D02*
X150500Y-30500D01*
X129500Y-14500D02*
X148500Y-33500D01*
X152354Y-30500D02*
X156000Y-34146D01*
Y-34500D02*
Y-34146D01*
X150500Y-30500D02*
X152354D01*
X148500Y-57500D02*
Y-33500D01*
Y-57500D02*
X150500Y-59500D01*
X156000D01*
D30*
X66733Y-208184D02*
X141500Y-133417D01*
X32035Y-208184D02*
X66733D01*
X140583Y-123417D02*
X141500D01*
X71978Y-192022D02*
X140583Y-123417D01*
X32035Y-187035D02*
X37022Y-192022D01*
X71978D01*
X32035Y-187035D02*
Y-158980D01*
X35000Y-105711D02*
Y-83114D01*
X30953Y-109759D02*
X35000Y-105711D01*
X18617Y-109759D02*
X24654D01*
X18617Y-208184D02*
X25736D01*
Y-158980D02*
Y-158971D01*
X18617D02*
X25736D01*
D31*
X141500Y-123417D02*
D03*
Y-133417D02*
D03*
X41500Y-53417D02*
D03*
Y-63417D02*
D03*
Y-73417D02*
D03*
Y-83417D02*
D03*
Y-93417D02*
D03*
Y-103417D02*
D03*
Y-113417D02*
D03*
Y-123417D02*
D03*
Y-133417D02*
D03*
Y-143417D02*
D03*
Y-153417D02*
D03*
Y-163417D02*
D03*
Y-173417D02*
D03*
Y-183417D02*
D03*
X141500Y-43417D02*
D03*
Y-53417D02*
D03*
Y-63417D02*
D03*
Y-73417D02*
D03*
Y-83417D02*
D03*
Y-93417D02*
D03*
Y-103417D02*
D03*
Y-113417D02*
D03*
Y-143417D02*
D03*
Y-153417D02*
D03*
Y-163417D02*
D03*
Y-173417D02*
D03*
Y-183417D02*
D03*
D32*
X113323Y-106091D02*
D03*
Y-125303D02*
D03*
D33*
X41500Y-43417D02*
D03*
D34*
X161466Y-25356D02*
D03*
Y-45356D02*
D03*
X158966Y-70356D02*
D03*
X161466Y-75356D02*
D03*
X158966Y-80356D02*
D03*
X161466Y-85356D02*
D03*
X158966Y-90356D02*
D03*
X161466Y-95356D02*
D03*
X158966Y-100356D02*
D03*
X161466Y-105356D02*
D03*
X158966Y-110356D02*
D03*
X161466Y-115356D02*
D03*
X158966Y-120356D02*
D03*
X161466Y-125356D02*
D03*
X158966Y-130356D02*
D03*
X161466Y-135356D02*
D03*
X158966Y-140356D02*
D03*
X161466Y-145356D02*
D03*
X158966Y-150356D02*
D03*
X161466Y-155356D02*
D03*
X158966Y-160356D02*
D03*
X161466Y-165356D02*
D03*
X158966Y-170356D02*
D03*
X161466Y-175356D02*
D03*
X158966Y-180356D02*
D03*
X161466Y-185356D02*
D03*
X158966Y-190356D02*
D03*
X161466Y-195356D02*
D03*
X158966Y-200356D02*
D03*
X161466Y-205356D02*
D03*
X158966Y-210356D02*
D03*
X161466Y-215356D02*
D03*
X158966Y-220356D02*
D03*
X161466Y-225356D02*
D03*
X158966Y-230356D02*
D03*
X161466Y-235356D02*
D03*
X156466Y-45356D02*
D03*
X153966Y-70356D02*
D03*
X156466Y-75356D02*
D03*
X153966Y-80356D02*
D03*
X156466Y-85356D02*
D03*
X153966Y-90356D02*
D03*
X156466Y-95356D02*
D03*
X153966Y-100356D02*
D03*
X156466Y-105356D02*
D03*
X153966Y-110356D02*
D03*
X156466Y-115356D02*
D03*
X153966Y-120356D02*
D03*
X156466Y-125356D02*
D03*
X153966Y-130356D02*
D03*
X156466Y-135356D02*
D03*
X153966Y-140356D02*
D03*
X156466Y-145356D02*
D03*
X153966Y-150356D02*
D03*
X156466Y-155356D02*
D03*
X153966Y-160356D02*
D03*
X156466Y-165356D02*
D03*
X153966Y-170356D02*
D03*
X156466Y-175356D02*
D03*
X153966Y-180356D02*
D03*
X156466Y-185356D02*
D03*
X153966Y-190356D02*
D03*
X156466Y-195356D02*
D03*
X153966Y-200356D02*
D03*
X156466Y-205356D02*
D03*
X153966Y-210356D02*
D03*
X156466Y-215356D02*
D03*
X153966Y-220356D02*
D03*
X156466Y-225356D02*
D03*
X153966Y-230356D02*
D03*
X148966Y-20356D02*
D03*
X151466Y-45356D02*
D03*
X148966Y-70356D02*
D03*
X151466Y-75356D02*
D03*
X148966Y-80356D02*
D03*
X151466Y-85356D02*
D03*
X148966Y-90356D02*
D03*
X151466Y-95356D02*
D03*
X148966Y-100356D02*
D03*
X151466Y-105356D02*
D03*
X148966Y-110356D02*
D03*
X151466Y-115356D02*
D03*
X148966Y-120356D02*
D03*
X151466Y-125356D02*
D03*
X148966Y-130356D02*
D03*
X151466Y-135356D02*
D03*
X148966Y-140356D02*
D03*
X151466Y-145356D02*
D03*
X148966Y-150356D02*
D03*
X151466Y-155356D02*
D03*
X148966Y-160356D02*
D03*
X151466Y-165356D02*
D03*
X148966Y-170356D02*
D03*
X151466Y-175356D02*
D03*
X148966Y-180356D02*
D03*
X151466Y-185356D02*
D03*
X148966Y-190356D02*
D03*
X151466Y-195356D02*
D03*
X148966Y-200356D02*
D03*
X151466Y-205356D02*
D03*
X148966Y-210356D02*
D03*
X151466Y-215356D02*
D03*
X148966Y-220356D02*
D03*
X151466Y-225356D02*
D03*
X148966Y-230356D02*
D03*
X151466Y-235356D02*
D03*
X146466Y-5356D02*
D03*
X143966Y-10356D02*
D03*
X146466Y-15356D02*
D03*
X143966Y-20356D02*
D03*
Y-190356D02*
D03*
X146466Y-195356D02*
D03*
X143966Y-200356D02*
D03*
X146466Y-205356D02*
D03*
X143966Y-210356D02*
D03*
X146466Y-215356D02*
D03*
X143966Y-220356D02*
D03*
X146466Y-225356D02*
D03*
X143966Y-230356D02*
D03*
X146466Y-235356D02*
D03*
X143966Y-240356D02*
D03*
Y-250356D02*
D03*
X141466Y-5356D02*
D03*
X138966Y-10356D02*
D03*
X141466Y-15356D02*
D03*
X138966Y-30356D02*
D03*
X141466Y-35356D02*
D03*
X138966Y-190356D02*
D03*
X141466Y-195356D02*
D03*
X138966Y-200356D02*
D03*
X141466Y-205356D02*
D03*
X138966Y-210356D02*
D03*
X141466Y-215356D02*
D03*
X138966Y-220356D02*
D03*
X141466Y-225356D02*
D03*
X138966Y-230356D02*
D03*
X141466Y-235356D02*
D03*
X138966Y-240356D02*
D03*
X141466Y-245356D02*
D03*
X138966Y-250356D02*
D03*
X136466Y-5356D02*
D03*
X133966Y-10356D02*
D03*
X136466Y-25356D02*
D03*
X133966Y-30356D02*
D03*
X136466Y-35356D02*
D03*
X133966Y-40356D02*
D03*
Y-50356D02*
D03*
Y-60356D02*
D03*
Y-70356D02*
D03*
Y-80356D02*
D03*
Y-90356D02*
D03*
Y-100356D02*
D03*
Y-150356D02*
D03*
Y-160356D02*
D03*
Y-170356D02*
D03*
Y-180356D02*
D03*
Y-190356D02*
D03*
X136466Y-195356D02*
D03*
X133966Y-200356D02*
D03*
X136466Y-205356D02*
D03*
X133966Y-210356D02*
D03*
X136466Y-215356D02*
D03*
X133966Y-220356D02*
D03*
X136466Y-225356D02*
D03*
X133966Y-230356D02*
D03*
X136466Y-235356D02*
D03*
X133966Y-240356D02*
D03*
X136466Y-245356D02*
D03*
X133966Y-250356D02*
D03*
X131466Y-5356D02*
D03*
X128966Y-20356D02*
D03*
X131466Y-25356D02*
D03*
X128966Y-30356D02*
D03*
X131466Y-35356D02*
D03*
X128966Y-40356D02*
D03*
X131466Y-45356D02*
D03*
X128966Y-50356D02*
D03*
X131466Y-55356D02*
D03*
X128966Y-60356D02*
D03*
X131466Y-65356D02*
D03*
X128966Y-70356D02*
D03*
X131466Y-75356D02*
D03*
X128966Y-80356D02*
D03*
X131466Y-85356D02*
D03*
X128966Y-90356D02*
D03*
X131466Y-95356D02*
D03*
X128966Y-100356D02*
D03*
Y-140356D02*
D03*
Y-150356D02*
D03*
X131466Y-155356D02*
D03*
X128966Y-160356D02*
D03*
X131466Y-165356D02*
D03*
X128966Y-170356D02*
D03*
X131466Y-175356D02*
D03*
X128966Y-180356D02*
D03*
X131466Y-185356D02*
D03*
X128966Y-190356D02*
D03*
X131466Y-195356D02*
D03*
X128966Y-200356D02*
D03*
X131466Y-205356D02*
D03*
X128966Y-210356D02*
D03*
X131466Y-215356D02*
D03*
X128966Y-220356D02*
D03*
X131466Y-225356D02*
D03*
X128966Y-230356D02*
D03*
X131466Y-235356D02*
D03*
X128966Y-240356D02*
D03*
X131466Y-245356D02*
D03*
X128966Y-250356D02*
D03*
X126466Y-5356D02*
D03*
X123966Y-20356D02*
D03*
X126466Y-25356D02*
D03*
Y-75356D02*
D03*
X123966Y-80356D02*
D03*
X126466Y-85356D02*
D03*
X123966Y-90356D02*
D03*
X126466Y-95356D02*
D03*
X123966Y-100356D02*
D03*
Y-110356D02*
D03*
Y-120356D02*
D03*
Y-130356D02*
D03*
X126466Y-155356D02*
D03*
X123966Y-160356D02*
D03*
X126466Y-165356D02*
D03*
X123966Y-170356D02*
D03*
X126466Y-175356D02*
D03*
X123966Y-180356D02*
D03*
X126466Y-185356D02*
D03*
X123966Y-190356D02*
D03*
X126466Y-195356D02*
D03*
X123966Y-200356D02*
D03*
X126466Y-205356D02*
D03*
X123966Y-210356D02*
D03*
X126466Y-215356D02*
D03*
X123966Y-220356D02*
D03*
X126466Y-225356D02*
D03*
X123966Y-230356D02*
D03*
X126466Y-235356D02*
D03*
X123966Y-240356D02*
D03*
X126466Y-245356D02*
D03*
X123966Y-250356D02*
D03*
X121466Y-5356D02*
D03*
X118966Y-20356D02*
D03*
X121466Y-25356D02*
D03*
X118966Y-80356D02*
D03*
X121466Y-85356D02*
D03*
X118966Y-90356D02*
D03*
X121466Y-95356D02*
D03*
X118966Y-100356D02*
D03*
Y-110356D02*
D03*
X121466Y-115356D02*
D03*
X118966Y-120356D02*
D03*
Y-130356D02*
D03*
X121466Y-135356D02*
D03*
X118966Y-140356D02*
D03*
Y-150356D02*
D03*
Y-160356D02*
D03*
X121466Y-165356D02*
D03*
X118966Y-170356D02*
D03*
X121466Y-175356D02*
D03*
X118966Y-180356D02*
D03*
X121466Y-185356D02*
D03*
X118966Y-190356D02*
D03*
X121466Y-195356D02*
D03*
X118966Y-200356D02*
D03*
X121466Y-205356D02*
D03*
X118966Y-210356D02*
D03*
X121466Y-215356D02*
D03*
X118966Y-220356D02*
D03*
X121466Y-225356D02*
D03*
X118966Y-230356D02*
D03*
X121466Y-235356D02*
D03*
X118966Y-240356D02*
D03*
X121466Y-245356D02*
D03*
X118966Y-250356D02*
D03*
X116466Y-5356D02*
D03*
X113966Y-20356D02*
D03*
X116466Y-25356D02*
D03*
X113966Y-80356D02*
D03*
X116466Y-85356D02*
D03*
X113966Y-90356D02*
D03*
X116466Y-95356D02*
D03*
X113966Y-100356D02*
D03*
Y-110356D02*
D03*
X116466Y-115356D02*
D03*
X113966Y-120356D02*
D03*
Y-130356D02*
D03*
X116466Y-135356D02*
D03*
X113966Y-140356D02*
D03*
X116466Y-165356D02*
D03*
X113966Y-170356D02*
D03*
X116466Y-175356D02*
D03*
X113966Y-180356D02*
D03*
X116466Y-185356D02*
D03*
X113966Y-190356D02*
D03*
X116466Y-195356D02*
D03*
X113966Y-200356D02*
D03*
X116466Y-205356D02*
D03*
X113966Y-210356D02*
D03*
X116466Y-215356D02*
D03*
X113966Y-220356D02*
D03*
X116466Y-225356D02*
D03*
Y-235356D02*
D03*
Y-245356D02*
D03*
X113966Y-250356D02*
D03*
X111466Y-5356D02*
D03*
X108966Y-20356D02*
D03*
X111466Y-25356D02*
D03*
Y-75356D02*
D03*
Y-85356D02*
D03*
X108966Y-90356D02*
D03*
X111466Y-95356D02*
D03*
X108966Y-100356D02*
D03*
X111466Y-115356D02*
D03*
X108966Y-130356D02*
D03*
X111466Y-135356D02*
D03*
X108966Y-140356D02*
D03*
X111466Y-145356D02*
D03*
X108966Y-150356D02*
D03*
Y-160356D02*
D03*
Y-170356D02*
D03*
X111466Y-175356D02*
D03*
X108966Y-180356D02*
D03*
X111466Y-185356D02*
D03*
X108966Y-190356D02*
D03*
X111466Y-195356D02*
D03*
X108966Y-200356D02*
D03*
X111466Y-205356D02*
D03*
X108966Y-210356D02*
D03*
X111466Y-215356D02*
D03*
X108966Y-220356D02*
D03*
X111466Y-245356D02*
D03*
X108966Y-250356D02*
D03*
X106466Y-5356D02*
D03*
X103966Y-20356D02*
D03*
X106466Y-25356D02*
D03*
X103966Y-60356D02*
D03*
Y-90356D02*
D03*
X106466Y-95356D02*
D03*
X103966Y-100356D02*
D03*
X106466Y-105356D02*
D03*
Y-115356D02*
D03*
X103966Y-120356D02*
D03*
X106466Y-125356D02*
D03*
X103966Y-130356D02*
D03*
X106466Y-135356D02*
D03*
X103966Y-140356D02*
D03*
X106466Y-145356D02*
D03*
X103966Y-150356D02*
D03*
X106466Y-175356D02*
D03*
X103966Y-180356D02*
D03*
X106466Y-185356D02*
D03*
X103966Y-190356D02*
D03*
X106466Y-195356D02*
D03*
X103966Y-200356D02*
D03*
X106466Y-205356D02*
D03*
X103966Y-210356D02*
D03*
X106466Y-215356D02*
D03*
X103966Y-220356D02*
D03*
Y-230356D02*
D03*
Y-240356D02*
D03*
X106466Y-245356D02*
D03*
X103966Y-250356D02*
D03*
X101466Y-5356D02*
D03*
X98966Y-20356D02*
D03*
X101466Y-25356D02*
D03*
Y-125356D02*
D03*
X98966Y-130356D02*
D03*
X101466Y-135356D02*
D03*
X98966Y-140356D02*
D03*
X101466Y-145356D02*
D03*
X98966Y-150356D02*
D03*
X101466Y-155356D02*
D03*
X98966Y-160356D02*
D03*
Y-170356D02*
D03*
Y-180356D02*
D03*
X101466Y-185356D02*
D03*
X98966Y-190356D02*
D03*
X101466Y-195356D02*
D03*
X98966Y-200356D02*
D03*
X101466Y-205356D02*
D03*
X98966Y-210356D02*
D03*
X101466Y-215356D02*
D03*
X98966Y-220356D02*
D03*
X101466Y-245356D02*
D03*
X98966Y-250356D02*
D03*
X96466Y-5356D02*
D03*
X93966Y-20356D02*
D03*
X96466Y-25356D02*
D03*
Y-125356D02*
D03*
X93966Y-130356D02*
D03*
X96466Y-135356D02*
D03*
X93966Y-140356D02*
D03*
X96466Y-145356D02*
D03*
X93966Y-150356D02*
D03*
X96466Y-155356D02*
D03*
X93966Y-160356D02*
D03*
X96466Y-185356D02*
D03*
X93966Y-190356D02*
D03*
X96466Y-195356D02*
D03*
X93966Y-200356D02*
D03*
X96466Y-205356D02*
D03*
X93966Y-210356D02*
D03*
X96466Y-215356D02*
D03*
Y-245356D02*
D03*
X93966Y-250356D02*
D03*
X91466Y-5356D02*
D03*
X88966Y-20356D02*
D03*
X91466Y-25356D02*
D03*
X88966Y-70356D02*
D03*
X91466Y-75356D02*
D03*
X88966Y-90356D02*
D03*
Y-100356D02*
D03*
Y-110356D02*
D03*
Y-120356D02*
D03*
X91466Y-125356D02*
D03*
X88966Y-130356D02*
D03*
X91466Y-135356D02*
D03*
X88966Y-140356D02*
D03*
X91466Y-145356D02*
D03*
X88966Y-150356D02*
D03*
X91466Y-155356D02*
D03*
X88966Y-160356D02*
D03*
X91466Y-165356D02*
D03*
X88966Y-170356D02*
D03*
Y-180356D02*
D03*
Y-190356D02*
D03*
X91466Y-195356D02*
D03*
X88966Y-200356D02*
D03*
X91466Y-205356D02*
D03*
X88966Y-210356D02*
D03*
X91466Y-215356D02*
D03*
X88966Y-220356D02*
D03*
X91466Y-245356D02*
D03*
X88966Y-250356D02*
D03*
X86466Y-5356D02*
D03*
X83966Y-20356D02*
D03*
X86466Y-25356D02*
D03*
X83966Y-60356D02*
D03*
Y-70356D02*
D03*
Y-80356D02*
D03*
X86466Y-85356D02*
D03*
X83966Y-90356D02*
D03*
X86466Y-95356D02*
D03*
X83966Y-100356D02*
D03*
X86466Y-105356D02*
D03*
X83966Y-110356D02*
D03*
X86466Y-115356D02*
D03*
X83966Y-120356D02*
D03*
X86466Y-125356D02*
D03*
X83966Y-130356D02*
D03*
X86466Y-135356D02*
D03*
X83966Y-140356D02*
D03*
X86466Y-145356D02*
D03*
X83966Y-150356D02*
D03*
X86466Y-155356D02*
D03*
X83966Y-160356D02*
D03*
X86466Y-165356D02*
D03*
X83966Y-170356D02*
D03*
X86466Y-195356D02*
D03*
X83966Y-200356D02*
D03*
X86466Y-205356D02*
D03*
X83966Y-220356D02*
D03*
X86466Y-245356D02*
D03*
X83966Y-250356D02*
D03*
X81466Y-5356D02*
D03*
X78966Y-20356D02*
D03*
X81466Y-25356D02*
D03*
Y-65356D02*
D03*
X78966Y-80356D02*
D03*
Y-90356D02*
D03*
Y-100356D02*
D03*
Y-110356D02*
D03*
Y-120356D02*
D03*
Y-130356D02*
D03*
Y-140356D02*
D03*
Y-150356D02*
D03*
Y-160356D02*
D03*
Y-170356D02*
D03*
Y-180356D02*
D03*
Y-190356D02*
D03*
Y-200356D02*
D03*
Y-210356D02*
D03*
X81466Y-215356D02*
D03*
Y-245356D02*
D03*
X78966Y-250356D02*
D03*
X76466Y-5356D02*
D03*
X73966Y-20356D02*
D03*
X76466Y-25356D02*
D03*
X73966Y-80356D02*
D03*
X76466Y-85356D02*
D03*
X73966Y-90356D02*
D03*
X76466Y-95356D02*
D03*
X73966Y-100356D02*
D03*
X76466Y-105356D02*
D03*
X73966Y-110356D02*
D03*
X76466Y-115356D02*
D03*
X73966Y-120356D02*
D03*
X76466Y-125356D02*
D03*
X73966Y-130356D02*
D03*
X76466Y-135356D02*
D03*
X73966Y-140356D02*
D03*
X76466Y-145356D02*
D03*
X73966Y-150356D02*
D03*
X76466Y-155356D02*
D03*
X73966Y-160356D02*
D03*
X76466Y-165356D02*
D03*
X73966Y-170356D02*
D03*
X76466Y-175356D02*
D03*
X73966Y-180356D02*
D03*
X76466Y-205356D02*
D03*
X73966Y-210356D02*
D03*
Y-220356D02*
D03*
X76466Y-225356D02*
D03*
X73966Y-230356D02*
D03*
X76466Y-235356D02*
D03*
X73966Y-240356D02*
D03*
X76466Y-245356D02*
D03*
X73966Y-250356D02*
D03*
X71466Y-5356D02*
D03*
X68966Y-20356D02*
D03*
Y-60356D02*
D03*
X71466Y-85356D02*
D03*
Y-95356D02*
D03*
Y-105356D02*
D03*
Y-115356D02*
D03*
Y-125356D02*
D03*
Y-135356D02*
D03*
Y-145356D02*
D03*
Y-155356D02*
D03*
Y-165356D02*
D03*
Y-175356D02*
D03*
Y-185356D02*
D03*
Y-195356D02*
D03*
X68966Y-220356D02*
D03*
X71466Y-225356D02*
D03*
X68966Y-230356D02*
D03*
X71466Y-235356D02*
D03*
X68966Y-240356D02*
D03*
X71466Y-245356D02*
D03*
X68966Y-250356D02*
D03*
X66466Y-5356D02*
D03*
X63966Y-20356D02*
D03*
Y-60356D02*
D03*
X66466Y-65356D02*
D03*
X63966Y-70356D02*
D03*
Y-130356D02*
D03*
Y-140356D02*
D03*
Y-150356D02*
D03*
Y-160356D02*
D03*
Y-170356D02*
D03*
Y-180356D02*
D03*
Y-200356D02*
D03*
X66466Y-215356D02*
D03*
X63966Y-220356D02*
D03*
X66466Y-225356D02*
D03*
X63966Y-230356D02*
D03*
X66466Y-235356D02*
D03*
X63966Y-240356D02*
D03*
X66466Y-245356D02*
D03*
X63966Y-250356D02*
D03*
X61466Y-5356D02*
D03*
Y-65356D02*
D03*
Y-75356D02*
D03*
Y-125356D02*
D03*
X58966Y-130356D02*
D03*
X61466Y-135356D02*
D03*
X58966Y-140356D02*
D03*
X61466Y-145356D02*
D03*
X58966Y-150356D02*
D03*
X61466Y-155356D02*
D03*
X58966Y-160356D02*
D03*
X61466Y-165356D02*
D03*
X58966Y-170356D02*
D03*
X61466Y-175356D02*
D03*
X58966Y-180356D02*
D03*
X61466Y-185356D02*
D03*
Y-195356D02*
D03*
X58966Y-200356D02*
D03*
X61466Y-215356D02*
D03*
X58966Y-220356D02*
D03*
X61466Y-225356D02*
D03*
X58966Y-230356D02*
D03*
X61466Y-235356D02*
D03*
X58966Y-240356D02*
D03*
X61466Y-245356D02*
D03*
X58966Y-250356D02*
D03*
X56466Y-5356D02*
D03*
Y-125356D02*
D03*
Y-135356D02*
D03*
Y-145356D02*
D03*
Y-155356D02*
D03*
Y-165356D02*
D03*
Y-175356D02*
D03*
X53966Y-180356D02*
D03*
X56466Y-185356D02*
D03*
Y-195356D02*
D03*
X53966Y-200356D02*
D03*
X56466Y-215356D02*
D03*
X53966Y-220356D02*
D03*
X56466Y-225356D02*
D03*
X53966Y-230356D02*
D03*
X56466Y-235356D02*
D03*
X53966Y-240356D02*
D03*
X56466Y-245356D02*
D03*
X53966Y-250356D02*
D03*
X51466Y-5356D02*
D03*
X48966Y-20356D02*
D03*
X51466Y-25356D02*
D03*
X48966Y-90356D02*
D03*
Y-130356D02*
D03*
X51466Y-135356D02*
D03*
X48966Y-140356D02*
D03*
X51466Y-145356D02*
D03*
X48966Y-150356D02*
D03*
X51466Y-155356D02*
D03*
X48966Y-160356D02*
D03*
X51466Y-165356D02*
D03*
X48966Y-170356D02*
D03*
Y-180356D02*
D03*
X51466Y-185356D02*
D03*
Y-195356D02*
D03*
X48966Y-200356D02*
D03*
X51466Y-215356D02*
D03*
X48966Y-220356D02*
D03*
X51466Y-225356D02*
D03*
X48966Y-230356D02*
D03*
X51466Y-235356D02*
D03*
X48966Y-240356D02*
D03*
X51466Y-245356D02*
D03*
X48966Y-250356D02*
D03*
X46466Y-5356D02*
D03*
X43966Y-20356D02*
D03*
X46466Y-25356D02*
D03*
Y-195356D02*
D03*
X43966Y-200356D02*
D03*
X46466Y-215356D02*
D03*
X43966Y-220356D02*
D03*
X46466Y-225356D02*
D03*
X43966Y-230356D02*
D03*
X46466Y-235356D02*
D03*
X43966Y-240356D02*
D03*
X46466Y-245356D02*
D03*
X43966Y-250356D02*
D03*
X41466Y-5356D02*
D03*
X38966Y-20356D02*
D03*
X41466Y-25356D02*
D03*
Y-195356D02*
D03*
X38966Y-200356D02*
D03*
X41466Y-215356D02*
D03*
X38966Y-220356D02*
D03*
X41466Y-225356D02*
D03*
X38966Y-230356D02*
D03*
X41466Y-235356D02*
D03*
X38966Y-240356D02*
D03*
X41466Y-245356D02*
D03*
X38966Y-250356D02*
D03*
X36466Y-5356D02*
D03*
Y-25356D02*
D03*
X33966Y-120356D02*
D03*
Y-130356D02*
D03*
Y-140356D02*
D03*
Y-150356D02*
D03*
X36466Y-195356D02*
D03*
X33966Y-200356D02*
D03*
X36466Y-215356D02*
D03*
X33966Y-220356D02*
D03*
X36466Y-225356D02*
D03*
X33966Y-230356D02*
D03*
X36466Y-235356D02*
D03*
X33966Y-240356D02*
D03*
X36466Y-245356D02*
D03*
X33966Y-250356D02*
D03*
X31466Y-5356D02*
D03*
X28966Y-10356D02*
D03*
Y-140356D02*
D03*
X31466Y-145356D02*
D03*
X28966Y-150356D02*
D03*
X31466Y-155356D02*
D03*
X28966Y-170356D02*
D03*
Y-180356D02*
D03*
Y-190356D02*
D03*
X31466Y-195356D02*
D03*
X28966Y-200356D02*
D03*
Y-210356D02*
D03*
X31466Y-215356D02*
D03*
X28966Y-220356D02*
D03*
X31466Y-225356D02*
D03*
X28966Y-230356D02*
D03*
X31466Y-235356D02*
D03*
X28966Y-240356D02*
D03*
X31466Y-245356D02*
D03*
X28966Y-250356D02*
D03*
X26466Y-5356D02*
D03*
X23966Y-10356D02*
D03*
X26466Y-15356D02*
D03*
Y-165356D02*
D03*
X23966Y-170356D02*
D03*
X26466Y-175356D02*
D03*
X23966Y-180356D02*
D03*
X26466Y-185356D02*
D03*
X23966Y-190356D02*
D03*
X26466Y-195356D02*
D03*
X23966Y-200356D02*
D03*
X26466Y-215356D02*
D03*
X23966Y-220356D02*
D03*
X26466Y-225356D02*
D03*
X23966Y-230356D02*
D03*
X26466Y-235356D02*
D03*
X23966Y-240356D02*
D03*
X26466Y-245356D02*
D03*
X23966Y-250356D02*
D03*
X21466Y-5356D02*
D03*
Y-15356D02*
D03*
X18966Y-20356D02*
D03*
X21466Y-25356D02*
D03*
X18966Y-30356D02*
D03*
X21466Y-35356D02*
D03*
X18966Y-40356D02*
D03*
X21466Y-45356D02*
D03*
X18966Y-50356D02*
D03*
X21466Y-55356D02*
D03*
X18966Y-60356D02*
D03*
X21466Y-65356D02*
D03*
X18966Y-70356D02*
D03*
X21466Y-75356D02*
D03*
X18966Y-80356D02*
D03*
X21466Y-85356D02*
D03*
X18966Y-90356D02*
D03*
X21466Y-95356D02*
D03*
X18966Y-100356D02*
D03*
X21466Y-105356D02*
D03*
Y-115356D02*
D03*
X18966Y-120356D02*
D03*
X21466Y-125356D02*
D03*
X18966Y-130356D02*
D03*
X21466Y-135356D02*
D03*
X18966Y-140356D02*
D03*
X21466Y-145356D02*
D03*
X18966Y-150356D02*
D03*
X21466Y-165356D02*
D03*
X18966Y-170356D02*
D03*
X21466Y-175356D02*
D03*
X18966Y-180356D02*
D03*
X21466Y-185356D02*
D03*
X18966Y-190356D02*
D03*
X21466Y-195356D02*
D03*
X18966Y-200356D02*
D03*
X21466Y-215356D02*
D03*
X18966Y-220356D02*
D03*
X21466Y-225356D02*
D03*
X18966Y-230356D02*
D03*
X21466Y-235356D02*
D03*
Y-245356D02*
D03*
X16466Y-25356D02*
D03*
X13966Y-30356D02*
D03*
X16466Y-35356D02*
D03*
X13966Y-40356D02*
D03*
X16466Y-45356D02*
D03*
X13966Y-50356D02*
D03*
X16466Y-55356D02*
D03*
X13966Y-60356D02*
D03*
X16466Y-65356D02*
D03*
X13966Y-70356D02*
D03*
X16466Y-75356D02*
D03*
X13966Y-80356D02*
D03*
X16466Y-85356D02*
D03*
X13966Y-90356D02*
D03*
X16466Y-95356D02*
D03*
X13966Y-100356D02*
D03*
X16466Y-105356D02*
D03*
Y-115356D02*
D03*
X13966Y-120356D02*
D03*
X16466Y-125356D02*
D03*
X13966Y-130356D02*
D03*
X16466Y-135356D02*
D03*
X13966Y-140356D02*
D03*
X16466Y-145356D02*
D03*
X13966Y-150356D02*
D03*
X16466Y-165356D02*
D03*
X13966Y-170356D02*
D03*
X16466Y-175356D02*
D03*
X13966Y-180356D02*
D03*
X16466Y-185356D02*
D03*
X13966Y-190356D02*
D03*
X16466Y-195356D02*
D03*
X13966Y-200356D02*
D03*
X16466Y-215356D02*
D03*
X13966Y-220356D02*
D03*
X16466Y-225356D02*
D03*
X13966Y-230356D02*
D03*
X16466Y-235356D02*
D03*
X11466Y-25356D02*
D03*
X8966Y-30356D02*
D03*
X11466Y-35356D02*
D03*
X8966Y-40356D02*
D03*
X11466Y-45356D02*
D03*
X8966Y-50356D02*
D03*
X11466Y-55356D02*
D03*
X8966Y-60356D02*
D03*
X11466Y-65356D02*
D03*
X8966Y-70356D02*
D03*
X11466Y-75356D02*
D03*
X8966Y-80356D02*
D03*
X11466Y-85356D02*
D03*
X8966Y-90356D02*
D03*
X11466Y-95356D02*
D03*
X8966Y-100356D02*
D03*
X11466Y-105356D02*
D03*
Y-115356D02*
D03*
X8966Y-120356D02*
D03*
X11466Y-125356D02*
D03*
X8966Y-130356D02*
D03*
X11466Y-135356D02*
D03*
X8966Y-140356D02*
D03*
X11466Y-145356D02*
D03*
X8966Y-150356D02*
D03*
X11466Y-165356D02*
D03*
X8966Y-170356D02*
D03*
X11466Y-175356D02*
D03*
X8966Y-180356D02*
D03*
X11466Y-185356D02*
D03*
X8966Y-190356D02*
D03*
X11466Y-195356D02*
D03*
X8966Y-200356D02*
D03*
X11466Y-215356D02*
D03*
X8966Y-220356D02*
D03*
X11466Y-225356D02*
D03*
X8966Y-230356D02*
D03*
X6466Y-25356D02*
D03*
Y-35356D02*
D03*
Y-45356D02*
D03*
Y-55356D02*
D03*
Y-65356D02*
D03*
Y-75356D02*
D03*
Y-85356D02*
D03*
Y-95356D02*
D03*
Y-105356D02*
D03*
Y-115356D02*
D03*
Y-125356D02*
D03*
Y-135356D02*
D03*
Y-145356D02*
D03*
Y-155356D02*
D03*
Y-165356D02*
D03*
Y-175356D02*
D03*
Y-185356D02*
D03*
Y-195356D02*
D03*
Y-205356D02*
D03*
Y-215356D02*
D03*
Y-225356D02*
D03*
Y-235356D02*
D03*
D35*
X53873Y-102147D02*
D03*
X52920Y-97100D02*
D03*
X83390Y-224654D02*
D03*
X97148Y-224278D02*
D03*
X129528Y-9528D02*
D03*
X129500Y-14500D02*
D03*
X50823Y-77697D02*
D03*
M02*
