G04*
G04 #@! TF.GenerationSoftware,Altium Limited,Altium Designer,21.0.9 (235)*
G04*
G04 Layer_Color=2752767*
%FSLAX25Y25*%
%MOIN*%
G70*
G04*
G04 #@! TF.SameCoordinates,A9A079C1-7CC1-46CE-92A7-F05A66FF1BB4*
G04*
G04*
G04 #@! TF.FilePolarity,Positive*
G04*
G01*
G75*
%ADD10C,0.00787*%
%ADD12C,0.00500*%
%ADD13C,0.00050*%
%ADD14C,0.00000*%
%ADD15C,0.00394*%
%ADD16C,0.00800*%
%ADD17C,0.00400*%
%ADD18C,0.00197*%
%ADD19C,0.00201*%
%ADD57C,0.00200*%
%ADD58C,0.00267*%
G36*
X97966Y-60062D02*
X93635D01*
Y-58132D01*
X97966D01*
Y-60062D01*
D02*
G37*
G36*
X77887D02*
X73556D01*
Y-58132D01*
X77887D01*
Y-60062D01*
D02*
G37*
G36*
X97966Y-65062D02*
X93635D01*
Y-63132D01*
X97966D01*
Y-65062D01*
D02*
G37*
G36*
X77887D02*
X73556D01*
Y-63132D01*
X77887D01*
Y-65062D01*
D02*
G37*
G36*
X97966Y-70062D02*
X93635D01*
Y-68132D01*
X97966D01*
Y-70062D01*
D02*
G37*
G36*
X77887D02*
X73556D01*
Y-68132D01*
X77887D01*
Y-70062D01*
D02*
G37*
G36*
X97966Y-75062D02*
X93635D01*
Y-73132D01*
X97966D01*
Y-75062D01*
D02*
G37*
G36*
X77887D02*
X73556D01*
Y-73132D01*
X77887D01*
Y-75062D01*
D02*
G37*
G36*
X18522Y-111612D02*
X16555D01*
Y-107868D01*
X18522D01*
Y-111612D01*
D02*
G37*
G36*
X13922Y-111613D02*
X11945D01*
Y-107868D01*
X13922D01*
Y-111613D01*
D02*
G37*
G36*
X18539Y-160825D02*
X16573D01*
Y-157081D01*
X18539D01*
Y-160825D01*
D02*
G37*
G36*
X13939Y-160826D02*
X11963D01*
Y-157081D01*
X13939D01*
Y-160826D01*
D02*
G37*
G36*
X18532Y-210037D02*
X16566D01*
Y-206294D01*
X18532D01*
Y-210037D01*
D02*
G37*
G36*
X13932Y-210038D02*
X11956D01*
Y-206294D01*
X13932D01*
Y-210038D01*
D02*
G37*
D10*
X33429Y-43417D02*
G03*
X33429Y-43417I-394J0D01*
G01*
X104383Y-79735D02*
G03*
X104383Y-79735I-394J0D01*
G01*
D12*
X103480Y-128492D02*
G03*
X113323Y-138335I9843J0D01*
G01*
D02*
G03*
X123165Y-128492I0J9843D01*
G01*
X113323Y-93059D02*
G03*
X103480Y-102902I0J-9843D01*
G01*
X123165D02*
G03*
X113323Y-93059I-9843J0D01*
G01*
X53476Y-21165D02*
X60169D01*
X53476Y-33999D02*
Y-21165D01*
Y-33999D02*
X60169D01*
Y-21165D01*
X103480Y-128492D02*
Y-102902D01*
X123165Y-128492D02*
Y-102902D01*
X35280Y-4205D02*
X78858D01*
X105280D01*
X147524D01*
X35280Y-204795D02*
Y-4205D01*
X147524Y-204795D02*
Y-4205D01*
X35280Y-204795D02*
X56421D01*
X126067D01*
X147524D01*
X56421D02*
Y-179244D01*
Y-129520D01*
X126067D01*
Y-179244D02*
Y-129520D01*
Y-204795D02*
Y-179244D01*
X56421D02*
X126067D01*
X105280Y-19520D02*
Y-4205D01*
X78858Y-19520D02*
X105280D01*
X78858D02*
Y-4205D01*
X63360Y-125030D02*
Y-79164D01*
X93281Y-125030D02*
Y-79164D01*
X63360Y-125030D02*
X93281D01*
X63360Y-79164D02*
X93281D01*
D13*
X162205Y-244094D02*
G03*
X162205Y-244094I-6693J0D01*
G01*
X18504Y-11811D02*
G03*
X18504Y-11811I-6693J0D01*
G01*
X21176Y-109759D02*
G03*
X21176Y-109759I-5906J0D01*
G01*
X162205Y-11811D02*
G03*
X162205Y-11811I-6693J0D01*
G01*
X18504Y-244094D02*
G03*
X18504Y-244094I-6693J0D01*
G01*
X21176Y-158971D02*
G03*
X21176Y-158971I-5906J0D01*
G01*
Y-208184D02*
G03*
X21176Y-208184I-5906J0D01*
G01*
X0Y-255906D02*
X167323D01*
X0Y0D02*
X167323D01*
X166323Y-255906D02*
Y0D01*
X0Y-255906D02*
Y0D01*
Y-255906D02*
Y-98425D01*
D14*
X115200Y-74400D02*
X120800D01*
Y-76900D02*
Y-74400D01*
X115200Y-76900D02*
Y-74400D01*
Y-71000D02*
X120800D01*
X115200D02*
Y-68500D01*
X120800Y-71000D02*
Y-68500D01*
X115200Y-74400D02*
Y-71000D01*
Y-68500D02*
X120800D01*
Y-74400D02*
Y-71000D01*
X115200Y-76900D02*
X120800D01*
X126523Y-109897D02*
X132123D01*
Y-112397D02*
Y-109897D01*
X126523Y-112397D02*
Y-109897D01*
Y-106497D02*
X132123D01*
X126523D02*
Y-103997D01*
X132123Y-106497D02*
Y-103997D01*
X126523Y-109897D02*
Y-106497D01*
Y-103997D02*
X132123D01*
Y-109897D02*
Y-106497D01*
X126523Y-112397D02*
X132123D01*
X126523Y-121497D02*
X132123D01*
X126523D02*
Y-118997D01*
X132123Y-121497D02*
Y-118997D01*
X126523Y-124897D02*
X132123D01*
Y-127397D02*
Y-124897D01*
X126523Y-127397D02*
Y-124897D01*
X132123D02*
Y-121497D01*
X126523Y-127397D02*
X132123D01*
X126523Y-124897D02*
Y-121497D01*
Y-118997D02*
X132123D01*
X65523Y-27997D02*
X71123D01*
X65523D02*
Y-25497D01*
X71123Y-27997D02*
Y-25497D01*
X65523Y-31397D02*
X71123D01*
Y-33897D02*
Y-31397D01*
X65523Y-33897D02*
Y-31397D01*
X71123D02*
Y-27997D01*
X65523Y-33897D02*
X71123D01*
X65523Y-31397D02*
Y-27997D01*
Y-25497D02*
X71123D01*
D15*
X24654Y-111333D02*
X30953D01*
X24654Y-108184D02*
X30953D01*
Y-111333D02*
Y-108184D01*
X24654Y-111333D02*
Y-108184D01*
X25736Y-160555D02*
X32035D01*
X25736Y-157405D02*
X32035D01*
Y-160555D02*
Y-157405D01*
X25736Y-160555D02*
Y-157405D01*
Y-209759D02*
X32035D01*
X25736Y-206609D02*
X32035D01*
Y-209759D02*
Y-206609D01*
X25736Y-209759D02*
Y-206609D01*
X49248Y-87347D02*
Y-81047D01*
X52398Y-87347D02*
Y-81047D01*
X49248D02*
X52398D01*
X49248Y-87347D02*
X52398D01*
X27803Y-111333D02*
Y-108184D01*
X26228Y-109759D02*
X29378D01*
X28886Y-160555D02*
Y-157405D01*
X27311Y-158980D02*
X30461D01*
X28886Y-209759D02*
Y-206609D01*
X27311Y-208184D02*
X30461D01*
X49248Y-84197D02*
X52398D01*
X50823Y-85772D02*
Y-82622D01*
D16*
X91273Y-76046D02*
Y-57148D01*
X78281Y-76046D02*
Y-57148D01*
X91273D01*
X93241D01*
Y-76046D02*
Y-57148D01*
X91273Y-76046D02*
X93241D01*
X78281D02*
X91273D01*
D17*
X13851Y-111408D02*
X16654D01*
X13851Y-108058D02*
X16654D01*
X13862Y-209833D02*
X16665D01*
X13862Y-206483D02*
X16665D01*
X13869Y-160621D02*
X16672D01*
X13869Y-157270D02*
X16672D01*
D18*
X102496Y-128492D02*
G03*
X113323Y-139319I10827J0D01*
G01*
D02*
G03*
X124150Y-128492I0J10827D01*
G01*
X113323Y-92075D02*
G03*
X102496Y-102902I0J-10827D01*
G01*
X124150D02*
G03*
X113323Y-92075I-10827J0D01*
G01*
X23472Y-111727D02*
X32134D01*
X23472Y-107790D02*
X32134D01*
Y-111727D02*
Y-107790D01*
X23472Y-111727D02*
Y-107790D01*
X24555Y-160949D02*
X33217D01*
X24555Y-157012D02*
X33217D01*
Y-160949D02*
Y-157012D01*
X24555Y-160949D02*
Y-157012D01*
Y-210152D02*
X33217D01*
X24555Y-206215D02*
X33217D01*
Y-210152D02*
Y-206215D01*
X24555Y-210152D02*
Y-206215D01*
X52445Y-18783D02*
X61201D01*
X52445Y-36381D02*
Y-18783D01*
Y-36381D02*
X61201D01*
Y-18783D01*
X102496Y-128492D02*
Y-102902D01*
X124150Y-128492D02*
Y-102902D01*
X151079Y-25642D02*
X160921D01*
Y-43358D02*
Y-25642D01*
X151079Y-43358D02*
X160921D01*
X151079D02*
Y-25642D01*
Y-50642D02*
X160921D01*
Y-68358D02*
Y-50642D01*
X151079Y-68358D02*
X160921D01*
X151079D02*
Y-50642D01*
X105579Y-242858D02*
X115421D01*
Y-225142D01*
X105579D02*
X115421D01*
X105579Y-242858D02*
Y-225142D01*
X92079Y-242858D02*
X101921D01*
Y-225142D01*
X92079D02*
X101921D01*
X92079Y-242858D02*
Y-225142D01*
X78579Y-242858D02*
X88421D01*
Y-225142D01*
X78579D02*
X88421D01*
X78579Y-242858D02*
Y-225142D01*
X34295Y-205780D02*
Y-3221D01*
Y-205780D02*
X148508D01*
Y-3221D01*
X34295D02*
X148508D01*
X55427Y-126014D02*
Y-78180D01*
X101214Y-126014D02*
Y-78180D01*
X55427Y-126014D02*
X101214D01*
X55427Y-78180D02*
X101214D01*
X48854Y-88528D02*
Y-79866D01*
X52791Y-88528D02*
Y-79866D01*
X48854D02*
X52791D01*
X48854Y-88528D02*
X52791D01*
D19*
X114496Y-66086D02*
X121622D01*
X114496Y-79275D02*
X121622D01*
X114496D02*
Y-66086D01*
X121622Y-79275D02*
Y-66086D01*
X125819Y-101583D02*
X132945D01*
X125819Y-114772D02*
X132945D01*
X125819D02*
Y-101583D01*
X132945Y-114772D02*
Y-101583D01*
X125701Y-129811D02*
X132827D01*
X125701Y-116622D02*
X132827D01*
Y-129811D02*
Y-116622D01*
X125701Y-129811D02*
Y-116622D01*
X64701Y-36311D02*
X71827D01*
X64701Y-23122D02*
X71827D01*
Y-36311D02*
Y-23122D01*
X64701Y-36311D02*
Y-23122D01*
D57*
X140700Y-124217D02*
Y-122617D01*
X142300D01*
Y-124217D01*
X140700D01*
Y-134217D02*
Y-132617D01*
X142300D01*
Y-134217D01*
X140700D01*
X40700Y-44217D02*
Y-42617D01*
X42300D01*
Y-44217D01*
X40700D01*
Y-54217D02*
Y-52617D01*
X42300D01*
Y-54217D01*
X40700D01*
Y-64217D02*
Y-62617D01*
X42300D01*
Y-64217D01*
X40700D01*
Y-74217D02*
Y-72617D01*
X42300D01*
Y-74217D01*
X40700D01*
Y-84217D02*
Y-82617D01*
X42300D01*
Y-84217D01*
X40700D01*
Y-94217D02*
Y-92617D01*
X42300D01*
Y-94217D01*
X40700D01*
Y-104217D02*
Y-102617D01*
X42300D01*
Y-104217D01*
X40700D01*
Y-114217D02*
Y-112617D01*
X42300D01*
Y-114217D01*
X40700D01*
Y-124217D02*
Y-122617D01*
X42300D01*
Y-124217D01*
X40700D01*
Y-134217D02*
Y-132617D01*
X42300D01*
Y-134217D01*
X40700D01*
Y-144217D02*
Y-142617D01*
X42300D01*
Y-144217D01*
X40700D01*
Y-154217D02*
Y-152617D01*
X42300D01*
Y-154217D01*
X40700D01*
Y-164217D02*
Y-162617D01*
X42300D01*
Y-164217D01*
X40700D01*
Y-174217D02*
Y-172617D01*
X42300D01*
Y-174217D01*
X40700D01*
Y-184217D02*
Y-182617D01*
X42300D01*
Y-184217D01*
X40700D01*
X140700Y-44217D02*
Y-42617D01*
X142300D01*
Y-44217D01*
X140700D01*
Y-54217D02*
Y-52617D01*
X142300D01*
Y-54217D01*
X140700D01*
Y-64217D02*
Y-62617D01*
X142300D01*
Y-64217D01*
X140700D01*
Y-74217D02*
Y-72617D01*
X142300D01*
Y-74217D01*
X140700D01*
Y-84217D02*
Y-82617D01*
X142300D01*
Y-84217D01*
X140700D01*
Y-94217D02*
Y-92617D01*
X142300D01*
Y-94217D01*
X140700D01*
Y-104217D02*
Y-102617D01*
X142300D01*
Y-104217D01*
X140700D01*
Y-114217D02*
Y-112617D01*
X142300D01*
Y-114217D01*
X140700D01*
Y-144217D02*
Y-142617D01*
X142300D01*
Y-144217D01*
X140700D01*
Y-154217D02*
Y-152617D01*
X142300D01*
Y-154217D01*
X140700D01*
Y-164217D02*
Y-162617D01*
X142300D01*
Y-164217D01*
X140700D01*
Y-174217D02*
Y-172617D01*
X142300D01*
Y-174217D01*
X140700D01*
Y-184217D02*
Y-182617D01*
X142300D01*
Y-184217D01*
X140700D01*
X161466Y-26156D02*
X160666Y-24556D01*
X162266D01*
X161466Y-26156D01*
Y-46156D02*
X160666Y-44556D01*
X162266D01*
X161466Y-46156D01*
X158966Y-71156D02*
X158166Y-69556D01*
X159766D01*
X158966Y-71156D01*
X161466Y-76156D02*
X160666Y-74556D01*
X162266D01*
X161466Y-76156D01*
X158966Y-81156D02*
X158166Y-79556D01*
X159766D01*
X158966Y-81156D01*
X161466Y-86156D02*
X160666Y-84556D01*
X162266D01*
X161466Y-86156D01*
X158966Y-91156D02*
X158166Y-89556D01*
X159766D01*
X158966Y-91156D01*
X161466Y-96156D02*
X160666Y-94556D01*
X162266D01*
X161466Y-96156D01*
X158966Y-101156D02*
X158166Y-99556D01*
X159766D01*
X158966Y-101156D01*
X161466Y-106156D02*
X160666Y-104556D01*
X162266D01*
X161466Y-106156D01*
X158966Y-111156D02*
X158166Y-109556D01*
X159766D01*
X158966Y-111156D01*
X161466Y-116156D02*
X160666Y-114556D01*
X162266D01*
X161466Y-116156D01*
X158966Y-121156D02*
X158166Y-119556D01*
X159766D01*
X158966Y-121156D01*
X161466Y-126156D02*
X160666Y-124556D01*
X162266D01*
X161466Y-126156D01*
X158966Y-131156D02*
X158166Y-129556D01*
X159766D01*
X158966Y-131156D01*
X161466Y-136156D02*
X160666Y-134556D01*
X162266D01*
X161466Y-136156D01*
X158966Y-141156D02*
X158166Y-139556D01*
X159766D01*
X158966Y-141156D01*
X161466Y-146156D02*
X160666Y-144556D01*
X162266D01*
X161466Y-146156D01*
X158966Y-151156D02*
X158166Y-149556D01*
X159766D01*
X158966Y-151156D01*
X161466Y-156156D02*
X160666Y-154556D01*
X162266D01*
X161466Y-156156D01*
X158966Y-161156D02*
X158166Y-159556D01*
X159766D01*
X158966Y-161156D01*
X161466Y-166156D02*
X160666Y-164556D01*
X162266D01*
X161466Y-166156D01*
X158966Y-171156D02*
X158166Y-169556D01*
X159766D01*
X158966Y-171156D01*
X161466Y-176156D02*
X160666Y-174556D01*
X162266D01*
X161466Y-176156D01*
X158966Y-181156D02*
X158166Y-179556D01*
X159766D01*
X158966Y-181156D01*
X161466Y-186156D02*
X160666Y-184556D01*
X162266D01*
X161466Y-186156D01*
X158966Y-191156D02*
X158166Y-189556D01*
X159766D01*
X158966Y-191156D01*
X161466Y-196156D02*
X160666Y-194556D01*
X162266D01*
X161466Y-196156D01*
X158966Y-201156D02*
X158166Y-199556D01*
X159766D01*
X158966Y-201156D01*
X161466Y-206156D02*
X160666Y-204556D01*
X162266D01*
X161466Y-206156D01*
X158966Y-211156D02*
X158166Y-209556D01*
X159766D01*
X158966Y-211156D01*
X161466Y-216156D02*
X160666Y-214556D01*
X162266D01*
X161466Y-216156D01*
X158966Y-221156D02*
X158166Y-219556D01*
X159766D01*
X158966Y-221156D01*
X161466Y-226156D02*
X160666Y-224556D01*
X162266D01*
X161466Y-226156D01*
X158966Y-231156D02*
X158166Y-229556D01*
X159766D01*
X158966Y-231156D01*
X161466Y-236156D02*
X160666Y-234556D01*
X162266D01*
X161466Y-236156D01*
X156466Y-46156D02*
X155666Y-44556D01*
X157266D01*
X156466Y-46156D01*
X153966Y-71156D02*
X153166Y-69556D01*
X154766D01*
X153966Y-71156D01*
X156466Y-76156D02*
X155666Y-74556D01*
X157266D01*
X156466Y-76156D01*
X153966Y-81156D02*
X153166Y-79556D01*
X154766D01*
X153966Y-81156D01*
X156466Y-86156D02*
X155666Y-84556D01*
X157266D01*
X156466Y-86156D01*
X153966Y-91156D02*
X153166Y-89556D01*
X154766D01*
X153966Y-91156D01*
X156466Y-96156D02*
X155666Y-94556D01*
X157266D01*
X156466Y-96156D01*
X153966Y-101156D02*
X153166Y-99556D01*
X154766D01*
X153966Y-101156D01*
X156466Y-106156D02*
X155666Y-104556D01*
X157266D01*
X156466Y-106156D01*
X153966Y-111156D02*
X153166Y-109556D01*
X154766D01*
X153966Y-111156D01*
X156466Y-116156D02*
X155666Y-114556D01*
X157266D01*
X156466Y-116156D01*
X153966Y-121156D02*
X153166Y-119556D01*
X154766D01*
X153966Y-121156D01*
X156466Y-126156D02*
X155666Y-124556D01*
X157266D01*
X156466Y-126156D01*
X153966Y-131156D02*
X153166Y-129556D01*
X154766D01*
X153966Y-131156D01*
X156466Y-136156D02*
X155666Y-134556D01*
X157266D01*
X156466Y-136156D01*
X153966Y-141156D02*
X153166Y-139556D01*
X154766D01*
X153966Y-141156D01*
X156466Y-146156D02*
X155666Y-144556D01*
X157266D01*
X156466Y-146156D01*
X153966Y-151156D02*
X153166Y-149556D01*
X154766D01*
X153966Y-151156D01*
X156466Y-156156D02*
X155666Y-154556D01*
X157266D01*
X156466Y-156156D01*
X153966Y-161156D02*
X153166Y-159556D01*
X154766D01*
X153966Y-161156D01*
X156466Y-166156D02*
X155666Y-164556D01*
X157266D01*
X156466Y-166156D01*
X153966Y-171156D02*
X153166Y-169556D01*
X154766D01*
X153966Y-171156D01*
X156466Y-176156D02*
X155666Y-174556D01*
X157266D01*
X156466Y-176156D01*
X153966Y-181156D02*
X153166Y-179556D01*
X154766D01*
X153966Y-181156D01*
X156466Y-186156D02*
X155666Y-184556D01*
X157266D01*
X156466Y-186156D01*
X153966Y-191156D02*
X153166Y-189556D01*
X154766D01*
X153966Y-191156D01*
X156466Y-196156D02*
X155666Y-194556D01*
X157266D01*
X156466Y-196156D01*
X153966Y-201156D02*
X153166Y-199556D01*
X154766D01*
X153966Y-201156D01*
X156466Y-206156D02*
X155666Y-204556D01*
X157266D01*
X156466Y-206156D01*
X153966Y-211156D02*
X153166Y-209556D01*
X154766D01*
X153966Y-211156D01*
X156466Y-216156D02*
X155666Y-214556D01*
X157266D01*
X156466Y-216156D01*
X153966Y-221156D02*
X153166Y-219556D01*
X154766D01*
X153966Y-221156D01*
X156466Y-226156D02*
X155666Y-224556D01*
X157266D01*
X156466Y-226156D01*
X153966Y-231156D02*
X153166Y-229556D01*
X154766D01*
X153966Y-231156D01*
X148966Y-21156D02*
X148166Y-19556D01*
X149766D01*
X148966Y-21156D01*
X151466Y-46156D02*
X150666Y-44556D01*
X152266D01*
X151466Y-46156D01*
X148966Y-71156D02*
X148166Y-69556D01*
X149766D01*
X148966Y-71156D01*
X151466Y-76156D02*
X150666Y-74556D01*
X152266D01*
X151466Y-76156D01*
X148966Y-81156D02*
X148166Y-79556D01*
X149766D01*
X148966Y-81156D01*
X151466Y-86156D02*
X150666Y-84556D01*
X152266D01*
X151466Y-86156D01*
X148966Y-91156D02*
X148166Y-89556D01*
X149766D01*
X148966Y-91156D01*
X151466Y-96156D02*
X150666Y-94556D01*
X152266D01*
X151466Y-96156D01*
X148966Y-101156D02*
X148166Y-99556D01*
X149766D01*
X148966Y-101156D01*
X151466Y-106156D02*
X150666Y-104556D01*
X152266D01*
X151466Y-106156D01*
X148966Y-111156D02*
X148166Y-109556D01*
X149766D01*
X148966Y-111156D01*
X151466Y-116156D02*
X150666Y-114556D01*
X152266D01*
X151466Y-116156D01*
X148966Y-121156D02*
X148166Y-119556D01*
X149766D01*
X148966Y-121156D01*
X151466Y-126156D02*
X150666Y-124556D01*
X152266D01*
X151466Y-126156D01*
X148966Y-131156D02*
X148166Y-129556D01*
X149766D01*
X148966Y-131156D01*
X151466Y-136156D02*
X150666Y-134556D01*
X152266D01*
X151466Y-136156D01*
X148966Y-141156D02*
X148166Y-139556D01*
X149766D01*
X148966Y-141156D01*
X151466Y-146156D02*
X150666Y-144556D01*
X152266D01*
X151466Y-146156D01*
X148966Y-151156D02*
X148166Y-149556D01*
X149766D01*
X148966Y-151156D01*
X151466Y-156156D02*
X150666Y-154556D01*
X152266D01*
X151466Y-156156D01*
X148966Y-161156D02*
X148166Y-159556D01*
X149766D01*
X148966Y-161156D01*
X151466Y-166156D02*
X150666Y-164556D01*
X152266D01*
X151466Y-166156D01*
X148966Y-171156D02*
X148166Y-169556D01*
X149766D01*
X148966Y-171156D01*
X151466Y-176156D02*
X150666Y-174556D01*
X152266D01*
X151466Y-176156D01*
X148966Y-181156D02*
X148166Y-179556D01*
X149766D01*
X148966Y-181156D01*
X151466Y-186156D02*
X150666Y-184556D01*
X152266D01*
X151466Y-186156D01*
X148966Y-191156D02*
X148166Y-189556D01*
X149766D01*
X148966Y-191156D01*
X151466Y-196156D02*
X150666Y-194556D01*
X152266D01*
X151466Y-196156D01*
X148966Y-201156D02*
X148166Y-199556D01*
X149766D01*
X148966Y-201156D01*
X151466Y-206156D02*
X150666Y-204556D01*
X152266D01*
X151466Y-206156D01*
X148966Y-211156D02*
X148166Y-209556D01*
X149766D01*
X148966Y-211156D01*
X151466Y-216156D02*
X150666Y-214556D01*
X152266D01*
X151466Y-216156D01*
X148966Y-221156D02*
X148166Y-219556D01*
X149766D01*
X148966Y-221156D01*
X151466Y-226156D02*
X150666Y-224556D01*
X152266D01*
X151466Y-226156D01*
X148966Y-231156D02*
X148166Y-229556D01*
X149766D01*
X148966Y-231156D01*
X151466Y-236156D02*
X150666Y-234556D01*
X152266D01*
X151466Y-236156D01*
X146466Y-6156D02*
X145666Y-4556D01*
X147266D01*
X146466Y-6156D01*
X143966Y-11156D02*
X143166Y-9556D01*
X144766D01*
X143966Y-11156D01*
X146466Y-16156D02*
X145666Y-14556D01*
X147266D01*
X146466Y-16156D01*
X143966Y-21156D02*
X143166Y-19556D01*
X144766D01*
X143966Y-21156D01*
Y-191156D02*
X143166Y-189556D01*
X144766D01*
X143966Y-191156D01*
X146466Y-196156D02*
X145666Y-194556D01*
X147266D01*
X146466Y-196156D01*
X143966Y-201156D02*
X143166Y-199556D01*
X144766D01*
X143966Y-201156D01*
X146466Y-206156D02*
X145666Y-204556D01*
X147266D01*
X146466Y-206156D01*
X143966Y-211156D02*
X143166Y-209556D01*
X144766D01*
X143966Y-211156D01*
X146466Y-216156D02*
X145666Y-214556D01*
X147266D01*
X146466Y-216156D01*
X143966Y-221156D02*
X143166Y-219556D01*
X144766D01*
X143966Y-221156D01*
X146466Y-226156D02*
X145666Y-224556D01*
X147266D01*
X146466Y-226156D01*
X143966Y-231156D02*
X143166Y-229556D01*
X144766D01*
X143966Y-231156D01*
X146466Y-236156D02*
X145666Y-234556D01*
X147266D01*
X146466Y-236156D01*
X143966Y-241156D02*
X143166Y-239556D01*
X144766D01*
X143966Y-241156D01*
Y-251156D02*
X143166Y-249556D01*
X144766D01*
X143966Y-251156D01*
X141466Y-6156D02*
X140666Y-4556D01*
X142266D01*
X141466Y-6156D01*
X138966Y-11156D02*
X138166Y-9556D01*
X139766D01*
X138966Y-11156D01*
X141466Y-16156D02*
X140666Y-14556D01*
X142266D01*
X141466Y-16156D01*
X138966Y-31156D02*
X138166Y-29556D01*
X139766D01*
X138966Y-31156D01*
X141466Y-36156D02*
X140666Y-34556D01*
X142266D01*
X141466Y-36156D01*
X138966Y-191156D02*
X138166Y-189556D01*
X139766D01*
X138966Y-191156D01*
X141466Y-196156D02*
X140666Y-194556D01*
X142266D01*
X141466Y-196156D01*
X138966Y-201156D02*
X138166Y-199556D01*
X139766D01*
X138966Y-201156D01*
X141466Y-206156D02*
X140666Y-204556D01*
X142266D01*
X141466Y-206156D01*
X138966Y-211156D02*
X138166Y-209556D01*
X139766D01*
X138966Y-211156D01*
X141466Y-216156D02*
X140666Y-214556D01*
X142266D01*
X141466Y-216156D01*
X138966Y-221156D02*
X138166Y-219556D01*
X139766D01*
X138966Y-221156D01*
X141466Y-226156D02*
X140666Y-224556D01*
X142266D01*
X141466Y-226156D01*
X138966Y-231156D02*
X138166Y-229556D01*
X139766D01*
X138966Y-231156D01*
X141466Y-236156D02*
X140666Y-234556D01*
X142266D01*
X141466Y-236156D01*
X138966Y-241156D02*
X138166Y-239556D01*
X139766D01*
X138966Y-241156D01*
X141466Y-246156D02*
X140666Y-244556D01*
X142266D01*
X141466Y-246156D01*
X138966Y-251156D02*
X138166Y-249556D01*
X139766D01*
X138966Y-251156D01*
X136466Y-6156D02*
X135666Y-4556D01*
X137266D01*
X136466Y-6156D01*
X133966Y-11156D02*
X133166Y-9556D01*
X134766D01*
X133966Y-11156D01*
X136466Y-26156D02*
X135666Y-24556D01*
X137266D01*
X136466Y-26156D01*
X133966Y-31156D02*
X133166Y-29556D01*
X134766D01*
X133966Y-31156D01*
X136466Y-36156D02*
X135666Y-34556D01*
X137266D01*
X136466Y-36156D01*
X133966Y-41156D02*
X133166Y-39556D01*
X134766D01*
X133966Y-41156D01*
Y-51156D02*
X133166Y-49556D01*
X134766D01*
X133966Y-51156D01*
Y-61156D02*
X133166Y-59556D01*
X134766D01*
X133966Y-61156D01*
Y-71156D02*
X133166Y-69556D01*
X134766D01*
X133966Y-71156D01*
Y-81156D02*
X133166Y-79556D01*
X134766D01*
X133966Y-81156D01*
Y-91156D02*
X133166Y-89556D01*
X134766D01*
X133966Y-91156D01*
Y-101156D02*
X133166Y-99556D01*
X134766D01*
X133966Y-101156D01*
Y-151156D02*
X133166Y-149556D01*
X134766D01*
X133966Y-151156D01*
Y-161156D02*
X133166Y-159556D01*
X134766D01*
X133966Y-161156D01*
Y-171156D02*
X133166Y-169556D01*
X134766D01*
X133966Y-171156D01*
Y-181156D02*
X133166Y-179556D01*
X134766D01*
X133966Y-181156D01*
Y-191156D02*
X133166Y-189556D01*
X134766D01*
X133966Y-191156D01*
X136466Y-196156D02*
X135666Y-194556D01*
X137266D01*
X136466Y-196156D01*
X133966Y-201156D02*
X133166Y-199556D01*
X134766D01*
X133966Y-201156D01*
X136466Y-206156D02*
X135666Y-204556D01*
X137266D01*
X136466Y-206156D01*
X133966Y-211156D02*
X133166Y-209556D01*
X134766D01*
X133966Y-211156D01*
X136466Y-216156D02*
X135666Y-214556D01*
X137266D01*
X136466Y-216156D01*
X133966Y-221156D02*
X133166Y-219556D01*
X134766D01*
X133966Y-221156D01*
X136466Y-226156D02*
X135666Y-224556D01*
X137266D01*
X136466Y-226156D01*
X133966Y-231156D02*
X133166Y-229556D01*
X134766D01*
X133966Y-231156D01*
X136466Y-236156D02*
X135666Y-234556D01*
X137266D01*
X136466Y-236156D01*
X133966Y-241156D02*
X133166Y-239556D01*
X134766D01*
X133966Y-241156D01*
X136466Y-246156D02*
X135666Y-244556D01*
X137266D01*
X136466Y-246156D01*
X133966Y-251156D02*
X133166Y-249556D01*
X134766D01*
X133966Y-251156D01*
X131466Y-6156D02*
X130666Y-4556D01*
X132266D01*
X131466Y-6156D01*
X128966Y-21156D02*
X128166Y-19556D01*
X129766D01*
X128966Y-21156D01*
X131466Y-26156D02*
X130666Y-24556D01*
X132266D01*
X131466Y-26156D01*
X128966Y-31156D02*
X128166Y-29556D01*
X129766D01*
X128966Y-31156D01*
X131466Y-36156D02*
X130666Y-34556D01*
X132266D01*
X131466Y-36156D01*
X128966Y-41156D02*
X128166Y-39556D01*
X129766D01*
X128966Y-41156D01*
X131466Y-46156D02*
X130666Y-44556D01*
X132266D01*
X131466Y-46156D01*
X128966Y-51156D02*
X128166Y-49556D01*
X129766D01*
X128966Y-51156D01*
X131466Y-56156D02*
X130666Y-54556D01*
X132266D01*
X131466Y-56156D01*
X128966Y-61156D02*
X128166Y-59556D01*
X129766D01*
X128966Y-61156D01*
X131466Y-66156D02*
X130666Y-64556D01*
X132266D01*
X131466Y-66156D01*
X128966Y-71156D02*
X128166Y-69556D01*
X129766D01*
X128966Y-71156D01*
X131466Y-76156D02*
X130666Y-74556D01*
X132266D01*
X131466Y-76156D01*
X128966Y-81156D02*
X128166Y-79556D01*
X129766D01*
X128966Y-81156D01*
X131466Y-86156D02*
X130666Y-84556D01*
X132266D01*
X131466Y-86156D01*
X128966Y-91156D02*
X128166Y-89556D01*
X129766D01*
X128966Y-91156D01*
X131466Y-96156D02*
X130666Y-94556D01*
X132266D01*
X131466Y-96156D01*
X128966Y-101156D02*
X128166Y-99556D01*
X129766D01*
X128966Y-101156D01*
Y-141156D02*
X128166Y-139556D01*
X129766D01*
X128966Y-141156D01*
Y-151156D02*
X128166Y-149556D01*
X129766D01*
X128966Y-151156D01*
X131466Y-156156D02*
X130666Y-154556D01*
X132266D01*
X131466Y-156156D01*
X128966Y-161156D02*
X128166Y-159556D01*
X129766D01*
X128966Y-161156D01*
X131466Y-166156D02*
X130666Y-164556D01*
X132266D01*
X131466Y-166156D01*
X128966Y-171156D02*
X128166Y-169556D01*
X129766D01*
X128966Y-171156D01*
X131466Y-176156D02*
X130666Y-174556D01*
X132266D01*
X131466Y-176156D01*
X128966Y-181156D02*
X128166Y-179556D01*
X129766D01*
X128966Y-181156D01*
X131466Y-186156D02*
X130666Y-184556D01*
X132266D01*
X131466Y-186156D01*
X128966Y-191156D02*
X128166Y-189556D01*
X129766D01*
X128966Y-191156D01*
X131466Y-196156D02*
X130666Y-194556D01*
X132266D01*
X131466Y-196156D01*
X128966Y-201156D02*
X128166Y-199556D01*
X129766D01*
X128966Y-201156D01*
X131466Y-206156D02*
X130666Y-204556D01*
X132266D01*
X131466Y-206156D01*
X128966Y-211156D02*
X128166Y-209556D01*
X129766D01*
X128966Y-211156D01*
X131466Y-216156D02*
X130666Y-214556D01*
X132266D01*
X131466Y-216156D01*
X128966Y-221156D02*
X128166Y-219556D01*
X129766D01*
X128966Y-221156D01*
X131466Y-226156D02*
X130666Y-224556D01*
X132266D01*
X131466Y-226156D01*
X128966Y-231156D02*
X128166Y-229556D01*
X129766D01*
X128966Y-231156D01*
X131466Y-236156D02*
X130666Y-234556D01*
X132266D01*
X131466Y-236156D01*
X128966Y-241156D02*
X128166Y-239556D01*
X129766D01*
X128966Y-241156D01*
X131466Y-246156D02*
X130666Y-244556D01*
X132266D01*
X131466Y-246156D01*
X128966Y-251156D02*
X128166Y-249556D01*
X129766D01*
X128966Y-251156D01*
X126466Y-6156D02*
X125666Y-4556D01*
X127266D01*
X126466Y-6156D01*
X123966Y-21156D02*
X123166Y-19556D01*
X124766D01*
X123966Y-21156D01*
X126466Y-26156D02*
X125666Y-24556D01*
X127266D01*
X126466Y-26156D01*
Y-76156D02*
X125666Y-74556D01*
X127266D01*
X126466Y-76156D01*
X123966Y-81156D02*
X123166Y-79556D01*
X124766D01*
X123966Y-81156D01*
X126466Y-86156D02*
X125666Y-84556D01*
X127266D01*
X126466Y-86156D01*
X123966Y-91156D02*
X123166Y-89556D01*
X124766D01*
X123966Y-91156D01*
X126466Y-96156D02*
X125666Y-94556D01*
X127266D01*
X126466Y-96156D01*
X123966Y-101156D02*
X123166Y-99556D01*
X124766D01*
X123966Y-101156D01*
Y-111156D02*
X123166Y-109556D01*
X124766D01*
X123966Y-111156D01*
Y-121156D02*
X123166Y-119556D01*
X124766D01*
X123966Y-121156D01*
Y-131156D02*
X123166Y-129556D01*
X124766D01*
X123966Y-131156D01*
X126466Y-156156D02*
X125666Y-154556D01*
X127266D01*
X126466Y-156156D01*
X123966Y-161156D02*
X123166Y-159556D01*
X124766D01*
X123966Y-161156D01*
X126466Y-166156D02*
X125666Y-164556D01*
X127266D01*
X126466Y-166156D01*
X123966Y-171156D02*
X123166Y-169556D01*
X124766D01*
X123966Y-171156D01*
X126466Y-176156D02*
X125666Y-174556D01*
X127266D01*
X126466Y-176156D01*
X123966Y-181156D02*
X123166Y-179556D01*
X124766D01*
X123966Y-181156D01*
X126466Y-186156D02*
X125666Y-184556D01*
X127266D01*
X126466Y-186156D01*
X123966Y-191156D02*
X123166Y-189556D01*
X124766D01*
X123966Y-191156D01*
X126466Y-196156D02*
X125666Y-194556D01*
X127266D01*
X126466Y-196156D01*
X123966Y-201156D02*
X123166Y-199556D01*
X124766D01*
X123966Y-201156D01*
X126466Y-206156D02*
X125666Y-204556D01*
X127266D01*
X126466Y-206156D01*
X123966Y-211156D02*
X123166Y-209556D01*
X124766D01*
X123966Y-211156D01*
X126466Y-216156D02*
X125666Y-214556D01*
X127266D01*
X126466Y-216156D01*
X123966Y-221156D02*
X123166Y-219556D01*
X124766D01*
X123966Y-221156D01*
X126466Y-226156D02*
X125666Y-224556D01*
X127266D01*
X126466Y-226156D01*
X123966Y-231156D02*
X123166Y-229556D01*
X124766D01*
X123966Y-231156D01*
X126466Y-236156D02*
X125666Y-234556D01*
X127266D01*
X126466Y-236156D01*
X123966Y-241156D02*
X123166Y-239556D01*
X124766D01*
X123966Y-241156D01*
X126466Y-246156D02*
X125666Y-244556D01*
X127266D01*
X126466Y-246156D01*
X123966Y-251156D02*
X123166Y-249556D01*
X124766D01*
X123966Y-251156D01*
X121466Y-6156D02*
X120666Y-4556D01*
X122266D01*
X121466Y-6156D01*
X118966Y-21156D02*
X118166Y-19556D01*
X119766D01*
X118966Y-21156D01*
X121466Y-26156D02*
X120666Y-24556D01*
X122266D01*
X121466Y-26156D01*
X118966Y-81156D02*
X118166Y-79556D01*
X119766D01*
X118966Y-81156D01*
X121466Y-86156D02*
X120666Y-84556D01*
X122266D01*
X121466Y-86156D01*
X118966Y-91156D02*
X118166Y-89556D01*
X119766D01*
X118966Y-91156D01*
X121466Y-96156D02*
X120666Y-94556D01*
X122266D01*
X121466Y-96156D01*
X118966Y-101156D02*
X118166Y-99556D01*
X119766D01*
X118966Y-101156D01*
Y-111156D02*
X118166Y-109556D01*
X119766D01*
X118966Y-111156D01*
X121466Y-116156D02*
X120666Y-114556D01*
X122266D01*
X121466Y-116156D01*
X118966Y-121156D02*
X118166Y-119556D01*
X119766D01*
X118966Y-121156D01*
Y-131156D02*
X118166Y-129556D01*
X119766D01*
X118966Y-131156D01*
X121466Y-136156D02*
X120666Y-134556D01*
X122266D01*
X121466Y-136156D01*
X118966Y-141156D02*
X118166Y-139556D01*
X119766D01*
X118966Y-141156D01*
Y-151156D02*
X118166Y-149556D01*
X119766D01*
X118966Y-151156D01*
Y-161156D02*
X118166Y-159556D01*
X119766D01*
X118966Y-161156D01*
X121466Y-166156D02*
X120666Y-164556D01*
X122266D01*
X121466Y-166156D01*
X118966Y-171156D02*
X118166Y-169556D01*
X119766D01*
X118966Y-171156D01*
X121466Y-176156D02*
X120666Y-174556D01*
X122266D01*
X121466Y-176156D01*
X118966Y-181156D02*
X118166Y-179556D01*
X119766D01*
X118966Y-181156D01*
X121466Y-186156D02*
X120666Y-184556D01*
X122266D01*
X121466Y-186156D01*
X118966Y-191156D02*
X118166Y-189556D01*
X119766D01*
X118966Y-191156D01*
X121466Y-196156D02*
X120666Y-194556D01*
X122266D01*
X121466Y-196156D01*
X118966Y-201156D02*
X118166Y-199556D01*
X119766D01*
X118966Y-201156D01*
X121466Y-206156D02*
X120666Y-204556D01*
X122266D01*
X121466Y-206156D01*
X118966Y-211156D02*
X118166Y-209556D01*
X119766D01*
X118966Y-211156D01*
X121466Y-216156D02*
X120666Y-214556D01*
X122266D01*
X121466Y-216156D01*
X118966Y-221156D02*
X118166Y-219556D01*
X119766D01*
X118966Y-221156D01*
X121466Y-226156D02*
X120666Y-224556D01*
X122266D01*
X121466Y-226156D01*
X118966Y-231156D02*
X118166Y-229556D01*
X119766D01*
X118966Y-231156D01*
X121466Y-236156D02*
X120666Y-234556D01*
X122266D01*
X121466Y-236156D01*
X118966Y-241156D02*
X118166Y-239556D01*
X119766D01*
X118966Y-241156D01*
X121466Y-246156D02*
X120666Y-244556D01*
X122266D01*
X121466Y-246156D01*
X118966Y-251156D02*
X118166Y-249556D01*
X119766D01*
X118966Y-251156D01*
X116466Y-6156D02*
X115666Y-4556D01*
X117266D01*
X116466Y-6156D01*
X113966Y-21156D02*
X113166Y-19556D01*
X114766D01*
X113966Y-21156D01*
X116466Y-26156D02*
X115666Y-24556D01*
X117266D01*
X116466Y-26156D01*
X113966Y-81156D02*
X113166Y-79556D01*
X114766D01*
X113966Y-81156D01*
X116466Y-86156D02*
X115666Y-84556D01*
X117266D01*
X116466Y-86156D01*
X113966Y-91156D02*
X113166Y-89556D01*
X114766D01*
X113966Y-91156D01*
X116466Y-96156D02*
X115666Y-94556D01*
X117266D01*
X116466Y-96156D01*
X113966Y-101156D02*
X113166Y-99556D01*
X114766D01*
X113966Y-101156D01*
Y-111156D02*
X113166Y-109556D01*
X114766D01*
X113966Y-111156D01*
X116466Y-116156D02*
X115666Y-114556D01*
X117266D01*
X116466Y-116156D01*
X113966Y-121156D02*
X113166Y-119556D01*
X114766D01*
X113966Y-121156D01*
Y-131156D02*
X113166Y-129556D01*
X114766D01*
X113966Y-131156D01*
X116466Y-136156D02*
X115666Y-134556D01*
X117266D01*
X116466Y-136156D01*
X113966Y-141156D02*
X113166Y-139556D01*
X114766D01*
X113966Y-141156D01*
X116466Y-166156D02*
X115666Y-164556D01*
X117266D01*
X116466Y-166156D01*
X113966Y-171156D02*
X113166Y-169556D01*
X114766D01*
X113966Y-171156D01*
X116466Y-176156D02*
X115666Y-174556D01*
X117266D01*
X116466Y-176156D01*
X113966Y-181156D02*
X113166Y-179556D01*
X114766D01*
X113966Y-181156D01*
X116466Y-186156D02*
X115666Y-184556D01*
X117266D01*
X116466Y-186156D01*
X113966Y-191156D02*
X113166Y-189556D01*
X114766D01*
X113966Y-191156D01*
X116466Y-196156D02*
X115666Y-194556D01*
X117266D01*
X116466Y-196156D01*
X113966Y-201156D02*
X113166Y-199556D01*
X114766D01*
X113966Y-201156D01*
X116466Y-206156D02*
X115666Y-204556D01*
X117266D01*
X116466Y-206156D01*
X113966Y-211156D02*
X113166Y-209556D01*
X114766D01*
X113966Y-211156D01*
X116466Y-216156D02*
X115666Y-214556D01*
X117266D01*
X116466Y-216156D01*
X113966Y-221156D02*
X113166Y-219556D01*
X114766D01*
X113966Y-221156D01*
X116466Y-226156D02*
X115666Y-224556D01*
X117266D01*
X116466Y-226156D01*
Y-236156D02*
X115666Y-234556D01*
X117266D01*
X116466Y-236156D01*
Y-246156D02*
X115666Y-244556D01*
X117266D01*
X116466Y-246156D01*
X113966Y-251156D02*
X113166Y-249556D01*
X114766D01*
X113966Y-251156D01*
X111466Y-6156D02*
X110666Y-4556D01*
X112266D01*
X111466Y-6156D01*
X108966Y-21156D02*
X108166Y-19556D01*
X109766D01*
X108966Y-21156D01*
X111466Y-26156D02*
X110666Y-24556D01*
X112266D01*
X111466Y-26156D01*
Y-76156D02*
X110666Y-74556D01*
X112266D01*
X111466Y-76156D01*
Y-86156D02*
X110666Y-84556D01*
X112266D01*
X111466Y-86156D01*
X108966Y-91156D02*
X108166Y-89556D01*
X109766D01*
X108966Y-91156D01*
X111466Y-96156D02*
X110666Y-94556D01*
X112266D01*
X111466Y-96156D01*
X108966Y-101156D02*
X108166Y-99556D01*
X109766D01*
X108966Y-101156D01*
X111466Y-116156D02*
X110666Y-114556D01*
X112266D01*
X111466Y-116156D01*
X108966Y-131156D02*
X108166Y-129556D01*
X109766D01*
X108966Y-131156D01*
X111466Y-136156D02*
X110666Y-134556D01*
X112266D01*
X111466Y-136156D01*
X108966Y-141156D02*
X108166Y-139556D01*
X109766D01*
X108966Y-141156D01*
X111466Y-146156D02*
X110666Y-144556D01*
X112266D01*
X111466Y-146156D01*
X108966Y-151156D02*
X108166Y-149556D01*
X109766D01*
X108966Y-151156D01*
Y-161156D02*
X108166Y-159556D01*
X109766D01*
X108966Y-161156D01*
Y-171156D02*
X108166Y-169556D01*
X109766D01*
X108966Y-171156D01*
X111466Y-176156D02*
X110666Y-174556D01*
X112266D01*
X111466Y-176156D01*
X108966Y-181156D02*
X108166Y-179556D01*
X109766D01*
X108966Y-181156D01*
X111466Y-186156D02*
X110666Y-184556D01*
X112266D01*
X111466Y-186156D01*
X108966Y-191156D02*
X108166Y-189556D01*
X109766D01*
X108966Y-191156D01*
X111466Y-196156D02*
X110666Y-194556D01*
X112266D01*
X111466Y-196156D01*
X108966Y-201156D02*
X108166Y-199556D01*
X109766D01*
X108966Y-201156D01*
X111466Y-206156D02*
X110666Y-204556D01*
X112266D01*
X111466Y-206156D01*
X108966Y-211156D02*
X108166Y-209556D01*
X109766D01*
X108966Y-211156D01*
X111466Y-216156D02*
X110666Y-214556D01*
X112266D01*
X111466Y-216156D01*
X108966Y-221156D02*
X108166Y-219556D01*
X109766D01*
X108966Y-221156D01*
X111466Y-246156D02*
X110666Y-244556D01*
X112266D01*
X111466Y-246156D01*
X108966Y-251156D02*
X108166Y-249556D01*
X109766D01*
X108966Y-251156D01*
X106466Y-6156D02*
X105666Y-4556D01*
X107266D01*
X106466Y-6156D01*
X103966Y-21156D02*
X103166Y-19556D01*
X104766D01*
X103966Y-21156D01*
X106466Y-26156D02*
X105666Y-24556D01*
X107266D01*
X106466Y-26156D01*
X103966Y-61156D02*
X103166Y-59556D01*
X104766D01*
X103966Y-61156D01*
Y-91156D02*
X103166Y-89556D01*
X104766D01*
X103966Y-91156D01*
X106466Y-96156D02*
X105666Y-94556D01*
X107266D01*
X106466Y-96156D01*
X103966Y-101156D02*
X103166Y-99556D01*
X104766D01*
X103966Y-101156D01*
X106466Y-106156D02*
X105666Y-104556D01*
X107266D01*
X106466Y-106156D01*
Y-116156D02*
X105666Y-114556D01*
X107266D01*
X106466Y-116156D01*
X103966Y-121156D02*
X103166Y-119556D01*
X104766D01*
X103966Y-121156D01*
X106466Y-126156D02*
X105666Y-124556D01*
X107266D01*
X106466Y-126156D01*
X103966Y-131156D02*
X103166Y-129556D01*
X104766D01*
X103966Y-131156D01*
X106466Y-136156D02*
X105666Y-134556D01*
X107266D01*
X106466Y-136156D01*
X103966Y-141156D02*
X103166Y-139556D01*
X104766D01*
X103966Y-141156D01*
X106466Y-146156D02*
X105666Y-144556D01*
X107266D01*
X106466Y-146156D01*
X103966Y-151156D02*
X103166Y-149556D01*
X104766D01*
X103966Y-151156D01*
X106466Y-176156D02*
X105666Y-174556D01*
X107266D01*
X106466Y-176156D01*
X103966Y-181156D02*
X103166Y-179556D01*
X104766D01*
X103966Y-181156D01*
X106466Y-186156D02*
X105666Y-184556D01*
X107266D01*
X106466Y-186156D01*
X103966Y-191156D02*
X103166Y-189556D01*
X104766D01*
X103966Y-191156D01*
X106466Y-196156D02*
X105666Y-194556D01*
X107266D01*
X106466Y-196156D01*
X103966Y-201156D02*
X103166Y-199556D01*
X104766D01*
X103966Y-201156D01*
X106466Y-206156D02*
X105666Y-204556D01*
X107266D01*
X106466Y-206156D01*
X103966Y-211156D02*
X103166Y-209556D01*
X104766D01*
X103966Y-211156D01*
X106466Y-216156D02*
X105666Y-214556D01*
X107266D01*
X106466Y-216156D01*
X103966Y-221156D02*
X103166Y-219556D01*
X104766D01*
X103966Y-221156D01*
Y-231156D02*
X103166Y-229556D01*
X104766D01*
X103966Y-231156D01*
Y-241156D02*
X103166Y-239556D01*
X104766D01*
X103966Y-241156D01*
X106466Y-246156D02*
X105666Y-244556D01*
X107266D01*
X106466Y-246156D01*
X103966Y-251156D02*
X103166Y-249556D01*
X104766D01*
X103966Y-251156D01*
X101466Y-6156D02*
X100666Y-4556D01*
X102266D01*
X101466Y-6156D01*
X98966Y-21156D02*
X98166Y-19556D01*
X99766D01*
X98966Y-21156D01*
X101466Y-26156D02*
X100666Y-24556D01*
X102266D01*
X101466Y-26156D01*
Y-126156D02*
X100666Y-124556D01*
X102266D01*
X101466Y-126156D01*
X98966Y-131156D02*
X98166Y-129556D01*
X99766D01*
X98966Y-131156D01*
X101466Y-136156D02*
X100666Y-134556D01*
X102266D01*
X101466Y-136156D01*
X98966Y-141156D02*
X98166Y-139556D01*
X99766D01*
X98966Y-141156D01*
X101466Y-146156D02*
X100666Y-144556D01*
X102266D01*
X101466Y-146156D01*
X98966Y-151156D02*
X98166Y-149556D01*
X99766D01*
X98966Y-151156D01*
X101466Y-156156D02*
X100666Y-154556D01*
X102266D01*
X101466Y-156156D01*
X98966Y-161156D02*
X98166Y-159556D01*
X99766D01*
X98966Y-161156D01*
Y-171156D02*
X98166Y-169556D01*
X99766D01*
X98966Y-171156D01*
Y-181156D02*
X98166Y-179556D01*
X99766D01*
X98966Y-181156D01*
X101466Y-186156D02*
X100666Y-184556D01*
X102266D01*
X101466Y-186156D01*
X98966Y-191156D02*
X98166Y-189556D01*
X99766D01*
X98966Y-191156D01*
X101466Y-196156D02*
X100666Y-194556D01*
X102266D01*
X101466Y-196156D01*
X98966Y-201156D02*
X98166Y-199556D01*
X99766D01*
X98966Y-201156D01*
X101466Y-206156D02*
X100666Y-204556D01*
X102266D01*
X101466Y-206156D01*
X98966Y-211156D02*
X98166Y-209556D01*
X99766D01*
X98966Y-211156D01*
X101466Y-216156D02*
X100666Y-214556D01*
X102266D01*
X101466Y-216156D01*
X98966Y-221156D02*
X98166Y-219556D01*
X99766D01*
X98966Y-221156D01*
X101466Y-246156D02*
X100666Y-244556D01*
X102266D01*
X101466Y-246156D01*
X98966Y-251156D02*
X98166Y-249556D01*
X99766D01*
X98966Y-251156D01*
X96466Y-6156D02*
X95666Y-4556D01*
X97266D01*
X96466Y-6156D01*
X93966Y-21156D02*
X93166Y-19556D01*
X94766D01*
X93966Y-21156D01*
X96466Y-26156D02*
X95666Y-24556D01*
X97266D01*
X96466Y-26156D01*
Y-126156D02*
X95666Y-124556D01*
X97266D01*
X96466Y-126156D01*
X93966Y-131156D02*
X93166Y-129556D01*
X94766D01*
X93966Y-131156D01*
X96466Y-136156D02*
X95666Y-134556D01*
X97266D01*
X96466Y-136156D01*
X93966Y-141156D02*
X93166Y-139556D01*
X94766D01*
X93966Y-141156D01*
X96466Y-146156D02*
X95666Y-144556D01*
X97266D01*
X96466Y-146156D01*
X93966Y-151156D02*
X93166Y-149556D01*
X94766D01*
X93966Y-151156D01*
X96466Y-156156D02*
X95666Y-154556D01*
X97266D01*
X96466Y-156156D01*
X93966Y-161156D02*
X93166Y-159556D01*
X94766D01*
X93966Y-161156D01*
X96466Y-186156D02*
X95666Y-184556D01*
X97266D01*
X96466Y-186156D01*
X93966Y-191156D02*
X93166Y-189556D01*
X94766D01*
X93966Y-191156D01*
X96466Y-196156D02*
X95666Y-194556D01*
X97266D01*
X96466Y-196156D01*
X93966Y-201156D02*
X93166Y-199556D01*
X94766D01*
X93966Y-201156D01*
X96466Y-206156D02*
X95666Y-204556D01*
X97266D01*
X96466Y-206156D01*
X93966Y-211156D02*
X93166Y-209556D01*
X94766D01*
X93966Y-211156D01*
X96466Y-216156D02*
X95666Y-214556D01*
X97266D01*
X96466Y-216156D01*
Y-246156D02*
X95666Y-244556D01*
X97266D01*
X96466Y-246156D01*
X93966Y-251156D02*
X93166Y-249556D01*
X94766D01*
X93966Y-251156D01*
X91466Y-6156D02*
X90666Y-4556D01*
X92266D01*
X91466Y-6156D01*
X88966Y-21156D02*
X88166Y-19556D01*
X89766D01*
X88966Y-21156D01*
X91466Y-26156D02*
X90666Y-24556D01*
X92266D01*
X91466Y-26156D01*
X88966Y-71156D02*
X88166Y-69556D01*
X89766D01*
X88966Y-71156D01*
X91466Y-76156D02*
X90666Y-74556D01*
X92266D01*
X91466Y-76156D01*
X88966Y-91156D02*
X88166Y-89556D01*
X89766D01*
X88966Y-91156D01*
Y-101156D02*
X88166Y-99556D01*
X89766D01*
X88966Y-101156D01*
Y-111156D02*
X88166Y-109556D01*
X89766D01*
X88966Y-111156D01*
Y-121156D02*
X88166Y-119556D01*
X89766D01*
X88966Y-121156D01*
X91466Y-126156D02*
X90666Y-124556D01*
X92266D01*
X91466Y-126156D01*
X88966Y-131156D02*
X88166Y-129556D01*
X89766D01*
X88966Y-131156D01*
X91466Y-136156D02*
X90666Y-134556D01*
X92266D01*
X91466Y-136156D01*
X88966Y-141156D02*
X88166Y-139556D01*
X89766D01*
X88966Y-141156D01*
X91466Y-146156D02*
X90666Y-144556D01*
X92266D01*
X91466Y-146156D01*
X88966Y-151156D02*
X88166Y-149556D01*
X89766D01*
X88966Y-151156D01*
X91466Y-156156D02*
X90666Y-154556D01*
X92266D01*
X91466Y-156156D01*
X88966Y-161156D02*
X88166Y-159556D01*
X89766D01*
X88966Y-161156D01*
X91466Y-166156D02*
X90666Y-164556D01*
X92266D01*
X91466Y-166156D01*
X88966Y-171156D02*
X88166Y-169556D01*
X89766D01*
X88966Y-171156D01*
Y-181156D02*
X88166Y-179556D01*
X89766D01*
X88966Y-181156D01*
Y-191156D02*
X88166Y-189556D01*
X89766D01*
X88966Y-191156D01*
X91466Y-196156D02*
X90666Y-194556D01*
X92266D01*
X91466Y-196156D01*
X88966Y-201156D02*
X88166Y-199556D01*
X89766D01*
X88966Y-201156D01*
X91466Y-206156D02*
X90666Y-204556D01*
X92266D01*
X91466Y-206156D01*
X88966Y-211156D02*
X88166Y-209556D01*
X89766D01*
X88966Y-211156D01*
X91466Y-216156D02*
X90666Y-214556D01*
X92266D01*
X91466Y-216156D01*
X88966Y-221156D02*
X88166Y-219556D01*
X89766D01*
X88966Y-221156D01*
X91466Y-246156D02*
X90666Y-244556D01*
X92266D01*
X91466Y-246156D01*
X88966Y-251156D02*
X88166Y-249556D01*
X89766D01*
X88966Y-251156D01*
X86466Y-6156D02*
X85666Y-4556D01*
X87266D01*
X86466Y-6156D01*
X83966Y-21156D02*
X83166Y-19556D01*
X84766D01*
X83966Y-21156D01*
X86466Y-26156D02*
X85666Y-24556D01*
X87266D01*
X86466Y-26156D01*
X83966Y-61156D02*
X83166Y-59556D01*
X84766D01*
X83966Y-61156D01*
Y-71156D02*
X83166Y-69556D01*
X84766D01*
X83966Y-71156D01*
Y-81156D02*
X83166Y-79556D01*
X84766D01*
X83966Y-81156D01*
X86466Y-86156D02*
X85666Y-84556D01*
X87266D01*
X86466Y-86156D01*
X83966Y-91156D02*
X83166Y-89556D01*
X84766D01*
X83966Y-91156D01*
X86466Y-96156D02*
X85666Y-94556D01*
X87266D01*
X86466Y-96156D01*
X83966Y-101156D02*
X83166Y-99556D01*
X84766D01*
X83966Y-101156D01*
X86466Y-106156D02*
X85666Y-104556D01*
X87266D01*
X86466Y-106156D01*
X83966Y-111156D02*
X83166Y-109556D01*
X84766D01*
X83966Y-111156D01*
X86466Y-116156D02*
X85666Y-114556D01*
X87266D01*
X86466Y-116156D01*
X83966Y-121156D02*
X83166Y-119556D01*
X84766D01*
X83966Y-121156D01*
X86466Y-126156D02*
X85666Y-124556D01*
X87266D01*
X86466Y-126156D01*
X83966Y-131156D02*
X83166Y-129556D01*
X84766D01*
X83966Y-131156D01*
X86466Y-136156D02*
X85666Y-134556D01*
X87266D01*
X86466Y-136156D01*
X83966Y-141156D02*
X83166Y-139556D01*
X84766D01*
X83966Y-141156D01*
X86466Y-146156D02*
X85666Y-144556D01*
X87266D01*
X86466Y-146156D01*
X83966Y-151156D02*
X83166Y-149556D01*
X84766D01*
X83966Y-151156D01*
X86466Y-156156D02*
X85666Y-154556D01*
X87266D01*
X86466Y-156156D01*
X83966Y-161156D02*
X83166Y-159556D01*
X84766D01*
X83966Y-161156D01*
X86466Y-166156D02*
X85666Y-164556D01*
X87266D01*
X86466Y-166156D01*
X83966Y-171156D02*
X83166Y-169556D01*
X84766D01*
X83966Y-171156D01*
X86466Y-196156D02*
X85666Y-194556D01*
X87266D01*
X86466Y-196156D01*
X83966Y-201156D02*
X83166Y-199556D01*
X84766D01*
X83966Y-201156D01*
X86466Y-206156D02*
X85666Y-204556D01*
X87266D01*
X86466Y-206156D01*
X83966Y-221156D02*
X83166Y-219556D01*
X84766D01*
X83966Y-221156D01*
X86466Y-246156D02*
X85666Y-244556D01*
X87266D01*
X86466Y-246156D01*
X83966Y-251156D02*
X83166Y-249556D01*
X84766D01*
X83966Y-251156D01*
X81466Y-6156D02*
X80666Y-4556D01*
X82266D01*
X81466Y-6156D01*
X78966Y-21156D02*
X78166Y-19556D01*
X79766D01*
X78966Y-21156D01*
X81466Y-26156D02*
X80666Y-24556D01*
X82266D01*
X81466Y-26156D01*
Y-66156D02*
X80666Y-64556D01*
X82266D01*
X81466Y-66156D01*
X78966Y-81156D02*
X78166Y-79556D01*
X79766D01*
X78966Y-81156D01*
Y-91156D02*
X78166Y-89556D01*
X79766D01*
X78966Y-91156D01*
Y-101156D02*
X78166Y-99556D01*
X79766D01*
X78966Y-101156D01*
Y-111156D02*
X78166Y-109556D01*
X79766D01*
X78966Y-111156D01*
Y-121156D02*
X78166Y-119556D01*
X79766D01*
X78966Y-121156D01*
Y-131156D02*
X78166Y-129556D01*
X79766D01*
X78966Y-131156D01*
Y-141156D02*
X78166Y-139556D01*
X79766D01*
X78966Y-141156D01*
Y-151156D02*
X78166Y-149556D01*
X79766D01*
X78966Y-151156D01*
Y-161156D02*
X78166Y-159556D01*
X79766D01*
X78966Y-161156D01*
Y-171156D02*
X78166Y-169556D01*
X79766D01*
X78966Y-171156D01*
Y-181156D02*
X78166Y-179556D01*
X79766D01*
X78966Y-181156D01*
Y-191156D02*
X78166Y-189556D01*
X79766D01*
X78966Y-191156D01*
Y-201156D02*
X78166Y-199556D01*
X79766D01*
X78966Y-201156D01*
Y-211156D02*
X78166Y-209556D01*
X79766D01*
X78966Y-211156D01*
X81466Y-216156D02*
X80666Y-214556D01*
X82266D01*
X81466Y-216156D01*
Y-246156D02*
X80666Y-244556D01*
X82266D01*
X81466Y-246156D01*
X78966Y-251156D02*
X78166Y-249556D01*
X79766D01*
X78966Y-251156D01*
X76466Y-6156D02*
X75666Y-4556D01*
X77266D01*
X76466Y-6156D01*
X73966Y-21156D02*
X73166Y-19556D01*
X74766D01*
X73966Y-21156D01*
X76466Y-26156D02*
X75666Y-24556D01*
X77266D01*
X76466Y-26156D01*
X73966Y-81156D02*
X73166Y-79556D01*
X74766D01*
X73966Y-81156D01*
X76466Y-86156D02*
X75666Y-84556D01*
X77266D01*
X76466Y-86156D01*
X73966Y-91156D02*
X73166Y-89556D01*
X74766D01*
X73966Y-91156D01*
X76466Y-96156D02*
X75666Y-94556D01*
X77266D01*
X76466Y-96156D01*
X73966Y-101156D02*
X73166Y-99556D01*
X74766D01*
X73966Y-101156D01*
X76466Y-106156D02*
X75666Y-104556D01*
X77266D01*
X76466Y-106156D01*
X73966Y-111156D02*
X73166Y-109556D01*
X74766D01*
X73966Y-111156D01*
X76466Y-116156D02*
X75666Y-114556D01*
X77266D01*
X76466Y-116156D01*
X73966Y-121156D02*
X73166Y-119556D01*
X74766D01*
X73966Y-121156D01*
X76466Y-126156D02*
X75666Y-124556D01*
X77266D01*
X76466Y-126156D01*
X73966Y-131156D02*
X73166Y-129556D01*
X74766D01*
X73966Y-131156D01*
X76466Y-136156D02*
X75666Y-134556D01*
X77266D01*
X76466Y-136156D01*
X73966Y-141156D02*
X73166Y-139556D01*
X74766D01*
X73966Y-141156D01*
X76466Y-146156D02*
X75666Y-144556D01*
X77266D01*
X76466Y-146156D01*
X73966Y-151156D02*
X73166Y-149556D01*
X74766D01*
X73966Y-151156D01*
X76466Y-156156D02*
X75666Y-154556D01*
X77266D01*
X76466Y-156156D01*
X73966Y-161156D02*
X73166Y-159556D01*
X74766D01*
X73966Y-161156D01*
X76466Y-166156D02*
X75666Y-164556D01*
X77266D01*
X76466Y-166156D01*
X73966Y-171156D02*
X73166Y-169556D01*
X74766D01*
X73966Y-171156D01*
X76466Y-176156D02*
X75666Y-174556D01*
X77266D01*
X76466Y-176156D01*
X73966Y-181156D02*
X73166Y-179556D01*
X74766D01*
X73966Y-181156D01*
X76466Y-206156D02*
X75666Y-204556D01*
X77266D01*
X76466Y-206156D01*
X73966Y-211156D02*
X73166Y-209556D01*
X74766D01*
X73966Y-211156D01*
Y-221156D02*
X73166Y-219556D01*
X74766D01*
X73966Y-221156D01*
X76466Y-226156D02*
X75666Y-224556D01*
X77266D01*
X76466Y-226156D01*
X73966Y-231156D02*
X73166Y-229556D01*
X74766D01*
X73966Y-231156D01*
X76466Y-236156D02*
X75666Y-234556D01*
X77266D01*
X76466Y-236156D01*
X73966Y-241156D02*
X73166Y-239556D01*
X74766D01*
X73966Y-241156D01*
X76466Y-246156D02*
X75666Y-244556D01*
X77266D01*
X76466Y-246156D01*
X73966Y-251156D02*
X73166Y-249556D01*
X74766D01*
X73966Y-251156D01*
X71466Y-6156D02*
X70666Y-4556D01*
X72266D01*
X71466Y-6156D01*
X68966Y-21156D02*
X68166Y-19556D01*
X69766D01*
X68966Y-21156D01*
Y-61156D02*
X68166Y-59556D01*
X69766D01*
X68966Y-61156D01*
X71466Y-86156D02*
X70666Y-84556D01*
X72266D01*
X71466Y-86156D01*
Y-96156D02*
X70666Y-94556D01*
X72266D01*
X71466Y-96156D01*
Y-106156D02*
X70666Y-104556D01*
X72266D01*
X71466Y-106156D01*
Y-116156D02*
X70666Y-114556D01*
X72266D01*
X71466Y-116156D01*
Y-126156D02*
X70666Y-124556D01*
X72266D01*
X71466Y-126156D01*
Y-136156D02*
X70666Y-134556D01*
X72266D01*
X71466Y-136156D01*
Y-146156D02*
X70666Y-144556D01*
X72266D01*
X71466Y-146156D01*
Y-156156D02*
X70666Y-154556D01*
X72266D01*
X71466Y-156156D01*
Y-166156D02*
X70666Y-164556D01*
X72266D01*
X71466Y-166156D01*
Y-176156D02*
X70666Y-174556D01*
X72266D01*
X71466Y-176156D01*
Y-186156D02*
X70666Y-184556D01*
X72266D01*
X71466Y-186156D01*
Y-196156D02*
X70666Y-194556D01*
X72266D01*
X71466Y-196156D01*
X68966Y-221156D02*
X68166Y-219556D01*
X69766D01*
X68966Y-221156D01*
X71466Y-226156D02*
X70666Y-224556D01*
X72266D01*
X71466Y-226156D01*
X68966Y-231156D02*
X68166Y-229556D01*
X69766D01*
X68966Y-231156D01*
X71466Y-236156D02*
X70666Y-234556D01*
X72266D01*
X71466Y-236156D01*
X68966Y-241156D02*
X68166Y-239556D01*
X69766D01*
X68966Y-241156D01*
X71466Y-246156D02*
X70666Y-244556D01*
X72266D01*
X71466Y-246156D01*
X68966Y-251156D02*
X68166Y-249556D01*
X69766D01*
X68966Y-251156D01*
X66466Y-6156D02*
X65666Y-4556D01*
X67266D01*
X66466Y-6156D01*
X63966Y-21156D02*
X63166Y-19556D01*
X64766D01*
X63966Y-21156D01*
Y-61156D02*
X63166Y-59556D01*
X64766D01*
X63966Y-61156D01*
X66466Y-66156D02*
X65666Y-64556D01*
X67266D01*
X66466Y-66156D01*
X63966Y-71156D02*
X63166Y-69556D01*
X64766D01*
X63966Y-71156D01*
Y-131156D02*
X63166Y-129556D01*
X64766D01*
X63966Y-131156D01*
Y-141156D02*
X63166Y-139556D01*
X64766D01*
X63966Y-141156D01*
Y-151156D02*
X63166Y-149556D01*
X64766D01*
X63966Y-151156D01*
Y-161156D02*
X63166Y-159556D01*
X64766D01*
X63966Y-161156D01*
Y-171156D02*
X63166Y-169556D01*
X64766D01*
X63966Y-171156D01*
Y-181156D02*
X63166Y-179556D01*
X64766D01*
X63966Y-181156D01*
Y-201156D02*
X63166Y-199556D01*
X64766D01*
X63966Y-201156D01*
X66466Y-216156D02*
X65666Y-214556D01*
X67266D01*
X66466Y-216156D01*
X63966Y-221156D02*
X63166Y-219556D01*
X64766D01*
X63966Y-221156D01*
X66466Y-226156D02*
X65666Y-224556D01*
X67266D01*
X66466Y-226156D01*
X63966Y-231156D02*
X63166Y-229556D01*
X64766D01*
X63966Y-231156D01*
X66466Y-236156D02*
X65666Y-234556D01*
X67266D01*
X66466Y-236156D01*
X63966Y-241156D02*
X63166Y-239556D01*
X64766D01*
X63966Y-241156D01*
X66466Y-246156D02*
X65666Y-244556D01*
X67266D01*
X66466Y-246156D01*
X63966Y-251156D02*
X63166Y-249556D01*
X64766D01*
X63966Y-251156D01*
X61466Y-6156D02*
X60666Y-4556D01*
X62266D01*
X61466Y-6156D01*
Y-66156D02*
X60666Y-64556D01*
X62266D01*
X61466Y-66156D01*
Y-76156D02*
X60666Y-74556D01*
X62266D01*
X61466Y-76156D01*
Y-126156D02*
X60666Y-124556D01*
X62266D01*
X61466Y-126156D01*
X58966Y-131156D02*
X58166Y-129556D01*
X59766D01*
X58966Y-131156D01*
X61466Y-136156D02*
X60666Y-134556D01*
X62266D01*
X61466Y-136156D01*
X58966Y-141156D02*
X58166Y-139556D01*
X59766D01*
X58966Y-141156D01*
X61466Y-146156D02*
X60666Y-144556D01*
X62266D01*
X61466Y-146156D01*
X58966Y-151156D02*
X58166Y-149556D01*
X59766D01*
X58966Y-151156D01*
X61466Y-156156D02*
X60666Y-154556D01*
X62266D01*
X61466Y-156156D01*
X58966Y-161156D02*
X58166Y-159556D01*
X59766D01*
X58966Y-161156D01*
X61466Y-166156D02*
X60666Y-164556D01*
X62266D01*
X61466Y-166156D01*
X58966Y-171156D02*
X58166Y-169556D01*
X59766D01*
X58966Y-171156D01*
X61466Y-176156D02*
X60666Y-174556D01*
X62266D01*
X61466Y-176156D01*
X58966Y-181156D02*
X58166Y-179556D01*
X59766D01*
X58966Y-181156D01*
X61466Y-186156D02*
X60666Y-184556D01*
X62266D01*
X61466Y-186156D01*
Y-196156D02*
X60666Y-194556D01*
X62266D01*
X61466Y-196156D01*
X58966Y-201156D02*
X58166Y-199556D01*
X59766D01*
X58966Y-201156D01*
X61466Y-216156D02*
X60666Y-214556D01*
X62266D01*
X61466Y-216156D01*
X58966Y-221156D02*
X58166Y-219556D01*
X59766D01*
X58966Y-221156D01*
X61466Y-226156D02*
X60666Y-224556D01*
X62266D01*
X61466Y-226156D01*
X58966Y-231156D02*
X58166Y-229556D01*
X59766D01*
X58966Y-231156D01*
X61466Y-236156D02*
X60666Y-234556D01*
X62266D01*
X61466Y-236156D01*
X58966Y-241156D02*
X58166Y-239556D01*
X59766D01*
X58966Y-241156D01*
X61466Y-246156D02*
X60666Y-244556D01*
X62266D01*
X61466Y-246156D01*
X58966Y-251156D02*
X58166Y-249556D01*
X59766D01*
X58966Y-251156D01*
X56466Y-6156D02*
X55666Y-4556D01*
X57266D01*
X56466Y-6156D01*
Y-126156D02*
X55666Y-124556D01*
X57266D01*
X56466Y-126156D01*
Y-136156D02*
X55666Y-134556D01*
X57266D01*
X56466Y-136156D01*
Y-146156D02*
X55666Y-144556D01*
X57266D01*
X56466Y-146156D01*
Y-156156D02*
X55666Y-154556D01*
X57266D01*
X56466Y-156156D01*
Y-166156D02*
X55666Y-164556D01*
X57266D01*
X56466Y-166156D01*
Y-176156D02*
X55666Y-174556D01*
X57266D01*
X56466Y-176156D01*
X53966Y-181156D02*
X53166Y-179556D01*
X54766D01*
X53966Y-181156D01*
X56466Y-186156D02*
X55666Y-184556D01*
X57266D01*
X56466Y-186156D01*
Y-196156D02*
X55666Y-194556D01*
X57266D01*
X56466Y-196156D01*
X53966Y-201156D02*
X53166Y-199556D01*
X54766D01*
X53966Y-201156D01*
X56466Y-216156D02*
X55666Y-214556D01*
X57266D01*
X56466Y-216156D01*
X53966Y-221156D02*
X53166Y-219556D01*
X54766D01*
X53966Y-221156D01*
X56466Y-226156D02*
X55666Y-224556D01*
X57266D01*
X56466Y-226156D01*
X53966Y-231156D02*
X53166Y-229556D01*
X54766D01*
X53966Y-231156D01*
X56466Y-236156D02*
X55666Y-234556D01*
X57266D01*
X56466Y-236156D01*
X53966Y-241156D02*
X53166Y-239556D01*
X54766D01*
X53966Y-241156D01*
X56466Y-246156D02*
X55666Y-244556D01*
X57266D01*
X56466Y-246156D01*
X53966Y-251156D02*
X53166Y-249556D01*
X54766D01*
X53966Y-251156D01*
X51466Y-6156D02*
X50666Y-4556D01*
X52266D01*
X51466Y-6156D01*
X48966Y-21156D02*
X48166Y-19556D01*
X49766D01*
X48966Y-21156D01*
X51466Y-26156D02*
X50666Y-24556D01*
X52266D01*
X51466Y-26156D01*
X48966Y-91156D02*
X48166Y-89556D01*
X49766D01*
X48966Y-91156D01*
Y-131156D02*
X48166Y-129556D01*
X49766D01*
X48966Y-131156D01*
X51466Y-136156D02*
X50666Y-134556D01*
X52266D01*
X51466Y-136156D01*
X48966Y-141156D02*
X48166Y-139556D01*
X49766D01*
X48966Y-141156D01*
X51466Y-146156D02*
X50666Y-144556D01*
X52266D01*
X51466Y-146156D01*
X48966Y-151156D02*
X48166Y-149556D01*
X49766D01*
X48966Y-151156D01*
X51466Y-156156D02*
X50666Y-154556D01*
X52266D01*
X51466Y-156156D01*
X48966Y-161156D02*
X48166Y-159556D01*
X49766D01*
X48966Y-161156D01*
X51466Y-166156D02*
X50666Y-164556D01*
X52266D01*
X51466Y-166156D01*
X48966Y-171156D02*
X48166Y-169556D01*
X49766D01*
X48966Y-171156D01*
Y-181156D02*
X48166Y-179556D01*
X49766D01*
X48966Y-181156D01*
X51466Y-186156D02*
X50666Y-184556D01*
X52266D01*
X51466Y-186156D01*
Y-196156D02*
X50666Y-194556D01*
X52266D01*
X51466Y-196156D01*
X48966Y-201156D02*
X48166Y-199556D01*
X49766D01*
X48966Y-201156D01*
X51466Y-216156D02*
X50666Y-214556D01*
X52266D01*
X51466Y-216156D01*
X48966Y-221156D02*
X48166Y-219556D01*
X49766D01*
X48966Y-221156D01*
X51466Y-226156D02*
X50666Y-224556D01*
X52266D01*
X51466Y-226156D01*
X48966Y-231156D02*
X48166Y-229556D01*
X49766D01*
X48966Y-231156D01*
X51466Y-236156D02*
X50666Y-234556D01*
X52266D01*
X51466Y-236156D01*
X48966Y-241156D02*
X48166Y-239556D01*
X49766D01*
X48966Y-241156D01*
X51466Y-246156D02*
X50666Y-244556D01*
X52266D01*
X51466Y-246156D01*
X48966Y-251156D02*
X48166Y-249556D01*
X49766D01*
X48966Y-251156D01*
X46466Y-6156D02*
X45666Y-4556D01*
X47266D01*
X46466Y-6156D01*
X43966Y-21156D02*
X43166Y-19556D01*
X44766D01*
X43966Y-21156D01*
X46466Y-26156D02*
X45666Y-24556D01*
X47266D01*
X46466Y-26156D01*
Y-196156D02*
X45666Y-194556D01*
X47266D01*
X46466Y-196156D01*
X43966Y-201156D02*
X43166Y-199556D01*
X44766D01*
X43966Y-201156D01*
X46466Y-216156D02*
X45666Y-214556D01*
X47266D01*
X46466Y-216156D01*
X43966Y-221156D02*
X43166Y-219556D01*
X44766D01*
X43966Y-221156D01*
X46466Y-226156D02*
X45666Y-224556D01*
X47266D01*
X46466Y-226156D01*
X43966Y-231156D02*
X43166Y-229556D01*
X44766D01*
X43966Y-231156D01*
X46466Y-236156D02*
X45666Y-234556D01*
X47266D01*
X46466Y-236156D01*
X43966Y-241156D02*
X43166Y-239556D01*
X44766D01*
X43966Y-241156D01*
X46466Y-246156D02*
X45666Y-244556D01*
X47266D01*
X46466Y-246156D01*
X43966Y-251156D02*
X43166Y-249556D01*
X44766D01*
X43966Y-251156D01*
X41466Y-6156D02*
X40666Y-4556D01*
X42266D01*
X41466Y-6156D01*
X38966Y-21156D02*
X38166Y-19556D01*
X39766D01*
X38966Y-21156D01*
X41466Y-26156D02*
X40666Y-24556D01*
X42266D01*
X41466Y-26156D01*
Y-196156D02*
X40666Y-194556D01*
X42266D01*
X41466Y-196156D01*
X38966Y-201156D02*
X38166Y-199556D01*
X39766D01*
X38966Y-201156D01*
X41466Y-216156D02*
X40666Y-214556D01*
X42266D01*
X41466Y-216156D01*
X38966Y-221156D02*
X38166Y-219556D01*
X39766D01*
X38966Y-221156D01*
X41466Y-226156D02*
X40666Y-224556D01*
X42266D01*
X41466Y-226156D01*
X38966Y-231156D02*
X38166Y-229556D01*
X39766D01*
X38966Y-231156D01*
X41466Y-236156D02*
X40666Y-234556D01*
X42266D01*
X41466Y-236156D01*
X38966Y-241156D02*
X38166Y-239556D01*
X39766D01*
X38966Y-241156D01*
X41466Y-246156D02*
X40666Y-244556D01*
X42266D01*
X41466Y-246156D01*
X38966Y-251156D02*
X38166Y-249556D01*
X39766D01*
X38966Y-251156D01*
X36466Y-6156D02*
X35666Y-4556D01*
X37266D01*
X36466Y-6156D01*
Y-26156D02*
X35666Y-24556D01*
X37266D01*
X36466Y-26156D01*
X33966Y-121156D02*
X33166Y-119556D01*
X34766D01*
X33966Y-121156D01*
Y-131156D02*
X33166Y-129556D01*
X34766D01*
X33966Y-131156D01*
Y-141156D02*
X33166Y-139556D01*
X34766D01*
X33966Y-141156D01*
Y-151156D02*
X33166Y-149556D01*
X34766D01*
X33966Y-151156D01*
X36466Y-196156D02*
X35666Y-194556D01*
X37266D01*
X36466Y-196156D01*
X33966Y-201156D02*
X33166Y-199556D01*
X34766D01*
X33966Y-201156D01*
X36466Y-216156D02*
X35666Y-214556D01*
X37266D01*
X36466Y-216156D01*
X33966Y-221156D02*
X33166Y-219556D01*
X34766D01*
X33966Y-221156D01*
X36466Y-226156D02*
X35666Y-224556D01*
X37266D01*
X36466Y-226156D01*
X33966Y-231156D02*
X33166Y-229556D01*
X34766D01*
X33966Y-231156D01*
X36466Y-236156D02*
X35666Y-234556D01*
X37266D01*
X36466Y-236156D01*
X33966Y-241156D02*
X33166Y-239556D01*
X34766D01*
X33966Y-241156D01*
X36466Y-246156D02*
X35666Y-244556D01*
X37266D01*
X36466Y-246156D01*
X33966Y-251156D02*
X33166Y-249556D01*
X34766D01*
X33966Y-251156D01*
X31466Y-6156D02*
X30666Y-4556D01*
X32266D01*
X31466Y-6156D01*
X28966Y-11156D02*
X28166Y-9556D01*
X29766D01*
X28966Y-11156D01*
Y-141156D02*
X28166Y-139556D01*
X29766D01*
X28966Y-141156D01*
X31466Y-146156D02*
X30666Y-144556D01*
X32266D01*
X31466Y-146156D01*
X28966Y-151156D02*
X28166Y-149556D01*
X29766D01*
X28966Y-151156D01*
X31466Y-156156D02*
X30666Y-154556D01*
X32266D01*
X31466Y-156156D01*
X28966Y-171156D02*
X28166Y-169556D01*
X29766D01*
X28966Y-171156D01*
Y-181156D02*
X28166Y-179556D01*
X29766D01*
X28966Y-181156D01*
Y-191156D02*
X28166Y-189556D01*
X29766D01*
X28966Y-191156D01*
X31466Y-196156D02*
X30666Y-194556D01*
X32266D01*
X31466Y-196156D01*
X28966Y-201156D02*
X28166Y-199556D01*
X29766D01*
X28966Y-201156D01*
Y-211156D02*
X28166Y-209556D01*
X29766D01*
X28966Y-211156D01*
X31466Y-216156D02*
X30666Y-214556D01*
X32266D01*
X31466Y-216156D01*
X28966Y-221156D02*
X28166Y-219556D01*
X29766D01*
X28966Y-221156D01*
X31466Y-226156D02*
X30666Y-224556D01*
X32266D01*
X31466Y-226156D01*
X28966Y-231156D02*
X28166Y-229556D01*
X29766D01*
X28966Y-231156D01*
X31466Y-236156D02*
X30666Y-234556D01*
X32266D01*
X31466Y-236156D01*
X28966Y-241156D02*
X28166Y-239556D01*
X29766D01*
X28966Y-241156D01*
X31466Y-246156D02*
X30666Y-244556D01*
X32266D01*
X31466Y-246156D01*
X28966Y-251156D02*
X28166Y-249556D01*
X29766D01*
X28966Y-251156D01*
X26466Y-6156D02*
X25666Y-4556D01*
X27266D01*
X26466Y-6156D01*
X23966Y-11156D02*
X23166Y-9556D01*
X24766D01*
X23966Y-11156D01*
X26466Y-16156D02*
X25666Y-14556D01*
X27266D01*
X26466Y-16156D01*
Y-166156D02*
X25666Y-164556D01*
X27266D01*
X26466Y-166156D01*
X23966Y-171156D02*
X23166Y-169556D01*
X24766D01*
X23966Y-171156D01*
X26466Y-176156D02*
X25666Y-174556D01*
X27266D01*
X26466Y-176156D01*
X23966Y-181156D02*
X23166Y-179556D01*
X24766D01*
X23966Y-181156D01*
X26466Y-186156D02*
X25666Y-184556D01*
X27266D01*
X26466Y-186156D01*
X23966Y-191156D02*
X23166Y-189556D01*
X24766D01*
X23966Y-191156D01*
X26466Y-196156D02*
X25666Y-194556D01*
X27266D01*
X26466Y-196156D01*
X23966Y-201156D02*
X23166Y-199556D01*
X24766D01*
X23966Y-201156D01*
X26466Y-216156D02*
X25666Y-214556D01*
X27266D01*
X26466Y-216156D01*
X23966Y-221156D02*
X23166Y-219556D01*
X24766D01*
X23966Y-221156D01*
X26466Y-226156D02*
X25666Y-224556D01*
X27266D01*
X26466Y-226156D01*
X23966Y-231156D02*
X23166Y-229556D01*
X24766D01*
X23966Y-231156D01*
X26466Y-236156D02*
X25666Y-234556D01*
X27266D01*
X26466Y-236156D01*
X23966Y-241156D02*
X23166Y-239556D01*
X24766D01*
X23966Y-241156D01*
X26466Y-246156D02*
X25666Y-244556D01*
X27266D01*
X26466Y-246156D01*
X23966Y-251156D02*
X23166Y-249556D01*
X24766D01*
X23966Y-251156D01*
X21466Y-6156D02*
X20666Y-4556D01*
X22266D01*
X21466Y-6156D01*
Y-16156D02*
X20666Y-14556D01*
X22266D01*
X21466Y-16156D01*
X18966Y-21156D02*
X18166Y-19556D01*
X19766D01*
X18966Y-21156D01*
X21466Y-26156D02*
X20666Y-24556D01*
X22266D01*
X21466Y-26156D01*
X18966Y-31156D02*
X18166Y-29556D01*
X19766D01*
X18966Y-31156D01*
X21466Y-36156D02*
X20666Y-34556D01*
X22266D01*
X21466Y-36156D01*
X18966Y-41156D02*
X18166Y-39556D01*
X19766D01*
X18966Y-41156D01*
X21466Y-46156D02*
X20666Y-44556D01*
X22266D01*
X21466Y-46156D01*
X18966Y-51156D02*
X18166Y-49556D01*
X19766D01*
X18966Y-51156D01*
X21466Y-56156D02*
X20666Y-54556D01*
X22266D01*
X21466Y-56156D01*
X18966Y-61156D02*
X18166Y-59556D01*
X19766D01*
X18966Y-61156D01*
X21466Y-66156D02*
X20666Y-64556D01*
X22266D01*
X21466Y-66156D01*
X18966Y-71156D02*
X18166Y-69556D01*
X19766D01*
X18966Y-71156D01*
X21466Y-76156D02*
X20666Y-74556D01*
X22266D01*
X21466Y-76156D01*
X18966Y-81156D02*
X18166Y-79556D01*
X19766D01*
X18966Y-81156D01*
X21466Y-86156D02*
X20666Y-84556D01*
X22266D01*
X21466Y-86156D01*
X18966Y-91156D02*
X18166Y-89556D01*
X19766D01*
X18966Y-91156D01*
X21466Y-96156D02*
X20666Y-94556D01*
X22266D01*
X21466Y-96156D01*
X18966Y-101156D02*
X18166Y-99556D01*
X19766D01*
X18966Y-101156D01*
X21466Y-106156D02*
X20666Y-104556D01*
X22266D01*
X21466Y-106156D01*
Y-116156D02*
X20666Y-114556D01*
X22266D01*
X21466Y-116156D01*
X18966Y-121156D02*
X18166Y-119556D01*
X19766D01*
X18966Y-121156D01*
X21466Y-126156D02*
X20666Y-124556D01*
X22266D01*
X21466Y-126156D01*
X18966Y-131156D02*
X18166Y-129556D01*
X19766D01*
X18966Y-131156D01*
X21466Y-136156D02*
X20666Y-134556D01*
X22266D01*
X21466Y-136156D01*
X18966Y-141156D02*
X18166Y-139556D01*
X19766D01*
X18966Y-141156D01*
X21466Y-146156D02*
X20666Y-144556D01*
X22266D01*
X21466Y-146156D01*
X18966Y-151156D02*
X18166Y-149556D01*
X19766D01*
X18966Y-151156D01*
X21466Y-166156D02*
X20666Y-164556D01*
X22266D01*
X21466Y-166156D01*
X18966Y-171156D02*
X18166Y-169556D01*
X19766D01*
X18966Y-171156D01*
X21466Y-176156D02*
X20666Y-174556D01*
X22266D01*
X21466Y-176156D01*
X18966Y-181156D02*
X18166Y-179556D01*
X19766D01*
X18966Y-181156D01*
X21466Y-186156D02*
X20666Y-184556D01*
X22266D01*
X21466Y-186156D01*
X18966Y-191156D02*
X18166Y-189556D01*
X19766D01*
X18966Y-191156D01*
X21466Y-196156D02*
X20666Y-194556D01*
X22266D01*
X21466Y-196156D01*
X18966Y-201156D02*
X18166Y-199556D01*
X19766D01*
X18966Y-201156D01*
X21466Y-216156D02*
X20666Y-214556D01*
X22266D01*
X21466Y-216156D01*
X18966Y-221156D02*
X18166Y-219556D01*
X19766D01*
X18966Y-221156D01*
X21466Y-226156D02*
X20666Y-224556D01*
X22266D01*
X21466Y-226156D01*
X18966Y-231156D02*
X18166Y-229556D01*
X19766D01*
X18966Y-231156D01*
X21466Y-236156D02*
X20666Y-234556D01*
X22266D01*
X21466Y-236156D01*
Y-246156D02*
X20666Y-244556D01*
X22266D01*
X21466Y-246156D01*
X16466Y-26156D02*
X15666Y-24556D01*
X17266D01*
X16466Y-26156D01*
X13966Y-31156D02*
X13166Y-29556D01*
X14766D01*
X13966Y-31156D01*
X16466Y-36156D02*
X15666Y-34556D01*
X17266D01*
X16466Y-36156D01*
X13966Y-41156D02*
X13166Y-39556D01*
X14766D01*
X13966Y-41156D01*
X16466Y-46156D02*
X15666Y-44556D01*
X17266D01*
X16466Y-46156D01*
X13966Y-51156D02*
X13166Y-49556D01*
X14766D01*
X13966Y-51156D01*
X16466Y-56156D02*
X15666Y-54556D01*
X17266D01*
X16466Y-56156D01*
X13966Y-61156D02*
X13166Y-59556D01*
X14766D01*
X13966Y-61156D01*
X16466Y-66156D02*
X15666Y-64556D01*
X17266D01*
X16466Y-66156D01*
X13966Y-71156D02*
X13166Y-69556D01*
X14766D01*
X13966Y-71156D01*
X16466Y-76156D02*
X15666Y-74556D01*
X17266D01*
X16466Y-76156D01*
X13966Y-81156D02*
X13166Y-79556D01*
X14766D01*
X13966Y-81156D01*
X16466Y-86156D02*
X15666Y-84556D01*
X17266D01*
X16466Y-86156D01*
X13966Y-91156D02*
X13166Y-89556D01*
X14766D01*
X13966Y-91156D01*
X16466Y-96156D02*
X15666Y-94556D01*
X17266D01*
X16466Y-96156D01*
X13966Y-101156D02*
X13166Y-99556D01*
X14766D01*
X13966Y-101156D01*
X16466Y-106156D02*
X15666Y-104556D01*
X17266D01*
X16466Y-106156D01*
Y-116156D02*
X15666Y-114556D01*
X17266D01*
X16466Y-116156D01*
X13966Y-121156D02*
X13166Y-119556D01*
X14766D01*
X13966Y-121156D01*
X16466Y-126156D02*
X15666Y-124556D01*
X17266D01*
X16466Y-126156D01*
X13966Y-131156D02*
X13166Y-129556D01*
X14766D01*
X13966Y-131156D01*
X16466Y-136156D02*
X15666Y-134556D01*
X17266D01*
X16466Y-136156D01*
X13966Y-141156D02*
X13166Y-139556D01*
X14766D01*
X13966Y-141156D01*
X16466Y-146156D02*
X15666Y-144556D01*
X17266D01*
X16466Y-146156D01*
X13966Y-151156D02*
X13166Y-149556D01*
X14766D01*
X13966Y-151156D01*
X16466Y-166156D02*
X15666Y-164556D01*
X17266D01*
X16466Y-166156D01*
X13966Y-171156D02*
X13166Y-169556D01*
X14766D01*
X13966Y-171156D01*
X16466Y-176156D02*
X15666Y-174556D01*
X17266D01*
X16466Y-176156D01*
X13966Y-181156D02*
X13166Y-179556D01*
X14766D01*
X13966Y-181156D01*
X16466Y-186156D02*
X15666Y-184556D01*
X17266D01*
X16466Y-186156D01*
X13966Y-191156D02*
X13166Y-189556D01*
X14766D01*
X13966Y-191156D01*
X16466Y-196156D02*
X15666Y-194556D01*
X17266D01*
X16466Y-196156D01*
X13966Y-201156D02*
X13166Y-199556D01*
X14766D01*
X13966Y-201156D01*
X16466Y-216156D02*
X15666Y-214556D01*
X17266D01*
X16466Y-216156D01*
X13966Y-221156D02*
X13166Y-219556D01*
X14766D01*
X13966Y-221156D01*
X16466Y-226156D02*
X15666Y-224556D01*
X17266D01*
X16466Y-226156D01*
X13966Y-231156D02*
X13166Y-229556D01*
X14766D01*
X13966Y-231156D01*
X16466Y-236156D02*
X15666Y-234556D01*
X17266D01*
X16466Y-236156D01*
X11466Y-26156D02*
X10666Y-24556D01*
X12266D01*
X11466Y-26156D01*
X8966Y-31156D02*
X8166Y-29556D01*
X9766D01*
X8966Y-31156D01*
X11466Y-36156D02*
X10666Y-34556D01*
X12266D01*
X11466Y-36156D01*
X8966Y-41156D02*
X8166Y-39556D01*
X9766D01*
X8966Y-41156D01*
X11466Y-46156D02*
X10666Y-44556D01*
X12266D01*
X11466Y-46156D01*
X8966Y-51156D02*
X8166Y-49556D01*
X9766D01*
X8966Y-51156D01*
X11466Y-56156D02*
X10666Y-54556D01*
X12266D01*
X11466Y-56156D01*
X8966Y-61156D02*
X8166Y-59556D01*
X9766D01*
X8966Y-61156D01*
X11466Y-66156D02*
X10666Y-64556D01*
X12266D01*
X11466Y-66156D01*
X8966Y-71156D02*
X8166Y-69556D01*
X9766D01*
X8966Y-71156D01*
X11466Y-76156D02*
X10666Y-74556D01*
X12266D01*
X11466Y-76156D01*
X8966Y-81156D02*
X8166Y-79556D01*
X9766D01*
X8966Y-81156D01*
X11466Y-86156D02*
X10666Y-84556D01*
X12266D01*
X11466Y-86156D01*
X8966Y-91156D02*
X8166Y-89556D01*
X9766D01*
X8966Y-91156D01*
X11466Y-96156D02*
X10666Y-94556D01*
X12266D01*
X11466Y-96156D01*
X8966Y-101156D02*
X8166Y-99556D01*
X9766D01*
X8966Y-101156D01*
X11466Y-106156D02*
X10666Y-104556D01*
X12266D01*
X11466Y-106156D01*
Y-116156D02*
X10666Y-114556D01*
X12266D01*
X11466Y-116156D01*
X8966Y-121156D02*
X8166Y-119556D01*
X9766D01*
X8966Y-121156D01*
X11466Y-126156D02*
X10666Y-124556D01*
X12266D01*
X11466Y-126156D01*
X8966Y-131156D02*
X8166Y-129556D01*
X9766D01*
X8966Y-131156D01*
X11466Y-136156D02*
X10666Y-134556D01*
X12266D01*
X11466Y-136156D01*
X8966Y-141156D02*
X8166Y-139556D01*
X9766D01*
X8966Y-141156D01*
X11466Y-146156D02*
X10666Y-144556D01*
X12266D01*
X11466Y-146156D01*
X8966Y-151156D02*
X8166Y-149556D01*
X9766D01*
X8966Y-151156D01*
X11466Y-166156D02*
X10666Y-164556D01*
X12266D01*
X11466Y-166156D01*
X8966Y-171156D02*
X8166Y-169556D01*
X9766D01*
X8966Y-171156D01*
X11466Y-176156D02*
X10666Y-174556D01*
X12266D01*
X11466Y-176156D01*
X8966Y-181156D02*
X8166Y-179556D01*
X9766D01*
X8966Y-181156D01*
X11466Y-186156D02*
X10666Y-184556D01*
X12266D01*
X11466Y-186156D01*
X8966Y-191156D02*
X8166Y-189556D01*
X9766D01*
X8966Y-191156D01*
X11466Y-196156D02*
X10666Y-194556D01*
X12266D01*
X11466Y-196156D01*
X8966Y-201156D02*
X8166Y-199556D01*
X9766D01*
X8966Y-201156D01*
X11466Y-216156D02*
X10666Y-214556D01*
X12266D01*
X11466Y-216156D01*
X8966Y-221156D02*
X8166Y-219556D01*
X9766D01*
X8966Y-221156D01*
X11466Y-226156D02*
X10666Y-224556D01*
X12266D01*
X11466Y-226156D01*
X8966Y-231156D02*
X8166Y-229556D01*
X9766D01*
X8966Y-231156D01*
X6466Y-26156D02*
X5666Y-24556D01*
X7266D01*
X6466Y-26156D01*
Y-36156D02*
X5666Y-34556D01*
X7266D01*
X6466Y-36156D01*
Y-46156D02*
X5666Y-44556D01*
X7266D01*
X6466Y-46156D01*
Y-56156D02*
X5666Y-54556D01*
X7266D01*
X6466Y-56156D01*
Y-66156D02*
X5666Y-64556D01*
X7266D01*
X6466Y-66156D01*
Y-76156D02*
X5666Y-74556D01*
X7266D01*
X6466Y-76156D01*
Y-86156D02*
X5666Y-84556D01*
X7266D01*
X6466Y-86156D01*
Y-96156D02*
X5666Y-94556D01*
X7266D01*
X6466Y-96156D01*
Y-106156D02*
X5666Y-104556D01*
X7266D01*
X6466Y-106156D01*
Y-116156D02*
X5666Y-114556D01*
X7266D01*
X6466Y-116156D01*
Y-126156D02*
X5666Y-124556D01*
X7266D01*
X6466Y-126156D01*
Y-136156D02*
X5666Y-134556D01*
X7266D01*
X6466Y-136156D01*
Y-146156D02*
X5666Y-144556D01*
X7266D01*
X6466Y-146156D01*
Y-156156D02*
X5666Y-154556D01*
X7266D01*
X6466Y-156156D01*
Y-166156D02*
X5666Y-164556D01*
X7266D01*
X6466Y-166156D01*
Y-176156D02*
X5666Y-174556D01*
X7266D01*
X6466Y-176156D01*
Y-186156D02*
X5666Y-184556D01*
X7266D01*
X6466Y-186156D01*
Y-196156D02*
X5666Y-194556D01*
X7266D01*
X6466Y-196156D01*
Y-206156D02*
X5666Y-204556D01*
X7266D01*
X6466Y-206156D01*
Y-216156D02*
X5666Y-214556D01*
X7266D01*
X6466Y-216156D01*
Y-226156D02*
X5666Y-224556D01*
X7266D01*
X6466Y-226156D01*
Y-236156D02*
X5666Y-234556D01*
X7266D01*
X6466Y-236156D01*
X53873Y-102947D02*
X54273Y-102547D01*
X54673D01*
X54273Y-102147D01*
X54673Y-101747D01*
X54273D01*
X53873Y-101347D01*
X53473Y-101747D01*
X53073D01*
X53473Y-102147D01*
X53073Y-102547D01*
X53473D01*
X53873Y-102947D01*
X52920Y-97900D02*
X53320Y-97500D01*
X53720D01*
X53320Y-97100D01*
X53720Y-96700D01*
X53320D01*
X52920Y-96300D01*
X52520Y-96700D01*
X52120D01*
X52520Y-97100D01*
X52120Y-97500D01*
X52520D01*
X52920Y-97900D01*
X83390Y-225454D02*
X83790Y-225054D01*
X84190D01*
X83790Y-224654D01*
X84190Y-224254D01*
X83790D01*
X83390Y-223854D01*
X82990Y-224254D01*
X82590D01*
X82990Y-224654D01*
X82590Y-225054D01*
X82990D01*
X83390Y-225454D01*
X97148Y-225078D02*
X97548Y-224678D01*
X97948D01*
X97548Y-224278D01*
X97948Y-223878D01*
X97548D01*
X97148Y-223478D01*
X96748Y-223878D01*
X96348D01*
X96748Y-224278D01*
X96348Y-224678D01*
X96748D01*
X97148Y-225078D01*
X129528Y-10328D02*
X129928Y-9928D01*
X130328D01*
X129928Y-9528D01*
X130328Y-9128D01*
X129928D01*
X129528Y-8728D01*
X129128Y-9128D01*
X128728D01*
X129128Y-9528D01*
X128728Y-9928D01*
X129128D01*
X129528Y-10328D01*
X129500Y-15300D02*
X129900Y-14900D01*
X130300D01*
X129900Y-14500D01*
X130300Y-14100D01*
X129900D01*
X129500Y-13700D01*
X129100Y-14100D01*
X128700D01*
X129100Y-14500D01*
X128700Y-14900D01*
X129100D01*
X129500Y-15300D01*
X50823Y-78497D02*
X51223Y-78097D01*
X51623D01*
X51223Y-77697D01*
X51623Y-77297D01*
X51223D01*
X50823Y-76897D01*
X50423Y-77297D01*
X50023D01*
X50423Y-77697D01*
X50023Y-78097D01*
X50423D01*
X50823Y-78497D01*
D58*
X114123Y-106091D02*
G03*
X114123Y-106091I-800J0D01*
G01*
Y-125303D02*
G03*
X114123Y-125303I-800J0D01*
G01*
M02*
