M48
;Layer_Color=9474304
;FILE_FORMAT=2:4
INCH,TZ
;TYPE=PLATED
T1F00S00C0.0080
T2F00S00C0.0118
T3F00S00C0.0259
T4F00S00C0.0402
%
T01
X647Y-23536
X897Y-23036
X1397
X1897
X2397
X2897
X3397
X3897
X4397
X4897
X5397
X5897
X6397
X6897
X7397
X7647Y-22536
X7147
X6647
X6147
X5647
X5147
X4647
X4147
X3647
X3147
X2647
X2147
X1647
X1147
X647
X897Y-22036
X1397
X1897
X2397
X2897
X3397
X3897
X4397
X4897
X5397
X5897
X6397
X6897
X7397
X8397
X8897
X9147Y-21536
X9647
X10147
X10647
X11147
X11647
X11897Y-21036
X11397
X10897
X10397
X9897
X9397
X8897
X9147Y-20536
X9647
X10147
X10647
X11147
X11647
X11897Y-20036
X11397
X10897
X10397
X9897
X9397
X8897
X8397
X7897
X7647Y-20536
X7897Y-21036
X7397
X8147Y-21536
X8647Y-20536
Y-19536
X9147
X9647
X10147
X10647
X11147
X11647
X11897Y-19036
X11397
X10897
X10397
X9897
X9397
X8897
Y-18036
X9897
X10397
X10897
X11397
X11897
X11647Y-17536
X11147
X10647
X10897Y-17036
X11397
X11897
X11647Y-16536
X11897Y-16036
Y-15036
Y-14036
X11397
X10897
X10397
X9897
X9397
X8897
X8397
X7897
X7397
X7647Y-14536
X7147
X7397Y-15036
X7897
X8397
X8897
X9397
X9897
X10397
X10897
X11147Y-14536
X10647
X10147
X9647
X9147
X8647
Y-15536
X9147
X9647
X10147
X9897Y-16036
X9397
X8897
X8397
X7897
X7397
X7647Y-15536
X7147
Y-16536
X7647
X7897Y-17036
X8397
X8897
X9147Y-16536
X8647
X9897Y-17036
X10147Y-18536
X10647
X11147
X11647
X9647
X7897Y-18036
X7397
X7647Y-17536
X7147
X7397Y-17036
X6397
X5897
X6147Y-16536
X5647
X5147
X4897Y-16036
X5147Y-15536
X5647
X6147
X6397Y-15036
X5897
X6147Y-14536
X5647
X5147
X4897Y-14036
X5897
X6397
Y-16036
X5897
X6147Y-17536
X5647
X5897Y-18036
X6397
X6147Y-18536
X5647
X5147
X5397Y-18036
X4897
Y-17036
Y-15036
X3397
X2897
X3147Y-14536
X3397Y-14036
X2897
X1897
X1397
X897
X1147Y-14536
X1647
X2147
X1897Y-15036
X1397
X897
X647Y-14536
Y-15536
Y-16536
X1147
X1647
X2147
X2647
X2897Y-17036
X2397
X1897
X1397
X897
X1147Y-17536
X1647
X2147
X2647
X2897Y-18036
X2397
X1897
X1397
X897
X1147Y-18536
X1647
X2147
X2647
X2897Y-19036
X2397
X1897
X1397
X897
X1147Y-19536
X1647
X2147
X2647
X3147
X3647
X4147
X4647
X5147
X5647
X6147
X6397Y-20036
X5897
X5397
X4897
X4397
X3897
X3397
X2897
X2397
X1897
X1397
X897
X647Y-19536
Y-18536
Y-17536
Y-20536
Y-21536
X1147
X1647
X2147
X2647
X3147
X3647
X4147
X4647
X5147
X5647
X6147
X6647
Y-23536
X7147
X7647
X7397Y-24036
X6897
X6397
X5897
X5397
X4897
X4397
X3897
X3397
X2897
X2397
X2647Y-23536
X3147
X3647
X4147
X4647
X5147
X5647
X6147
Y-24536
X6647
X7147
X7647
X8147
X8647
X9147
X9647
X10147
X10647
X11147
X11647
X11897Y-24036
X11647Y-23536
X11897Y-23036
X11647Y-22536
X11897Y-22036
X11397
X10897
X10397
X9897
X10397Y-23036
Y-24036
Y-25036
X10897
X11397
X11897
X9897
X9397
X8897
X8397
X7897
X7397
X6897
X6397
X5897
X5397
X4897
X4397
X3897
X3397
X2897
X2397
X2647Y-24536
X3147
X3647
X4147
X4647
X5147
X5647
X2147
Y-23536
X1647
X2897Y-21036
X7147Y-19536
Y-18536
X7897Y-19036
X10897Y-16036
X3147Y-15536
X12647
X13147
X13397Y-15036
X12897
Y-14036
X14897
X15397
X15897
X16147Y-14536
X15647
X15147
X15397Y-15036
X15897
X16147Y-15536
X15647
X15147
X15397Y-16036
X15897
X16147Y-16536
X15647
X15147
X15397Y-17036
X15897
X16147Y-17536
X15647
X15147
X15397Y-18036
X15897
X16147Y-18536
X15647
X15147
X15397Y-19036
X15897
X16147Y-19536
X15647
X15147
X14647
X14147
X13647
X13147
X12647
X12147
X12397Y-19036
X12897
X13397
X13897
X14397
X14897
Y-18036
Y-17036
Y-16036
Y-15036
X13397Y-16036
X12897
X12397
X12647Y-16536
X13147
X13397Y-17036
X12897
X12397
X12647Y-17536
X13147
X13397Y-18036
X12897
X12397
X12647Y-18536
X13147
X12147
Y-17536
Y-16536
X12397Y-20036
X12897
X13397
X13897
X14397
X14897
X15397
X15897
X16147Y-20536
X15647
X15147
X14647
X14147
X13647
X13147
X12647
X12147
X12397Y-21036
X12897
X13397
X13897
X14397
X14897
X15397
X15897
X16147Y-21536
X15647
X15147
X14647
X14147
X13647
X13147
X12647
X12147
X12397Y-22036
X12897
X13397
X13897
X14397
X14897
X15397
X15897
X16147Y-22536
X15647
X15147
X14647
X14147
X13647
X13147
X12647
X12147
X12397Y-23036
X12897
X13397
X13897
X14397
X14897
X15397
X15897
X16147Y-23536
X15147
X14647
X14147
X13647
X13147
X12647
X12147
X12397Y-24036
X12897
X13397
X13897
X14397
X14147Y-24536
X13647
X13147
X12647
X12147
X12397Y-25036
X12897
X13397
X13897
X14397
X15147Y-13536
X15647
X16147
X15897Y-13036
X15397
X14897
X15147Y-12536
X15647
X16147
X15897Y-12036
X15397
X14897
X15147Y-11536
X15647
X16147
X15897Y-11036
X15397
X14897
X15147Y-10536
X15647
X16147
X15897Y-10036
X15397
X14897
X15147Y-9536
X15647
X16147
X15897Y-9036
X15397
X14897
X15147Y-8536
X15647
X16147
X15897Y-8036
X15397
X14897
X15147Y-7536
X15647
X16147
X15897Y-7036
X15397
X14897
X13397
X12897
X13147Y-6536
X13397Y-6036
X12897
X13147Y-5536
X13397Y-5036
X12897
X13147Y-4536
X13397Y-4036
X12897
X13147Y-3536
X13647
X14147
X13897Y-3036
X13397
X12897
X13147Y-2536
X13647
X12647
X12147
X12397Y-2036
X12897
X14397
X14897
X14647Y-1536
X14147
X14397Y-1036
X13897
X13397
X13647Y-536
X14147
X14647
X13147
X12647
X12147
X16147Y-2536
Y-4536
X15647
X15147
X13147Y-7536
X12647
X12897Y-8036
X13397
X13147Y-8536
X12647
X12147
X12397Y-8036
Y-9036
X12897
X13397
X13147Y-9536
X12647
X12147
X12397Y-10036
X12897
X13397
X12397Y-11036
X12147Y-11536
X12397Y-12036
Y-13036
X12147Y-13536
X11647
X11147
X10647
X10147
X9647
X9147
X8647
X8897Y-13036
X9397
X9897
X10397
X10897
X11397
X11897
Y-12036
X11397
X11647Y-11536
X11147
X10647
X10397Y-12036
X10647Y-12536
X10147
X9647
X9147
X8647
X8897Y-12036
X8397
X7897
X7397
X7647Y-11536
X7147
X7397Y-11036
X7897
X8397
X8897
X8647Y-10536
X8897Y-10036
X8397
X7897
X7397
X7647Y-9536
X7147
X7397Y-9036
X7897
X8397
X8897
X8647Y-8536
X8397Y-8036
X7897
X7397
X7647Y-8536
X7147
Y-10536
X7647
X8647Y-9536
X10647
X11147
X11647
X11897Y-9036
X11397
X10897
X10397
Y-10036
X10897
X11397
X11897
Y-11036
X11397
X10647Y-10536
X11147Y-8536
X11647
X11897Y-8036
X11397
X11147Y-7536
X9147
X8897Y-7036
X8397
X8147Y-6536
X8397Y-6036
X6897
X6397
X6647Y-6536
X6147
X6397Y-7036
X6147Y-7536
X4897Y-9036
X1897
X1397
X897
X1147Y-8536
X1647
X2147
X1897Y-8036
X1397
X897
X1147Y-7536
X1647
X2147
X1897Y-7036
X1397
X897
X1147Y-6536
X1647
X2147
X1897Y-6036
X1397
X897
X1147Y-5536
X1647
X2147
X1897Y-5036
X1397
X897
X1147Y-4536
X1647
X2147
X1897Y-4036
X1397
X897
X1147Y-3536
X1647
X2147
X1897Y-3036
X1397
X897
X1147Y-2536
X1647
X2147
X1897Y-2036
X2147Y-1536
X2647
X2897Y-1036
X2397
X2647Y-536
X3147
X3647
X4147
X4647
X5147
X5647
X6147
X6647
X7147
X7647
X8147
X8647
X9147
X9647
X10147
X10647
X11147
X11647
X11897Y-2036
X11397
X10897
X10397
X9897
X9397
X8897
X8397
X7897
X7397
X6897
X6397
X4897
X4397
X3897
X4147Y-2536
X4647
X5147
X3647
X647
Y-3536
Y-4536
Y-5536
Y-6536
Y-7536
Y-8536
Y-9536
X1147
X1647
X2147
X1897Y-10036
X1397
X897
X1147Y-10536
X1647
X2147
Y-11536
X1647
X1147
X647
X897Y-12036
X1397
X1897
X2147Y-12536
X1647
X1147
X647
X897Y-13036
X1397
X1897
X2147Y-13536
X1647
X1147
X647
Y-10536
X3397Y-12036
Y-13036
X4897
X5147Y-13536
X5647
X6147
X6397Y-13036
X5897
X6147Y-12536
X5647
X7147
X7647
X7897Y-13036
X8397
X7397
X7647Y-13536
X7147
X8647Y-11536
X10397Y-6036
X10647Y-2536
X11147
X11647
X10147
X9647
X9147
X8647
X8147
X7647
X2147Y-536
T02
X8339Y-22465
X9715Y-22428
X12950Y-1450
X12953Y-953
X5082Y-7770
X5292Y-9710
X5387Y-10215
T03
X11332Y-12530
Y-10609
T04
X4150Y-18342
Y-17342
Y-16342
Y-15342
Y-14342
X14150
Y-15342
Y-16342
Y-17342
Y-18342
Y-13342
Y-12342
Y-11342
Y-10342
Y-9342
Y-8342
Y-7342
Y-6342
Y-5342
Y-4342
X4150
Y-5342
Y-6342
Y-7342
Y-8342
Y-9342
Y-10342
Y-11342
Y-12342
Y-13342
M30
